<svg width="114" height="114" fill="none" xmlns="http://www.w3.org/2000/svg"><mask id="mask0_362_95833" style="mask-type:alpha" maskUnits="userSpaceOnUse" x="0" y="0" width="114" height="114"><path fill="#D9D9D9" d="M0 0h114v114H0z"/></mask><g mask="url(#mask0_362_95833)"><path d="M21.375 99.75c-1.98 0-3.662-.693-5.047-2.078-1.385-1.385-2.078-3.068-2.078-5.047v-71.25c0-1.98.693-3.662 2.078-5.047 1.386-1.385 3.068-2.078 5.047-2.078h71.25c1.98 0 3.662.693 5.047 2.078 1.385 1.386 2.078 3.068 2.078 5.047v39.069a18.46 18.46 0 00-3.503-1.544 32.684 32.684 0 00-3.622-.95V21.375h-71.25v71.25h36.694a49.921 49.921 0 001.069 3.681c.395 1.188.87 2.336 1.425 3.444H21.374zm0-7.125v-71.25V57.95v-.475 35.15zM33.25 80.75h25.056a49.953 49.953 0 011.069-3.681c.396-1.188.91-2.336 1.544-3.444H33.25v7.125zm0-20.188H74.1a26.787 26.787 0 013.206-1.365 40.897 40.897 0 013.444-1.01v-4.75h-47.5v7.126zm0-20.187h47.5V33.25h-47.5v7.125zm53.794 68.756c-6.175 0-11.44-2.197-15.794-6.59-4.354-4.394-6.531-9.6-6.531-15.616 0-6.175 2.177-11.46 6.531-15.853 4.354-4.394 9.619-6.59 15.794-6.59 6.096 0 11.34 2.196 15.734 6.59s6.591 9.678 6.591 15.853c0 6.017-2.197 11.222-6.591 15.616-4.394 4.393-9.638 6.59-15.734 6.59zm-1.781-7.125h3.918V88.944h13.063v-3.919H89.181V71.962h-3.918v13.063H72.2v3.919h13.063v13.062z" fill="#D9E8FF"/></g></svg>