<svg width="18" height="18" fill="none" xmlns="http://www.w3.org/2000/svg"><path d="M8.965 13.405c.21 1.202-.583 2.349-1.77 2.56-1.186.213-2.318-.59-2.527-1.793l-.333-1.914C2.442 11.94 1 10.272 1 8.263c0-2.239 1.79-4.054 4-4.054h5.758l2.888-1.863a2.165 2.165 0 013.013.678c.223.354.341.766.341 1.187v8.104c0 1.22-.977 2.21-2.182 2.21a2.17 2.17 0 01-1.172-.345l-2.888-1.864H8.776l.19 1.089zm-2.864.511c.07.401.446.669.842.598a.736.736 0 00.59-.853l-.234-1.346H5.822l.279 1.601zM14.428 3.59l-3.246 2.094v5.16l3.246 2.093a.72.72 0 00.39.116c.402 0 .728-.33.728-.737V4.21a.75.75 0 00-.114-.396.722.722 0 00-1.004-.226zm-4.7 2.094H5c-1.406 0-2.545 1.155-2.545 2.58 0 1.424 1.14 2.58 2.545 2.58h4.727v-5.16z" fill="#226EE0"/></svg>