<svg width="18" height="18" fill="none" xmlns="http://www.w3.org/2000/svg"><path d="M6.2 16a1.35 1.35 0 01-.988-.41 1.349 1.349 0 01-.412-.99c0-.385.137-.715.412-.99.274-.273.603-.41.988-.41s.714.137.988.41c.275.275.412.605.412.99s-.137.715-.412.99A1.35 1.35 0 016.2 16zm7 0a1.35 1.35 0 01-.988-.41 1.349 1.349 0 01-.412-.99c0-.385.137-.715.412-.99.274-.273.603-.41.988-.41s.715.137.99.41c.273.275.41.605.41.99s-.137.715-.41.99a1.35 1.35 0 01-.99.41zM5.605 4.8l1.68 3.5h4.9l1.925-3.5H5.605zM4.94 3.4h10.325a.67.67 0 01.612.358c.14.24.146.482.018.727l-2.485 4.48c-.128.233-.3.414-.517.543a1.36 1.36 0 01-.708.192H6.97l-.77 1.4h8.4v1.4H6.2c-.525 0-.922-.23-1.19-.692-.268-.46-.28-.918-.035-1.373L5.92 8.72 3.4 3.4H2V2h2.275l.665 1.4z" fill="#226EE0"/></svg>