<svg width="18" height="18" fill="none" xmlns="http://www.w3.org/2000/svg"><path d="M10.483 1.929c1.665 0 2.454.152 3.275.59.74.397 1.325.982 1.721 1.722.44.82.592 1.61.592 3.275v2.968c0 1.665-.153 2.454-.592 3.274a4.147 4.147 0 01-1.721 1.722c-.82.439-1.61.591-3.275.591H7.515c-1.664 0-2.454-.152-3.274-.59a4.148 4.148 0 01-1.722-1.723c-.439-.82-.591-1.61-.591-3.274V7.516c0-1.665.152-2.454.59-3.275A4.147 4.147 0 014.242 2.52c.82-.439 1.61-.591 3.274-.591h2.968zm0 1.285H7.515c-1.47 0-2.06.114-2.668.44a2.862 2.862 0 00-1.194 1.194c-.326.608-.44 1.198-.44 2.668v2.968c0 1.47.114 2.06.44 2.668a2.86 2.86 0 001.194 1.195c.608.325 1.198.439 2.668.439h2.968c1.47 0 2.06-.114 2.668-.44a2.863 2.863 0 001.195-1.194c.325-.608.439-1.198.439-2.668V7.516c0-1.47-.114-2.06-.44-2.668a2.862 2.862 0 00-1.194-1.195c-.608-.325-1.197-.439-2.668-.439zM7.071 9.643a1.286 1.286 0 110 2.571 1.286 1.286 0 010-2.571zm3.857 0a1.286 1.286 0 110 2.571 1.286 1.286 0 010-2.571zM7.07 5.786a1.286 1.286 0 110 2.571 1.286 1.286 0 010-2.571zm3.857 0a1.286 1.286 0 110 2.571 1.286 1.286 0 010-2.571z" fill="#226EE0"/></svg>