<svg width="24" height="24" fill="none" xmlns="http://www.w3.org/2000/svg"><path d="M10.365 17.367l8.225-8.225-1.633-1.634-6.592 6.592-3.325-3.325-1.633 1.633 4.958 4.959zm1.634 6.3c-1.614 0-3.13-.307-4.55-.92a11.773 11.773 0 01-3.704-2.493A11.773 11.773 0 011.25 16.55 11.354 11.354 0 01.332 12c0-1.614.306-3.13.92-4.55a11.774 11.774 0 012.493-3.704 11.79 11.79 0 013.704-2.494 11.367 11.367 0 014.55-.919c1.614 0 3.13.306 4.55.919a11.79 11.79 0 013.704 2.494 11.773 11.773 0 012.493 3.704c.613 1.42.92 2.936.92 4.55 0 1.614-.307 3.13-.92 4.55a11.773 11.773 0 01-2.493 3.704 11.774 11.774 0 01-3.704 2.493c-1.42.613-2.936.92-4.55.92z" fill="#0A9422"/></svg>