<svg width="18" height="18" fill="none" xmlns="http://www.w3.org/2000/svg"><path d="M11.31 12.29l.98-.98L9.7 8.72V5.5H8.3v3.78l3.01 3.01zM9 16a6.813 6.813 0 01-2.73-.552 7.065 7.065 0 01-2.222-1.495 7.064 7.064 0 01-1.496-2.223A6.813 6.813 0 012 9c0-.968.184-1.878.552-2.73a7.064 7.064 0 011.496-2.222A7.074 7.074 0 016.27 2.55 6.82 6.82 0 019 2a6.82 6.82 0 012.73.55 7.073 7.073 0 012.223 1.498c.63.63 1.128 1.37 1.495 2.222.368.852.552 1.762.552 2.73s-.184 1.878-.552 2.73a7.064 7.064 0 01-1.495 2.223 7.064 7.064 0 01-2.223 1.495A6.813 6.813 0 019 16zm0-1.4c1.552 0 2.873-.545 3.964-1.636C14.054 11.873 14.6 10.552 14.6 9s-.545-2.873-1.636-3.964C11.873 3.946 10.552 3.4 9 3.4s-2.873.545-3.963 1.636C3.946 6.127 3.4 7.448 3.4 9s.546 2.873 1.637 3.964C6.127 14.054 7.448 14.6 9 14.6z" fill="#226EE0"/></svg>