<svg width="18" height="18" fill="none" xmlns="http://www.w3.org/2000/svg"><path d="M3.213 13.538V11.46a1.248 1.248 0 112.496 0v2.077a1.248 1.248 0 01-2.496 0zm0-1.047V9.255a2.533 2.533 0 00-1.285 2.206v2.077a2.534 2.534 0 105.067 0V11.46a2.534 2.534 0 00-3.782-2.206V9a5.786 5.786 0 1111.572 0v.255a2.534 2.534 0 00-3.782 2.206v2.077a2.534 2.534 0 105.068 0V11.46c0-.946-.518-1.77-1.286-2.206v3.15a.643.643 0 001.286 0V9A7.071 7.071 0 001.928 9v3.491a.643.643 0 101.285 0zm11.572-1.03v2.077a1.248 1.248 0 11-2.496 0V11.46a1.248 1.248 0 112.496 0z" fill="#226EE0"/></svg>