<svg width="18" height="18" fill="none" xmlns="http://www.w3.org/2000/svg"><path d="M8.624 12.927c-1.092-.057-2.014-.478-2.765-1.264-.752-.785-1.127-1.73-1.127-2.834 0-1.138.398-2.105 1.195-2.902.797-.797 1.764-1.195 2.902-1.195 1.104 0 2.049.375 2.834 1.127.786.75 1.207 1.673 1.264 2.765l-1.434-.426a2.692 2.692 0 00-.956-1.511 2.647 2.647 0 00-1.708-.59A2.63 2.63 0 006.9 6.9a2.63 2.63 0 00-.802 1.93c0 .648.196 1.217.589 1.707.392.489.896.808 1.51.956l.427 1.434zm.82 2.697a1.41 1.41 0 01-.307.034h-.308a6.643 6.643 0 01-2.663-.538 6.892 6.892 0 01-2.168-1.459 6.893 6.893 0 01-1.46-2.168A6.646 6.646 0 012 8.829c0-.944.18-1.832.538-2.663a6.892 6.892 0 011.46-2.168 6.902 6.902 0 012.168-1.46A6.654 6.654 0 018.829 2c.945 0 1.833.18 2.664.537.83.36 1.553.846 2.168 1.46a6.892 6.892 0 011.46 2.169c.358.83.537 1.719.537 2.663v.308c0 .102-.01.204-.034.307l-1.331-.41V8.83c0-1.525-.53-2.817-1.588-3.875-1.059-1.059-2.35-1.588-3.876-1.588-1.525 0-2.817.53-3.875 1.588-1.059 1.058-1.588 2.35-1.588 3.875s.53 2.817 1.588 3.876c1.058 1.058 2.35 1.588 3.875 1.588h.205l.41 1.331zM14.65 16l-2.92-2.92-.853 2.579-2.049-6.83 6.83 2.049-2.579.854 2.92 2.92L14.651 16z" fill="#226EE0"/></svg>