<svg width="24" height="24" fill="none" xmlns="http://www.w3.org/2000/svg"><path d="M11.999 17.833c.33 0 .607-.112.832-.336.223-.223.334-.5.334-.83 0-.33-.111-.608-.334-.832a1.132 1.132 0 00-.832-.335c-.33 0-.608.112-.831.335a1.13 1.13 0 00-.336.832c0 .33.112.607.336.83.223.224.5.336.83.336zm-1.167-4.666h2.333v-7h-2.333v7zm1.167 10.5c-1.614 0-3.13-.307-4.55-.92a11.773 11.773 0 01-3.704-2.493A11.773 11.773 0 011.25 16.55 11.354 11.354 0 01.332 12c0-1.614.306-3.13.92-4.55a11.774 11.774 0 012.493-3.704 11.79 11.79 0 013.704-2.494 11.367 11.367 0 014.55-.919c1.614 0 3.13.306 4.55.919a11.79 11.79 0 013.704 2.494 11.773 11.773 0 012.493 3.704c.613 1.42.92 2.936.92 4.55 0 1.614-.307 3.13-.92 4.55a11.773 11.773 0 01-2.493 3.704 11.774 11.774 0 01-3.704 2.493c-1.42.613-2.936.92-4.55.92z" fill="#F22F52"/></svg>