<svg width="18" height="18" fill="none" xmlns="http://www.w3.org/2000/svg"><path d="M9 11.636c.795 0 1.472-.278 2.029-.835a2.763 2.763 0 00.835-2.029c0-.795-.279-1.471-.835-2.028A2.763 2.763 0 009 5.909c-.795 0-1.472.278-2.029.835a2.763 2.763 0 00-.835 2.028c0 .796.279 1.472.835 2.029A2.763 2.763 0 009 11.636zm0-1.145c-.477 0-.883-.168-1.217-.502a1.655 1.655 0 01-.501-1.217c0-.477.167-.883.501-1.217.334-.334.74-.5 1.217-.5.477 0 .883.166 1.217.5.334.334.501.74.501 1.217 0 .478-.167.883-.5 1.217A1.66 1.66 0 019 10.491zm0 3.054a7.367 7.367 0 01-4.232-1.297C3.495 11.384 2.573 10.225 2 8.772c.573-1.452 1.495-2.611 2.768-3.476A7.37 7.37 0 019 4c1.549 0 2.96.432 4.232 1.296 1.273.865 2.195 2.024 2.768 3.476-.573 1.453-1.495 2.612-2.768 3.476A7.367 7.367 0 019 13.545zm0-1.273a6.074 6.074 0 003.302-.947A6.217 6.217 0 0014.6 8.772a6.222 6.222 0 00-2.298-2.553A6.077 6.077 0 009 5.273a6.077 6.077 0 00-3.301.946A6.222 6.222 0 003.4 8.772a6.217 6.217 0 002.299 2.553A6.074 6.074 0 009 12.272z" fill="#226EE0"/></svg>