<svg width="18" height="18" fill="none" xmlns="http://www.w3.org/2000/svg"><path d="M7.706 16v-1.647H6.059v-1.647h1.647v-1.73A4.316 4.316 0 015.04 9.422C4.347 8.578 4 7.6 4 6.488c0-1.249.443-2.309 1.328-3.18C6.213 2.436 7.28 2 8.53 2s2.316.436 3.2 1.308c.886.871 1.33 1.931 1.33 3.18 0 1.112-.347 2.09-1.04 2.934a4.32 4.32 0 01-2.666 1.554v1.73H11v1.647H9.354V16H7.706zm.823-6.588a2.78 2.78 0 002.038-.844 2.777 2.777 0 00.844-2.039c0-.796-.281-1.475-.844-2.038a2.777 2.777 0 00-2.038-.844c-.796 0-1.475.281-2.038.844a2.777 2.777 0 00-.844 2.038c0 .796.281 1.476.844 2.039a2.777 2.777 0 002.038.844z" fill="#F22F52"/></svg>