<svg width="18" height="18" fill="none" xmlns="http://www.w3.org/2000/svg"><path d="M9 15.844l-1.015-.91a79.274 79.274 0 01-2.923-2.747c-.77-.77-1.382-1.462-1.837-2.074-.455-.613-.773-1.175-.953-1.689A4.702 4.702 0 012 6.85c0-1.096.368-2.012 1.103-2.747C3.837 3.367 4.752 3 5.85 3a4.03 4.03 0 011.732.385A4.15 4.15 0 019 4.469a4.15 4.15 0 011.418-1.085A4.038 4.038 0 0112.15 3c1.097 0 2.012.367 2.748 1.102.735.735 1.102 1.65 1.102 2.747 0 .537-.09 1.062-.27 1.575-.182.514-.5 1.076-.955 1.689-.455.612-1.068 1.304-1.838 2.074-.77.77-1.744 1.686-2.922 2.747L9 15.844zm0-1.89a76.277 76.277 0 002.765-2.581c.723-.718 1.295-1.341 1.715-1.872.42-.531.712-1.004.875-1.418.163-.414.245-.825.245-1.234 0-.7-.233-1.283-.7-1.75-.467-.466-1.05-.7-1.75-.7-.548 0-1.056.155-1.523.464-.466.31-.787.703-.962 1.181h-1.33c-.175-.478-.496-.872-.963-1.181a2.704 2.704 0 00-1.522-.464c-.7 0-1.283.234-1.75.7-.467.467-.7 1.05-.7 1.75 0 .409.082.82.245 1.234.163.414.455.887.875 1.418.42.53.992 1.154 1.715 1.872A76.302 76.302 0 009 13.954z" fill="#F22F52"/></svg>