<svg width="22" height="16" fill="none" xmlns="http://www.w3.org/2000/svg"><path d="M5.5 15.5c-1.383 0-2.563-.48-3.538-1.438C.987 13.104.5 11.933.5 10.55c0-1.25.4-2.346 1.2-3.288.8-.941 1.792-1.495 2.975-1.662.317-1.5 1.067-2.725 2.25-3.675C8.108.975 9.467.5 11 .5c1.817 0 3.354.629 4.613 1.887C16.871 3.646 17.5 5.183 17.5 7v.5h.3c1.067.083 1.95.508 2.65 1.275.7.767 1.05 1.675 1.05 2.725 0 1.117-.383 2.062-1.15 2.837-.767.775-1.708 1.163-2.825 1.163H12.05c-.5 0-.925-.175-1.275-.525a1.736 1.736 0 01-.525-1.275V8.225l-1.85 1.8L7.35 9 11 5.325 14.65 9l-1.05 1.025-1.85-1.8V13.7c0 .067.033.133.1.2s.133.1.2.1h5.45c.7 0 1.292-.242 1.775-.725.483-.483.725-1.075.725-1.775s-.242-1.292-.725-1.775C18.792 9.242 18.2 9 17.5 9H16V7c0-1.383-.487-2.563-1.462-3.538C13.563 2.487 12.383 2 11 2s-2.562.487-3.537 1.462C6.488 4.437 6 5.617 6 7h-.525c-.95 0-1.767.342-2.45 1.025A3.372 3.372 0 002 10.5c0 .967.342 1.792 1.025 2.475A3.372 3.372 0 005.5 14H8v1.5H5.5z" fill="#fff"/></svg>