<svg width="19" height="18" fill="none" xmlns="http://www.w3.org/2000/svg"><path d="M2.182 18a1.61 1.61 0 01-1.183-.487 1.61 1.61 0 01-.487-1.183V3.897c0-.464.162-.858.487-1.183a1.61 1.61 0 011.183-.487h7.933L8.723 3.619H2.182c-.062 0-.124.03-.186.093-.062.061-.093.123-.093.185V16.33c0 .062.031.123.093.185s.124.093.186.093h12.433c.061 0 .123-.03.185-.093.062-.062.093-.123.093-.185V9.766l1.392-1.392v7.956c0 .464-.163.858-.488 1.183a1.61 1.61 0 01-1.183.487H2.182zM12.597 2.62l.997.975L7.47 9.719v1.322h1.3l6.17-6.147.974.975-6.542 6.564H6.08V9.139l6.518-6.518zm3.317 3.248L12.597 2.62 14.73.487A1.625 1.625 0 0115.925 0c.472 0 .87.17 1.195.51l.904.905c.31.325.464.72.464 1.183 0 .464-.162.858-.487 1.183L15.913 5.87z" fill="#fff"/></svg>