<svg width="22" height="16" fill="none" xmlns="http://www.w3.org/2000/svg"><path d="M12.95 5.825V4.5c.533-.25 1.1-.438 1.7-.563a9.07 9.07 0 011.85-.187c.4 0 .788.029 1.163.087.375.059.754.13 1.137.213v1.275a5.935 5.935 0 00-1.112-.288A7.778 7.778 0 0016.5 4.95a7.599 7.599 0 00-3.55.875zm0 5.475V9.975c.533-.25 1.1-.442 1.7-.575.6-.133 1.217-.2 1.85-.2.4 0 .788.03 1.163.087.375.059.754.138 1.137.238v1.25a5.94 5.94 0 00-1.112-.288A7.778 7.778 0 0016.5 10.4a7.6 7.6 0 00-1.85.225 6.83 6.83 0 00-1.7.675zm0-2.725v-1.35c.533-.25 1.1-.438 1.7-.563a9.07 9.07 0 011.85-.187c.4 0 .788.03 1.163.087.375.059.754.138 1.137.238v1.25a5.88 5.88 0 00-1.112-.287 7.69 7.69 0 00-1.188-.088c-.633 0-1.25.08-1.85.237a7.96 7.96 0 00-1.7.663zM5.5 12.1c.833 0 1.642.092 2.425.275a9.898 9.898 0 012.325.875V3.425A8.5 8.5 0 007.975 2.4 8.968 8.968 0 005.5 2.05c-.6 0-1.163.05-1.688.15-.525.1-1.062.25-1.612.45a.377.377 0 00-.15.125c-.033.05-.05.1-.05.15v9.45c0 .1.033.17.1.212a.192.192 0 00.2.013 8.934 8.934 0 011.512-.375A10.787 10.787 0 015.5 12.1zm6.25 1.15a9.899 9.899 0 012.325-.875A10.608 10.608 0 0116.5 12.1c.6 0 1.163.042 1.688.125a8.933 8.933 0 011.512.375.192.192 0 00.2-.013c.067-.041.1-.112.1-.212v-9.45a.27.27 0 00-.05-.15.377.377 0 00-.15-.125c-.55-.2-1.087-.35-1.612-.45a9.025 9.025 0 00-1.688-.15c-.833 0-1.658.117-2.475.35a8.5 8.5 0 00-2.275 1.025v9.825zm-.75 2.2a9.949 9.949 0 00-2.6-1.363 8.766 8.766 0 00-2.9-.487 7.95 7.95 0 00-3.5.8.965.965 0 01-1.012-.075A1.047 1.047 0 01.5 13.4V2.55c0-.217.054-.42.163-.613a.917.917 0 01.487-.412A8.836 8.836 0 013.263.787 10.703 10.703 0 015.5.55c.967 0 1.917.133 2.85.4A10.46 10.46 0 0111 2.125 10.46 10.46 0 0113.65.95c.933-.267 1.883-.4 2.85-.4.75 0 1.496.079 2.238.237a8.84 8.84 0 012.112.738c.217.083.379.22.487.412.109.192.163.396.163.613V13.4c0 .4-.167.704-.5.913-.333.208-.683.229-1.05.062a8.97 8.97 0 00-1.687-.575 7.785 7.785 0 00-1.763-.2c-1 0-1.967.162-2.9.487A9.95 9.95 0 0011 15.45z" fill="#fff"/></svg>