<svg width="18" height="18" fill="none" xmlns="http://www.w3.org/2000/svg"><path fill-rule="evenodd" clip-rule="evenodd" d="M2.875 4a3.094 3.094 0 113.55 4.965 4.188 4.188 0 011.651 1.131c.78.867 1.205 2.025 1.205 3.216v.75a.844.844 0 01-1.687 0v-.75c0-.797-.286-1.547-.772-2.087-.483-.537-1.119-.819-1.76-.819-.64 0-1.276.282-1.759.82-.486.54-.772 1.289-.772 2.086v.75a.844.844 0 01-1.687 0v-.75c0-1.19.425-2.349 1.205-3.216a4.188 4.188 0 011.65-1.131A3.092 3.092 0 012.875 4zm2.188 3.594a1.406 1.406 0 100-2.813 1.406 1.406 0 000 2.813zm6.115 3.631c.483-.537 1.119-.819 1.76-.819.64 0 1.276.282 1.759.82.486.54.772 1.289.772 2.086v.75a.844.844 0 101.687 0v-.75c0-1.19-.425-2.349-1.205-3.216a4.187 4.187 0 00-1.65-1.131 3.092 3.092 0 001.73-2.777 3.094 3.094 0 10-4.457 2.777 4.188 4.188 0 00-1.65 1.131.844.844 0 001.254 1.13zm2.754-4.043a1.406 1.406 0 11-1.989-1.99 1.406 1.406 0 011.989 1.99z" fill="#48505B"/></svg>