<svg width="223" height="165" fill="none" xmlns="http://www.w3.org/2000/svg"><g opacity=".25"><mask id="mask0_413_79959" style="mask-type:alpha" maskUnits="userSpaceOnUse" x="0" y="0" width="165" height="165"><path fill="#D9D9D9" d="M0 0h165v165H0z"/></mask><g mask="url(#mask0_413_79959)"><path d="M77.86 116.875h10.312V88.344h28.703V78.03H88.172V48.125H77.859v29.906H48.125v10.313h29.734v28.531zm4.64 34.375c-9.396 0-18.276-1.805-26.64-5.414-8.365-3.609-15.67-8.537-21.915-14.781-6.244-6.245-11.172-13.55-14.78-21.914-3.61-8.365-5.415-17.303-5.415-26.813 0-9.396 1.805-18.276 5.414-26.64 3.61-8.365 8.537-15.641 14.781-21.829 6.245-6.187 13.55-11.086 21.914-14.695 8.365-3.61 17.303-5.414 26.813-5.414 9.396 0 18.276 1.805 26.64 5.414 8.365 3.61 15.641 8.508 21.829 14.695 6.187 6.188 11.086 13.464 14.695 21.828 3.609 8.365 5.414 17.303 5.414 26.813 0 9.396-1.805 18.276-5.414 26.641-3.609 8.364-8.508 15.669-14.695 21.914-6.188 6.244-13.464 11.172-21.829 14.781-8.364 3.609-17.302 5.414-26.812 5.414zm.172-10.312c16.156 0 29.906-5.701 41.25-17.102 11.344-11.401 17.016-25.237 17.016-41.508 0-16.156-5.672-29.906-17.016-41.25C112.578 29.734 98.771 24.062 82.5 24.062c-16.156 0-29.935 5.672-41.336 17.016C29.763 52.422 24.062 66.23 24.062 82.5c0 16.156 5.701 29.935 17.102 41.336s25.237 17.102 41.508 17.102z" fill="#F2F4F7"/></g></g><g opacity=".3"><mask id="mask1_413_79959" style="mask-type:alpha" maskUnits="userSpaceOnUse" x="161" y="49" width="62" height="62"><path fill="#D9D9D9" d="M161 49h61.42v61.42H161z"/></mask><g mask="url(#mask1_413_79959)"><path d="M172.516 98.904c-1.066 0-1.972-.374-2.717-1.121-.748-.746-1.121-1.652-1.121-2.718s.373-1.972 1.121-2.718c.745-.747 1.651-1.12 2.717-1.12 1.067 0 1.973.373 2.718 1.12.748.746 1.121 1.652 1.121 2.718s-.373 1.972-1.121 2.718c-.745.747-1.651 1.12-2.718 1.12zm8.958-1.28v-5.118h33.269v5.118h-33.269zm-8.958-14.075c-1.066 0-1.972-.374-2.717-1.121-.748-.746-1.121-1.652-1.121-2.718s.373-1.972 1.121-2.718c.745-.747 1.651-1.12 2.717-1.12 1.067 0 1.973.373 2.718 1.12.748.746 1.121 1.651 1.121 2.718 0 1.066-.373 1.972-1.121 2.718-.745.747-1.651 1.12-2.718 1.12zm8.958-1.28v-5.118h33.269v5.118h-33.269zm-8.958-14.075c-1.066 0-1.972-.374-2.717-1.121-.748-.746-1.121-1.652-1.121-2.718 0-1.067.373-1.972 1.121-2.718.745-.747 1.651-1.12 2.717-1.12 1.067 0 1.973.373 2.718 1.12.748.746 1.121 1.651 1.121 2.718 0 1.066-.373 1.972-1.121 2.718-.745.747-1.651 1.12-2.718 1.12zm8.958-1.28v-5.118h33.269v5.118h-33.269z" fill="#F2F4F7"/></g></g></svg>