<svg width="16" height="18" fill="none" xmlns="http://www.w3.org/2000/svg"><path d="M14.17 14.571H5.258c-.429 0-.793-.15-1.093-.45-.3-.3-.45-.664-.45-1.092V1.543c0-.429.15-.793.45-1.093.3-.3.664-.45 1.093-.45h5.957l4.5 4.5v8.529c0 .428-.15.792-.45 1.092-.3.3-.665.45-1.093.45zm-3.6-9.428V1.286H5.258c-.058 0-.115.028-.172.085-.057.058-.086.115-.086.172v11.486c0 .057.029.114.086.171.057.057.114.086.172.086h8.914c.057 0 .114-.029.171-.086.057-.057.086-.114.086-.171V5.143h-3.857zM1.829 18c-.429 0-.793-.15-1.093-.45-.3-.3-.45-.664-.45-1.093V5.143h1.286v11.314c0 .057.028.114.086.172.057.057.114.085.171.085h8.743V18H1.828z" fill="#fff"/></svg>