<svg width="38" height="38" fill="none" xmlns="http://www.w3.org/2000/svg"><circle cx="19" cy="19" r="19" fill="#48505B"/><g clip-path="url(#clip0_444_26230)"><path fill-rule="evenodd" clip-rule="evenodd" d="M12.402 13.195a.264.264 0 00-.264.264v11.084c0 .145.118.264.264.264h.992l.032-.032 6.414-6.416a1.847 1.847 0 012.546-.063l3.474 3.143v-7.98a.264.264 0 00-.264-.264H12.402zm13.194 11.612h-9.964l5.328-5.328a.264.264 0 01.363-.01l4.537 4.106v.968a.264.264 0 01-.264.264zm1.848-.264V13.459a1.847 1.847 0 00-1.848-1.847H12.402a1.847 1.847 0 00-1.847 1.847v11.084c0 1.02.827 1.847 1.847 1.847h13.194a1.847 1.847 0 001.848-1.847zM16.36 16.89a.528.528 0 11-1.056 0 .528.528 0 011.056 0zm1.584 0a2.11 2.11 0 11-4.222 0 2.11 2.11 0 014.222 0z" fill="#fff"/></g><defs><clipPath id="clip0_444_26230"><path fill="#fff" transform="translate(10.555 10.557)" d="M0 0h16.889v16.889H0z"/></clipPath></defs></svg>