<svg width="24" height="22" fill="none" xmlns="http://www.w3.org/2000/svg"><path fill-rule="evenodd" clip-rule="evenodd" d="M2.625 2.75a.375.375 0 00-.375.375v15.75c0 .207.168.375.375.375h1.41l.045-.045 9.115-9.117a2.625 2.625 0 013.619-.09l4.936 4.467V3.125a.375.375 0 00-.375-.375H2.625zm18.75 16.5H7.215l7.572-7.57a.375.375 0 01.516-.014L21.75 17.5v1.375a.375.375 0 01-.375.375zM24 18.875V3.125A2.625 2.625 0 0021.375.5H2.625A2.625 2.625 0 000 3.125v15.75A2.626 2.626 0 002.625 21.5h18.75A2.625 2.625 0 0024 18.875zM8.25 8a.75.75 0 11-1.5 0 .75.75 0 011.5 0zm2.25 0a3 3 0 11-6 0 3 3 0 016 0z" fill="#fff"/></svg>