<svg width="18" height="18" fill="none" xmlns="http://www.w3.org/2000/svg"><path d="M2.893 9a.963.963 0 101.929 0 .963.963 0 00-.965-.964.963.963 0 00-.964.965zm0-3.857a.963.963 0 101.929 0 .963.963 0 00-.965-.964.963.963 0 00-.964.964zm0 7.715c0 .529.435.964.964.964a.964.964 0 10-.964-.964zm13.178 0a.643.643 0 00-.643-.643h-9a.643.643 0 100 1.286h9a.643.643 0 00.643-.643zm0-3.857a.643.643 0 00-.643-.643h-9a.643.643 0 000 1.285h9a.643.643 0 00.643-.642zM6.428 5.786h9a.643.643 0 000-1.285h-9a.643.643 0 100 1.285z" fill="#226EE0"/></svg>