<svg width="10" height="10" fill="none" xmlns="http://www.w3.org/2000/svg"><path d="M5 .716c1.183 0 2.142.96 2.142 2.143v.722c.302.02.494.072.692.178.237.126.425.314.551.551.138.257.186.505.186.994v2.253c0 .49-.048.737-.186.994a1.33 1.33 0 01-.551.551c-.257.138-.505.186-.994.186H3.158c-.489 0-.736-.048-.993-.186a1.33 1.33 0 01-.552-.551c-.138-.257-.185-.505-.185-.994V5.304c0-.49.047-.737.185-.994a1.33 1.33 0 01.552-.551c.198-.106.39-.159.69-.178l.001-.722c0-1.183.96-2.143 2.143-2.143zm1.84 3.572H3.158c-.381 0-.517.026-.657.1a.616.616 0 00-.258.259c-.075.14-.101.275-.101.657v2.253c0 .381.026.517.1.657a.622.622 0 00.26.258c.139.075.275.101.656.101H6.84c.381 0 .517-.026.657-.1a.616.616 0 00.258-.26c.075-.139.101-.275.101-.656V5.304c0-.382-.026-.517-.1-.657a.616.616 0 00-.26-.259c-.139-.074-.275-.1-.656-.1zM5 5.359c.196 0 .356.16.356.357v1.072a.357.357 0 11-.714 0V5.716c0-.197.16-.357.357-.357zM5 1.43c-.79 0-1.43.64-1.43 1.429v.714h2.858V2.86a1.43 1.43 0 00-1.429-1.429z" fill="#48505B" opacity=".2"/></svg>