<svg width="12" height="12" fill="none" xmlns="http://www.w3.org/2000/svg"><path d="M6 .86a2.571 2.571 0 012.572 2.57v.868c.362.022.593.085.83.212a1.6 1.6 0 01.662.662c.165.309.222.606.222 1.193v2.703c0 .588-.057.884-.222 1.193a1.6 1.6 0 01-.662.662c-.309.165-.605.222-1.193.222H3.792c-.588 0-.884-.057-1.193-.222a1.597 1.597 0 01-.662-.662c-.165-.309-.222-.605-.222-1.193V6.365c0-.587.057-.884.222-1.193a1.6 1.6 0 01.662-.662c.238-.127.468-.19.83-.212V3.43A2.571 2.571 0 016.001.859zm0 5.57a.43.43 0 01.43.43v1.285a.429.429 0 01-.858 0V6.86c0-.236.192-.428.429-.428zm0-4.713c-.946 0-1.714.767-1.714 1.714v.857h3.429v-.857c0-.947-.768-1.714-1.714-1.714z" fill="#48505B"/></svg>