<svg width="24" height="24" fill="none" xmlns="http://www.w3.org/2000/svg"><mask id="mask0_362_91657" style="mask-type:alpha" maskUnits="userSpaceOnUse" x="0" y="0" width="24" height="24"><path fill="#D9D9D9" d="M0 0h24v24H0z"/></mask><g mask="url(#mask0_362_91657)"><path d="M20 4.5v6h-2V7.925l-3.975 3.95c.317.467.558.962.725 1.487A5.37 5.37 0 0115 15c0 1.533-.533 2.833-1.6 3.9-1.067 1.067-2.367 1.6-3.9 1.6s-2.833-.533-3.9-1.6C4.533 17.833 4 16.533 4 15s.533-2.833 1.6-3.9c1.067-1.067 2.367-1.6 3.9-1.6.55 0 1.092.08 1.625.238a4.707 4.707 0 011.475.737L16.575 6.5H14v-2h6zm-10.5 7c-.967 0-1.792.342-2.475 1.025A3.372 3.372 0 006 15c0 .967.342 1.792 1.025 2.475A3.372 3.372 0 009.5 18.5c.967 0 1.792-.342 2.475-1.025A3.372 3.372 0 0013 15c0-.967-.342-1.792-1.025-2.475A3.372 3.372 0 009.5 11.5z" fill="#226EE0"/></g></svg>