<svg width="18" height="18" fill="none" xmlns="http://www.w3.org/2000/svg"><path d="M9 9.706c2.78 0 4.68 1.241 4.68 3.176 0 1.363-.924 2.118-2.16 2.118H6.48c-1.236 0-2.16-.755-2.16-2.118 0-1.935 1.9-3.176 4.68-3.176zm5.76 0c1.977 0 3.24 1.17 3.24 2.647 0 1.195-.93 1.941-1.98 1.941h-.54a.713.713 0 01-.72-.706c0-.39.322-.706.72-.706h.54c.31 0 .54-.184.54-.53 0-.678-.6-1.234-1.8-1.234a.713.713 0 01-.72-.706c0-.39.322-.706.72-.706zm-11.52 0c.398 0 .72.316.72.706 0 .39-.322.706-.72.706-1.2 0-1.8.556-1.8 1.235 0 .345.23.53.54.53h.54c.398 0 .72.315.72.705 0 .39-.322.706-.72.706h-.54c-1.05 0-1.98-.746-1.98-1.941 0-1.478 1.263-2.647 3.24-2.647zM9 11.118c-2.08 0-3.24.758-3.24 1.764 0 .52.228.706.72.706h5.04c.492 0 .72-.186.72-.706 0-1.006-1.16-1.764-3.24-1.764zm4.32-7.412c1.392 0 2.52 1.106 2.52 2.47 0 1.365-1.128 2.471-2.52 2.471a.713.713 0 01-.72-.706c0-.39.322-.706.72-.706l.104-.005c.548-.05.976-.503.976-1.054a1.07 1.07 0 00-1.08-1.058l-.084-.005a.711.711 0 01-.636-.701c0-.39.322-.706.72-.706zm-8.64 0c.398 0 .72.316.72.706a.71.71 0 01-.636.7l-.084.006A1.07 1.07 0 003.6 6.176c0 .55.428 1.003.976 1.054l.104.005c.398 0 .72.316.72.706 0 .39-.322.706-.72.706-1.392 0-2.52-1.106-2.52-2.47 0-1.365 1.128-2.471 2.52-2.471zM9 3c1.59 0 2.88 1.264 2.88 2.824 0 1.559-1.29 2.823-2.88 2.823-1.59 0-2.88-1.264-2.88-2.823C6.12 4.264 7.41 3 9 3zm0 1.412c-.795 0-1.44.632-1.44 1.412 0 .78.645 1.411 1.44 1.411.795 0 1.44-.632 1.44-1.411 0-.78-.645-1.412-1.44-1.412z" fill="#226EE0"/></svg>