<svg width="16" height="16" fill="none" xmlns="http://www.w3.org/2000/svg"><path fill-rule="evenodd" clip-rule="evenodd" d="M2.555 3.555A2.75 2.75 0 115.712 7.97c.553.205 1.056.55 1.467 1.006.693.77 1.071 1.8 1.071 2.858v.667a.75.75 0 01-1.5 0v-.667c0-.709-.254-1.375-.686-1.855C5.634 9.5 5.07 9.25 4.5 9.25c-.57 0-1.134.25-1.564.728-.432.48-.686 1.146-.686 1.855v.667a.75.75 0 01-1.5 0v-.667c0-1.059.378-2.088 1.071-2.858.41-.457.914-.8 1.467-1.006a2.75 2.75 0 01-.733-4.414zM4.5 6.75a1.25 1.25 0 100-2.5 1.25 1.25 0 000 2.5zm5.436 3.228c.43-.477.994-.728 1.564-.728.57 0 1.134.25 1.564.728.432.48.686 1.146.686 1.855v.667a.75.75 0 001.5 0v-.667c0-1.059-.378-2.088-1.071-2.858-.41-.457-.914-.8-1.467-1.006a2.747 2.747 0 001.538-2.47 2.75 2.75 0 10-3.962 2.47 3.722 3.722 0 00-1.467 1.006.75.75 0 101.115 1.003zm2.448-3.594a1.25 1.25 0 11-1.768-1.768 1.25 1.25 0 011.768 1.768z" fill="#F22F52"/></svg>