<svg width="24" height="24" fill="none" xmlns="http://www.w3.org/2000/svg"><path d="M17.496 3.304l.105.067.09.059-.09-.059.21.14-.12-.081c.074.05.149.1.222.152l-.102-.071.212.15a10.168 10.168 0 011.27 1.085l-.077-.076.165.165-.088-.089c.067.068.134.137.2.207l-.112-.118c.062.065.124.13.185.197l-.073-.08.165.18-.092-.1c.06.064.119.13.177.196l-.085-.095c.058.064.115.13.172.196l-.087-.1c.058.066.116.134.172.202l-.085-.102a10.32 10.32 0 01.84 1.133l-.075-.116c.058.089.114.178.17.268l-.096-.152.132.21-.036-.058.109.18-.073-.122a10.298 10.298 0 011.107 2.553l.054.203.074.308.025.114.058.292.052.315c.019.123.035.247.05.37l-.032-.246a10.397 10.397 0 01.092 1.085l.005.334-.004.306a11.17 11.17 0 01-.061.859l.008-.07c-.012.111-.026.223-.041.333l.033-.263a10.243 10.243 0 01-.183 1.09l-.076.316-.054.204a10.21 10.21 0 01-1.013 2.393l.049-.084c-.04.072-.082.142-.124.212l.075-.128c-.046.08-.094.16-.143.239l.068-.11-.14.226.072-.116c-.05.082-.103.163-.156.244l.084-.128a9.124 9.124 0 01-.1.153l.016-.025-.117.174.1-.15c-.069.106-.14.21-.214.313l.114-.163c-.051.075-.104.148-.157.222-.224.308-.466.604-.723.885l.054-.06a8.67 8.67 0 01-.183.2l.13-.14-.197.21.067-.07c-.055.058-.11.115-.167.172l.1-.102-.19.191.09-.09a9.725 9.725 0 01-.13.129h.001a10.331 10.331 0 01-1.02.871l.065-.049a9.82 9.82 0 01-.225.166l.16-.117-.198.145.038-.028a9.797 9.797 0 01-.198.139l.16-.111-.26.179.1-.068a9.95 9.95 0 01-.168.112l.067-.044-.21.137a10.24 10.24 0 01-1.012.561l.109-.053a9.89 9.89 0 01-.255.122l.146-.069c-.074.036-.148.07-.222.104l.076-.035a10.27 10.27 0 01-.236.106l.16-.07c-.09.04-.18.08-.27.118l.11-.048c-.09.04-.18.077-.272.114l.161-.066c-.07.03-.142.058-.213.086l.052-.02-.244.094.192-.074a9.457 9.457 0 01-.28.106l.088-.032a10.213 10.213 0 01-.834.269l.108-.03-.23.063.122-.033-.268.07.145-.037a8.545 8.545 0 01-.276.068l.131-.032-.24.057.109-.025c-.085.02-.171.039-.257.056l.147-.031c-.099.022-.199.042-.299.062l.152-.03-.255.049.103-.02c-.079.015-.158.03-.237.043-.103.017-.207.032-.31.046l-.103.013-.247.028a10.397 10.397 0 01-2.864-.11l.123.022a10.803 10.803 0 01-.281-.051l.158.029a10.818 10.818 0 01-.745-.163l.062.016c-.08-.02-.16-.04-.24-.063l.178.047a10.513 10.513 0 01-.913-.281l.242.084a9.785 9.785 0 01-.386-.137l.144.053-.243-.091.099.038a10.449 10.449 0 01-.287-.113l.188.075-.24-.097.052.022a10.842 10.842 0 01-.202-.086l.15.064c-.082-.034-.163-.07-.244-.106l.094.042a10.213 10.213 0 01-.246-.112l.152.07-.238-.11.086.04a10.012 10.012 0 01-1.262-.705l.144.093a9.495 9.495 0 01-.211-.137l.067.044-.18-.12.113.076a9.094 9.094 0 01-.227-.156l.114.08a8.402 8.402 0 01-.225-.16l.11.08a11.6 11.6 0 01-.224-.163l.114.084a10.272 10.272 0 01-1.18-.999l.04.039a9.96 9.96 0 01-.13-.128l.09.089a10.492 10.492 0 01-.19-.191l.1.102a10.332 10.332 0 01-.167-.173l.067.07a10.143 10.143 0 01-.196-.208l.13.138a10.333 10.333 0 01-.895-1.084l.042.06a10.139 10.139 0 01-.157-.222l.115.163a10.263 10.263 0 01-.216-.312l.101.15a8.884 8.884 0 01-.117-.175l.016.025-.1-.153.084.128c-.053-.08-.105-.162-.156-.244l.073.116a10.31 10.31 0 01-.14-.227l.067.11a10.277 10.277 0 01-.143-.237l.075.127-.124-.212a9.928 9.928 0 01-.414-.809l.053.114a10.21 10.21 0 01-.602-1.615l-.055-.203-.076-.315a10.284 10.284 0 01-.15-.828l.012.086a10.303 10.303 0 01-.045-.35l.033.264a10.371 10.371 0 01-.093-1.101L1.715 12l.005-.334a10.46 10.46 0 01.06-.838l-.008.08c.012-.11.025-.219.04-.327l.018-.124.052-.315c.025-.136.053-.272.083-.406l.074-.308.054-.202c.133-.476.3-.937.496-1.382l-.018.04a10.239 10.239 0 01.557-1.09l-.072.124a7.55 7.55 0 01.145-.246l-.073.122.108-.18-.035.058c.043-.07.086-.141.131-.21l-.096.152c.056-.09.112-.18.17-.267.21-.318.437-.624.68-.916l-.083.1c.055-.068.111-.135.168-.202l-.085.102c.056-.068.114-.136.172-.203l-.087.101c.057-.066.114-.132.172-.196l-.085.095c.058-.066.117-.132.177-.197l-.092.102c.054-.061.11-.12.165-.18l-.073.078c.061-.066.123-.131.186-.196l-.113.118c.066-.07.133-.14.2-.207l-.087.09a10.347 10.347 0 011.46-1.247l-.103.072c.087-.063.176-.125.266-.186l-.164.113a9.75 9.75 0 01.197-.136l-.033.023c.067-.046.135-.09.203-.134l-.17.111a10.27 10.27 0 011.233-.709l-.073.036c.073-.036.146-.07.22-.105l-.147.07c.087-.042.174-.083.262-.123l-.115.053c.08-.038.162-.075.245-.11l-.13.057a10.23 10.23 0 01.983-.384l-.131.044.216-.072-.085.028.246-.078-.16.05c.097-.031.194-.061.293-.09l-.133.04c.087-.027.173-.052.26-.076l-.127.036c.086-.025.173-.049.26-.072l-.132.036c.088-.024.177-.048.266-.07l-.134.034c.087-.022.173-.044.26-.064l-.126.03.253-.059-.126.029c.084-.02.168-.038.253-.056l-.127.027c.097-.021.195-.041.293-.06l-.166.033c.087-.018.175-.035.263-.05l-.097.017a10.263 10.263 0 01.542-.088l.102-.013.247-.027a10.406 10.406 0 012.864.11l-.123-.022c.094.016.188.033.281.051l-.158-.029.225.043c.18.037.36.078.536.124l-.08-.021.23.06-.15-.039a10.617 10.617 0 01.788.239c.122.042.243.087.363.134l-.14-.054c.094.035.187.071.28.109l-.14-.055c.078.03.156.062.233.094l-.094-.04c.074.03.147.062.22.093l-.126-.053c.086.036.17.073.255.11l-.13-.057c.083.036.165.073.246.11l-.116-.052c.088.04.175.08.262.123l-.146-.07.219.105a9.949 9.949 0 01.932.525zm-3.425 12.81H9.93c.442 1.752 1.159 3.316 2.07 4.598.91-1.282 1.627-2.846 2.07-4.598zm-9.787 0a8.759 8.759 0 005.769 4.411 15.983 15.983 0 01-1.708-4.41h-4.06zm15.433 0h-4.061a15.993 15.993 0 01-1.707 4.41 8.755 8.755 0 005.768-4.41zM8.062 9.428h-4.42A8.741 8.741 0 003.258 12c0 .895.134 1.758.384 2.571h4.42A18.722 18.722 0 017.886 12c0-.879.06-1.739.176-2.572zm6.318 0H9.62A17.19 17.19 0 009.43 12c0 .884.065 1.744.19 2.571h4.76c.126-.827.192-1.687.192-2.571 0-.884-.066-1.745-.192-2.572zm5.979 0h-4.42a18.815 18.815 0 010 5.143h4.42c.25-.813.384-1.676.384-2.571 0-.895-.134-1.759-.384-2.572zM10.052 3.476L9.9 3.51a8.76 8.76 0 00-5.615 4.374h4.06a16.033 16.033 0 011.707-4.41zM12 3.288l-.038.053c-.893 1.272-1.596 2.816-2.032 4.544h4.14C13.627 6.133 12.91 4.57 12 3.288zm1.947.187l.056.096a16.037 16.037 0 011.652 4.315l4.06-.001a8.759 8.759 0 00-5.768-4.41z" fill="#226EE0"/></svg>