<svg width="18" height="18" fill="none" xmlns="http://www.w3.org/2000/svg"><path d="M12.842 3.15c2.178 0 3.623 1.376 4.42 3.657.532 1.523.738 3.298.738 5.054 0 2.555-.628 3.568-2.543 3.568-.94 0-1.586-.595-2.728-2.07-.914-1.18-1.261-1.546-1.38-1.546H6.651c-.147 0-.626.461-1.526 1.548l-.012.015c-1.336 1.615-1.788 2.053-2.571 2.053C.628 15.429 0 14.416 0 11.86c0-1.756.206-3.53.738-5.054.797-2.28 2.241-3.657 4.42-3.657h7.684zm0 1.35H5.158c-2.706 0-3.808 3.155-3.808 7.36 0 1.905.194 2.219 1.193 2.219.143 0 .62-.462 1.531-1.564l.012-.015c1.313-1.586 1.782-2.037 2.566-2.037h4.696c.799 0 1.05.266 2.448 2.07.842 1.086 1.34 1.546 1.661 1.546.999 0 1.193-.314 1.193-2.218 0-4.206-1.102-7.361-3.808-7.361zM5.355 5.786a.43.43 0 01.43.43v.855h.856a.43.43 0 01.43.431v.424a.43.43 0 01-.43.431h-.856v.855a.43.43 0 01-.43.43h-.424a.43.43 0 01-.431-.43v-.855h-.855a.43.43 0 01-.43-.43v-.425a.43.43 0 01.43-.43H4.5v-.856a.43.43 0 01.43-.43h.425zm7.714 2.571a.43.43 0 01.431.43v.425a.43.43 0 01-.43.43h-.425a.43.43 0 01-.43-.43v-.424a.43.43 0 01.43-.43h.424zm-1.285-1.286a.43.43 0 01.43.431v.424a.43.43 0 01-.43.431h-.425a.43.43 0 01-.43-.43v-.425a.43.43 0 01.43-.43h.425zm2.571 0a.43.43 0 01.43.431v.424a.43.43 0 01-.43.431h-.424a.43.43 0 01-.431-.43v-.425a.43.43 0 01.43-.43h.425zm-1.286-1.285a.43.43 0 01.431.43v.425a.43.43 0 01-.43.43h-.425a.43.43 0 01-.43-.43v-.425a.43.43 0 01.43-.43h.424z" fill="#F22F52"/></svg>