<svg width="18" height="18" fill="none" xmlns="http://www.w3.org/2000/svg"><path d="M11.872 2c1.783 0 2.43.195 3.082.561a3.73 3.73 0 011.512 1.588c.348.684.534 1.363.534 3.235v3.232c0 1.872-.186 2.55-.534 3.235a3.73 3.73 0 01-1.512 1.588c-.652.366-1.299.561-3.082.561H6.128c-1.783 0-2.43-.195-3.082-.561a3.73 3.73 0 01-1.512-1.588C1.186 13.167 1 12.488 1 10.616V7.384c0-1.872.186-2.55.534-3.235A3.73 3.73 0 013.046 2.56C3.698 2.195 4.345 2 6.128 2h5.744zm.189 1.4H6.128c-1.425 0-1.932.103-2.453.396-.42.235-.74.572-.965 1.013-.266.522-.367 1.031-.376 2.377v3.43c0 1.495.097 2.028.376 2.575.224.44.546.778.965 1.013.521.293 1.028.396 2.453.396h5.744c1.425 0 1.932-.103 2.453-.396.42-.235.74-.572.965-1.013.279-.547.377-1.08.377-2.575V7.384c0-1.495-.098-2.028-.377-2.575a2.363 2.363 0 00-.965-1.013c-.498-.28-.982-.386-2.264-.395zM9 10.4c.368 0 .667.313.667.7 0 .387-.299.7-.667.7H5c-.368 0-.667-.313-.667-.7 0-.387.299-.7.667-.7h4zm4 0c.368 0 .667.313.667.7 0 .387-.299.7-.667.7h-1.333c-.368 0-.667-.313-.667-.7 0-.387.299-.7.667-.7H13zm0-2.8c.368 0 .667.313.667.7 0 .387-.299.7-.667.7H9c-.368 0-.667-.313-.667-.7 0-.387.299-.7.667-.7h4zm-6.667 0c.369 0 .667.313.667.7 0 .387-.298.7-.667.7H5c-.368 0-.667-.313-.667-.7 0-.387.299-.7.667-.7h1.333z" fill="#226EE0"/></svg>