<svg width="18" height="18" fill="none" xmlns="http://www.w3.org/2000/svg"><path d="M3.8 11.945a6.003 6.003 0 01-.6-1.418 5.598 5.598 0 01-.2-1.49c0-1.625.564-3.007 1.69-4.146 1.128-1.14 2.504-1.71 4.128-1.71h.127L7.782 2.019 8.8 1l2.91 2.91L8.8 6.817 7.782 5.8l1.163-1.164h-.127c-1.212 0-2.242.428-3.09 1.282-.85.855-1.273 1.894-1.273 3.118 0 .316.036.625.109.928.072.303.181.6.327.89L3.8 11.945zM8.836 17l-2.909-2.91 2.91-2.908L9.854 12.2 8.69 13.364h.127c1.212 0 2.243-.428 3.091-1.282.849-.855 1.273-1.894 1.273-3.118 0-.316-.037-.625-.11-.928a4.16 4.16 0 00-.326-.89l1.09-1.091c.267.46.467.933.6 1.418.134.485.2.982.2 1.49 0 1.625-.563 3.007-1.69 4.146-1.128 1.14-2.504 1.71-4.128 1.71H8.69l1.164 1.163L8.836 17z" fill="#226EE0"/></svg>