<svg width="12" height="12" fill="none" xmlns="http://www.w3.org/2000/svg"><path d="M10.75 11.625L6.812 7.687a3.81 3.81 0 01-2.375.813c-1.135 0-2.096-.393-2.882-1.18C.768 6.535.375 5.574.375 4.438c0-1.135.393-2.096 1.18-2.883C2.341.768 3.302.375 4.438.375c1.135 0 2.096.393 2.883 1.18C8.107 2.34 8.5 3.301 8.5 4.437a3.81 3.81 0 01-.813 2.375l3.938 3.937-.875.875zM4.437 7.25c.782 0 1.446-.273 1.993-.82.547-.547.82-1.211.82-1.992 0-.782-.273-1.446-.82-1.993a2.714 2.714 0 00-1.992-.82c-.782 0-1.446.273-1.993.82a2.714 2.714 0 00-.82 1.993c0 .78.273 1.445.82 1.992.547.547 1.211.82 1.993.82z" fill="#48505B"/></svg>