<svg width="18" height="18" fill="none" xmlns="http://www.w3.org/2000/svg"><path d="M9.542 1.66c.906.028 1.495.526 1.806 1.466l.049.16.038.144c.014.056.03.115.051.176l.043.12.026.012.051-.017.1-.038.117-.051c1.06-.494 1.877-.402 2.54.328l.095.108.615.763c.548.721.531 1.493-.003 2.325l-.094.14-.088.12a2.715 2.715 0 00-.107.154l-.053.086-.025.043.003.015.069.045.095.057.115.063c1.042.532 1.471 1.23 1.306 2.202l-.028.14-.183.794c-.119.514-.212.757-.578 1.09-.356.325-.762.459-1.299.503l-.165.01-.149.005c-.057.002-.12.005-.184.011l-.136.016.01.107.01.072.024.134c.243 1.144-.03 1.918-.89 2.401l-.128.067-.88.428c-.828.372-1.575.182-2.266-.526l-.115-.123-.097-.113a2.473 2.473 0 00-.128-.14l-.072-.071-.038-.035-.068.066-.08.08-.087.1c-.715.85-1.469 1.156-2.382.8l-.132-.055-.789-.383-.234-.12c-.357-.195-.557-.382-.753-.795-.206-.435-.22-.863-.12-1.412l.033-.17c.012-.055.023-.117.031-.18l.014-.13-.003-.002-.078-.01-.11-.01-.13-.007c-1.17-.02-1.862-.46-2.14-1.408l-.036-.139-.219-.954c-.176-.89.177-1.576 1.023-2.09l.145-.084.132-.069c.051-.026.106-.057.161-.09l.116-.077.003-.014-.046-.08-.061-.095-.077-.107c-.703-.935-.783-1.752-.207-2.553l.087-.114.618-.76c.592-.687 1.35-.831 2.275-.481l.156.063.136.06c.05.025.107.048.166.07l.102.036.027-.012.025-.067.034-.103.035-.125c.269-1.077.813-1.682 1.791-1.763l.143-.008h1.042zM9.5 3.009h-1l-.104.008c-.215.027-.355.143-.49.623l-.03.118-.043.154a4.744 4.744 0 01-.351.85c-.304.11-.592.25-.86.42a4.839 4.839 0 01-.87-.263l-.263-.116a1.504 1.504 0 00-.437-.13l-.063-.003a.413.413 0 00-.306.144l-.051.056-.592.73-.071.093c-.138.199-.158.375.146.807l.171.237c.16.232.319.518.449.826a4.49 4.49 0 00-.203.9 4.75 4.75 0 01-.76.541l-.257.138c-.462.254-.521.422-.485.66l.01.057.21.915.03.114c.072.23.199.356.726.382l.29.01c.28.018.6.068.918.153.169.262.364.505.582.726.013.395-.024.78-.088 1.084-.151.711-.01.826.287.974l.845.411a.6.6 0 00.253.066l.05-.004c.136-.02.286-.121.503-.363l.193-.222a4.79 4.79 0 01.711-.627l.224.016L9 13.5l.227-.006.223-.017c.273.198.519.42.711.628l.194.222c.243.272.403.365.553.367l.05-.002a.56.56 0 00.133-.035l.07-.029.844-.41.104-.056c.225-.13.316-.296.184-.92a4.644 4.644 0 01-.088-1.083c.218-.22.413-.464.581-.727.32-.085.64-.134.918-.152l.29-.01c.608-.03.683-.192.756-.496l.197-.856c.068-.304.072-.483-.462-.776l-.256-.138a4.813 4.813 0 01-.76-.54 4.463 4.463 0 00-.204-.902c.13-.307.29-.593.45-.825l.17-.237c.305-.432.284-.608.146-.807l-.033-.046-.59-.73c-.106-.129-.195-.22-.34-.242l-.057-.005c-.12-.003-.276.037-.5.133l-.262.116a4.773 4.773 0 01-.87.261 4.409 4.409 0 00-.862-.417 4.86 4.86 0 01-.34-.82l-.085-.31c-.144-.508-.294-.603-.535-.621L9.5 3.009zM9 6.15a2.85 2.85 0 110 5.7 2.85 2.85 0 010-5.7zM9 7.5a1.5 1.5 0 100 3 1.5 1.5 0 000-3z" fill="#226EE0"/></svg>