<svg width="20" height="20" fill="none" xmlns="http://www.w3.org/2000/svg"><path d="M10.6 1.844c1.007.031 1.661.585 2.006 1.63l.055.178.042.16c.016.061.035.127.057.195l.048.132.028.015.058-.02.111-.042.13-.057c1.178-.548 2.085-.446 2.823.365l.104.12.683.847c.61.802.591 1.66-.003 2.585l-.104.155-.098.133c-.039.052-.079.11-.118.171l-.06.096-.027.047.003.017.076.05.106.064.128.07c1.157.59 1.635 1.367 1.45 2.446l-.03.157-.203.881c-.132.571-.236.841-.643 1.212-.395.36-.847.509-1.443.558l-.183.012-.165.005a2.746 2.746 0 00-.205.012l-.151.018.01.119.012.08.027.148c.27 1.272-.034 2.132-.99 2.669l-.141.074-.98.476c-.918.413-1.749.202-2.517-.585l-.127-.137-.108-.125a2.744 2.744 0 00-.141-.155l-.081-.08-.042-.038-.076.073-.088.09-.098.11c-.793.945-1.631 1.284-2.646.89l-.147-.062-.876-.426-.26-.133c-.397-.217-.62-.424-.837-.884-.23-.483-.245-.959-.134-1.57l.037-.187c.014-.062.025-.13.035-.202l.015-.142-.003-.004-.086-.011-.123-.011-.144-.007c-1.3-.023-2.07-.512-2.378-1.564l-.04-.155-.243-1.06c-.196-.988.196-1.75 1.136-2.322l.161-.093.147-.077c.057-.03.117-.064.18-.101l.128-.085.004-.015-.052-.09-.068-.105-.085-.119c-.781-1.038-.87-1.946-.23-2.837l.096-.127.687-.844c.657-.763 1.5-.923 2.528-.534l.173.07.151.067c.057.027.119.053.185.078l.113.04.03-.014.028-.074.038-.115.038-.139c.3-1.197.903-1.869 1.991-1.959l.159-.009 1.157.001zm-.046 1.5H9.443l-.116.008c-.239.03-.395.16-.544.693l-.035.13-.047.172a5.27 5.27 0 01-.39.945c-.337.12-.657.277-.956.465a5.376 5.376 0 01-.966-.291l-.292-.13a1.67 1.67 0 00-.486-.145l-.07-.002a.459.459 0 00-.34.16l-.057.062-.657.81-.08.105c-.152.22-.175.417.163.896l.19.263c.177.259.354.577.499.918-.108.32-.185.655-.225 1.002a5.45 5.45 0 01-.845.6l-.285.153c-.514.283-.58.469-.54.734l.012.063.234 1.017.033.126c.08.256.22.395.806.424l.323.012c.31.02.665.075 1.02.17.187.29.403.56.646.806a5.23 5.23 0 01-.098 1.204c-.168.791-.012.919.32 1.083l.938.457c.1.044.188.074.28.073l.056-.004c.151-.023.318-.135.56-.404l.214-.246c.214-.232.487-.479.79-.697l.249.018.251.006.252-.006.248-.02c.303.22.577.467.79.699l.215.246c.271.302.448.406.615.408l.055-.003a.623.623 0 00.148-.038l.077-.032.939-.457.116-.061c.249-.146.35-.33.203-1.022a5.157 5.157 0 01-.097-1.204 4.94 4.94 0 00.646-.807 5.35 5.35 0 011.02-.169l.322-.012c.676-.033.76-.213.84-.55l.22-.951c.075-.339.079-.537-.514-.863l-.286-.153a5.35 5.35 0 01-.844-.601 4.954 4.954 0 00-.226-1.001c.145-.341.322-.66.499-.918l.19-.263c.338-.48.315-.676.162-.896l-.037-.051-.656-.812c-.117-.143-.216-.245-.376-.269l-.064-.005c-.133-.003-.307.041-.556.148l-.291.129c-.28.115-.615.22-.966.29-.3-.187-.62-.344-.958-.463a5.408 5.408 0 01-.378-.91l-.095-.346c-.16-.565-.327-.67-.594-.69l-.063-.004zm-.556 3.49a3.167 3.167 0 110 6.333 3.167 3.167 0 010-6.333zm0 1.5a1.667 1.667 0 100 3.333 1.667 1.667 0 000-3.333z" fill="#226EE0"/></svg>