<svg width="16" height="16" fill="none" xmlns="http://www.w3.org/2000/svg"><g clip-path="url(#clip0_403_77759)" stroke="#747D8A" stroke-width="1.5" stroke-linecap="round" stroke-linejoin="round"><path d="M6.772 2.37c.313-1.287 2.143-1.287 2.455 0a1.263 1.263 0 001.886.78c1.13-.688 2.426.606 1.737 1.738a1.263 1.263 0 00.78 1.884c1.287.313 1.287 2.143 0 2.456a1.264 1.264 0 00-.78 1.885c.688 1.13-.606 2.426-1.738 1.737a1.263 1.263 0 00-1.885.78c-.312 1.287-2.142 1.287-2.455 0a1.264 1.264 0 00-1.885-.78c-1.131.688-2.426-.606-1.737-1.738a1.264 1.264 0 00-.78-1.884c-1.287-.313-1.287-2.143 0-2.456a1.263 1.263 0 00.78-1.885c-.688-1.13.606-2.426 1.738-1.737a1.262 1.262 0 001.884-.78z"/><path d="M8 10a2 2 0 100-4 2 2 0 000 4z"/></g><defs><clipPath id="clip0_403_77759"><path fill="#fff" d="M0 0h16v16H0z"/></clipPath></defs></svg>