<svg width="18" height="18" fill="none" xmlns="http://www.w3.org/2000/svg"><path d="M11.518 10.024c2.934 0 5.482 1.032 5.482 3.304 0 1.18-.463 1.672-1.455 1.672H7.492c-.992 0-1.455-.492-1.455-1.672 0-2.272 2.548-3.304 5.481-3.304zm0 1.171c-2.338 0-4.296.793-4.296 2.133 0 .521-.042.505.22.502h8.103c.317 0 .27.05.27-.502 0-1.34-1.958-2.133-4.296-2.133zM3.963 5.341a.59.59 0 01.593.586v1.756h1.777c.328 0 .593.262.593.585a.589.589 0 01-.593.586H4.556v1.756a.589.589 0 01-.593.585.589.589 0 01-.593-.585V8.854H1.593A.589.589 0 011 8.268c0-.323.265-.585.593-.585H3.37V5.927a.59.59 0 01.593-.586zM11.37 3c1.801 0 3.26 1.44 3.26 3.22 0 1.778-1.459 3.219-3.26 3.219-1.8 0-3.259-1.44-3.259-3.22C8.111 4.442 9.57 3 11.371 3zm0 1.17a2.061 2.061 0 00-2.074 2.05c0 1.132.928 2.048 2.074 2.048s2.074-.916 2.074-2.048c0-1.133-.928-2.05-2.074-2.05z" fill="#226EE0"/></svg>