<svg width="18" height="18" fill="none" xmlns="http://www.w3.org/2000/svg"><path d="M4.2 15c-.33 0-.612-.117-.847-.352A1.156 1.156 0 013 13.8v-2.4h1.2v2.4h2.4V15H4.2zM3 6.6V4.2c0-.33.118-.613.353-.848S3.87 3 4.2 3h2.4v1.2H4.2v2.4H3zm8.4 8.4v-1.2h2.4v-2.4H15v2.4c0 .33-.117.613-.352.848A1.157 1.157 0 0113.8 15h-2.4zm2.4-8.4V4.2h-2.4V3h2.4c.33 0 .613.117.848.352S15 3.87 15 4.2v2.4h-1.2zM9 9a1.74 1.74 0 01-1.282-.518A1.74 1.74 0 017.2 7.2c0-.5.173-.925.518-1.275C8.063 5.575 8.49 5.4 9 5.4c.5 0 .925.175 1.275.525.35.35.525.775.525 1.275 0 .51-.175.937-.525 1.282A1.75 1.75 0 019 9zm0-1.2c.17 0 .313-.058.428-.173A.58.58 0 009.6 7.2a.582.582 0 00-.172-.428A.582.582 0 009 6.6a.58.58 0 00-.427.172.581.581 0 00-.173.428c0 .17.058.312.173.427A.579.579 0 009 7.8zm-3.6 4.8v-1.14c0-.21.053-.407.158-.592a1.21 1.21 0 01.427-.443 6.03 6.03 0 011.447-.615A5.843 5.843 0 019 9.6c.54 0 1.063.07 1.568.21.505.14.987.345 1.447.615a1.211 1.211 0 01.585 1.035v1.14H5.4zM9 10.8c-.41 0-.81.05-1.2.15-.39.1-.76.25-1.11.45h4.62c-.35-.2-.72-.35-1.11-.45-.39-.1-.79-.15-1.2-.15z" fill="#226EE0"/></svg>