<svg width="18" height="18" fill="none" xmlns="http://www.w3.org/2000/svg"><path d="M11.095 6.22c0-1.133-.89-2.05-1.987-2.05-1.098 0-1.986.917-1.986 2.05 0 1.132.888 2.048 1.986 2.048 1.098 0 1.987-.916 1.987-2.048zm1.135 0c0 1.778-1.397 3.219-3.122 3.219-1.724 0-3.122-1.44-3.122-3.22C5.986 4.442 7.384 3 9.108 3c1.725 0 3.122 1.44 3.122 3.22zm-7.095 7.108c0 .552-.045.501.259.501h7.712c.304 0 .259.05.259-.502 0-1.339-1.875-2.132-4.115-2.132s-4.115.793-4.115 2.133zm-1.135 0c0-2.272 2.44-3.304 5.25-3.304s5.25 1.032 5.25 3.304c0 1.18-.443 1.672-1.394 1.672H5.394C4.444 15 4 14.508 4 13.328z" fill="#226EE0"/></svg>