<svg width="18" height="18" fill="none" xmlns="http://www.w3.org/2000/svg"><path d="M12.75 10.125c2.766 0 5.174.982 5.174 3.193 0 1.165-.483 1.682-1.469 1.682h-5.094c.2-.377.32-.83.352-1.35h4.828l.017.002.003-.022c.005-.058.013-.16.013-.312 0-1.134-1.738-1.843-3.825-1.843-.51 0-.998.042-1.446.123a3.891 3.891 0 00-.965-1.182c.728-.196 1.552-.291 2.411-.291zm-7.5 0c2.766 0 5.174.982 5.174 3.193 0 1.165-.483 1.682-1.469 1.682H1.543c-.986 0-1.469-.517-1.469-1.682 0-2.211 2.409-3.193 5.175-3.193zm0 1.35c-2.087 0-3.826.709-3.826 1.843 0 .164.01.268.015.324v.01l.016-.001.037-.001H9.04l.017.002.002-.022c.006-.058.014-.16.014-.312 0-1.134-1.738-1.843-3.825-1.843zm7.5-8.325a3.112 3.112 0 110 6.224 3.112 3.112 0 010-6.224zm-7.5 0a3.112 3.112 0 110 6.225 3.112 3.112 0 110-6.225zm7.5 1.35a1.762 1.762 0 10-.002 3.524 1.762 1.762 0 00.001-3.524zm-7.5 0a1.762 1.762 0 10-.002 3.524A1.762 1.762 0 005.249 4.5z" fill="#F22F52"/></svg>