<svg width="40" height="40" fill="none" xmlns="http://www.w3.org/2000/svg"><g clip-path="url(#clip0_412_77604)"><path d="M15.815.006L17.03.001h5.94l1.217.005 1.523.017.722.012.696.018.672.023.647.027.623.035.6.042.575.05.555.055c2.9.326 4.888 1.026 6.388 2.526 1.5 1.5 2.2 3.487 2.527 6.389l.057.555.048.576.042.6.033.622.042.98.02.684.021 1.073.015 1.525.007 1.633-.002 5.522-.005 1.216-.016 1.524-.012.721-.018.697-.024.672-.026.646-.035.624-.042.6-.05.575-.055.555c-.327 2.9-1.027 4.888-2.527 6.388-1.5 1.5-3.486 2.2-6.388 2.527l-.555.056-.577.049-.6.041-.621.034-.98.041-.684.02-1.073.022-1.525.015-1.633.007-5.522-.002-1.217-.005-1.523-.017-.722-.011-.696-.019-.672-.023-.647-.026-.623-.035-.6-.042-.575-.05-.555-.055c-2.9-.327-4.888-1.027-6.388-2.527-1.5-1.5-2.2-3.486-2.527-6.388l-.057-.555-.048-.577-.042-.6-.033-.622-.042-.98-.02-.683-.021-1.073-.015-1.525L0 22.552l.002-5.522.005-1.217.016-1.523.012-.722.018-.697.024-.671.026-.647.035-.623.042-.6.05-.575.055-.555c.327-2.9 1.027-4.89 2.527-6.39C4.312 1.31 6.298.61 9.2.284l.555-.057.577-.048.6-.042.621-.033.98-.042.684-.02L14.29.021l1.525-.015zm-4.498 12.16H6.75c.217 10.4 5.417 16.65 14.533 16.65h.517v-5.95c3.35.334 5.883 2.784 6.9 5.95h4.733c-1.3-4.733-4.716-7.35-6.85-8.35 2.134-1.233 5.134-4.233 5.85-8.3h-4.3c-.933 3.3-3.7 6.3-6.333 6.584v-6.584h-4.3V23.7c-2.667-.667-6.033-3.9-6.183-11.534z" fill="#157BFB"/></g><defs><clipPath id="clip0_412_77604"><path fill="#fff" d="M0 0h40v40H0z"/></clipPath></defs></svg>