<svg width="19" height="18" fill="none" xmlns="http://www.w3.org/2000/svg"><path d="M11.94 2.572c.75 0 1.137.075 1.54.29.374.2.672.498.872.872.204.382.282.75.29 1.423.543.035.889.13 1.245.32.427.228.765.567.993.993.248.463.334.908.334 1.789v4.055c0 .881-.086 1.326-.334 1.79a2.395 2.395 0 01-.993.992c-.463.248-.908.333-1.788.333H4.9c-.88 0-1.326-.085-1.789-.333a2.395 2.395 0 01-.992-.993c-.248-.463-.334-.908-.334-1.789v-7.17h.001v-.035c.012-.644.09-1.002.29-1.375.2-.374.497-.671.871-.871.404-.216.791-.29 1.541-.29h7.451zm2.159 3.857H3.07v5.885c0 .687.047.931.181 1.183.109.202.264.357.466.465.251.135.496.182 1.182.182H14.1c.686 0 .93-.047 1.182-.182a1.11 1.11 0 00.465-.465c.135-.252.182-.496.182-1.183V8.26c0-.687-.047-.931-.182-1.183a1.11 1.11 0 00-.465-.465c-.251-.134-.496-.182-1.182-.182zm-.742 3.215a.643.643 0 010 1.285H12.07a.643.643 0 110-1.285h1.286zm-1.418-5.786H4.49c-.557 0-.744.036-.936.139a.818.818 0 00-.343.343c-.094.176-.133.348-.138.804h10.284c-.006-.456-.044-.628-.138-.804a.818.818 0 00-.344-.343c-.192-.103-.379-.139-.935-.139z" fill="#226EE0"/></svg>