<svg width="114" height="114" viewBox="0 0 114 114" fill="none" xmlns="http://www.w3.org/2000/svg">
<mask id="mask0_362_95833" style="mask-type:alpha" maskUnits="userSpaceOnUse" x="0" y="0" width="114" height="114">
<rect width="114" height="114" fill="#D9D9D9"/>
</mask>
<g mask="url(#mask0_362_95833)">
<path d="M21.375 99.75C19.3958 99.75 17.7135 99.0573 16.3281 97.6719C14.9427 96.2865 14.25 94.6042 14.25 92.625V21.375C14.25 19.3958 14.9427 17.7135 16.3281 16.3281C17.7135 14.9427 19.3958 14.25 21.375 14.25H92.625C94.6042 14.25 96.2865 14.9427 97.6719 16.3281C99.0573 17.7135 99.75 19.3958 99.75 21.375V60.4438C98.6417 59.8104 97.474 59.2958 96.2469 58.9C95.0198 58.5042 93.8125 58.1875 92.625 57.95V21.375H21.375V92.625H58.0688C58.3854 93.8917 58.7417 95.1188 59.1375 96.3063C59.5333 97.4938 60.0083 98.6417 60.5625 99.75H21.375ZM21.375 92.625V21.375V57.95V57.475V92.625ZM33.25 80.75H58.3062C58.6229 79.4833 58.9792 78.2562 59.375 77.0688C59.7708 75.8813 60.2854 74.7333 60.9188 73.625H33.25V80.75ZM33.25 60.5625H74.1C75.2083 60.0083 76.2771 59.5531 77.3062 59.1969C78.3354 58.8406 79.4833 58.5042 80.75 58.1875V53.4375H33.25V60.5625ZM33.25 40.375H80.75V33.25H33.25V40.375ZM87.0438 109.131C80.8688 109.131 75.6042 106.934 71.25 102.541C66.8958 98.1469 64.7188 92.9417 64.7188 86.925C64.7188 80.75 66.8958 75.4656 71.25 71.0719C75.6042 66.6781 80.8688 64.4813 87.0438 64.4813C93.1396 64.4813 98.3844 66.6781 102.778 71.0719C107.172 75.4656 109.369 80.75 109.369 86.925C109.369 92.9417 107.172 98.1469 102.778 102.541C98.3844 106.934 93.1396 109.131 87.0438 109.131ZM85.2625 102.006H89.1813V88.9437H102.244V85.025H89.1813V71.9625H85.2625V85.025H72.2V88.9437H85.2625V102.006Z" fill="#D9E8FF"/>
</g>
</svg>
