<svg width="18" height="18" viewBox="0 0 18 18" fill="none" xmlns="http://www.w3.org/2000/svg">
<path d="M8.96543 13.4046C9.17468 14.6071 8.38231 15.7538 7.19563 15.9659C6.00895 16.1779 4.87734 15.375 4.66809 14.1724C4.53485 13.4067 4.42383 12.7687 4.33502 12.2583C2.44215 11.9393 1 10.2717 1 8.26285C1 6.02423 2.79086 4.20946 5 4.20946H10.7581L13.6464 2.34601C14.6629 1.69022 16.0115 1.99361 16.6586 3.02363C16.8816 3.37847 17 3.79039 17 4.21104V12.3147C17 13.5357 16.0232 14.5256 14.8182 14.5256C14.4031 14.5256 13.9966 14.4056 13.6464 14.1797L10.7581 12.3162L8.776 12.3159C8.82987 12.6255 8.89301 12.9884 8.96543 13.4046ZM6.10054 13.9165C6.17029 14.3173 6.54749 14.585 6.94305 14.5143C7.33861 14.4436 7.60273 14.0614 7.53299 13.6605C7.44212 13.1383 7.36409 12.6899 7.29889 12.3152L5.82196 12.3155C5.8982 12.7537 5.99106 13.2873 6.10054 13.9165ZM14.4276 3.58936L11.1818 5.68342V10.8423L14.4276 12.9363C14.5443 13.0117 14.6798 13.0517 14.8182 13.0517C15.2198 13.0517 15.5455 12.7217 15.5455 12.3147V4.21104C15.5455 4.07082 15.506 3.93352 15.4317 3.81524C15.216 3.47189 14.7664 3.37077 14.4276 3.58936ZM9.72727 5.68325L5 5.68342C3.59418 5.68342 2.45455 6.83827 2.45455 8.26285C2.45455 9.68744 3.59418 10.8423 5 10.8423L9.72727 10.8421V5.68325Z" fill="#226EE0"/>
</svg>
