<svg width="18" height="18" viewBox="0 0 18 18" fill="none" xmlns="http://www.w3.org/2000/svg">
<path d="M6.19998 16C5.81499 16 5.48552 15.863 5.21159 15.5891C4.93719 15.3147 4.79999 14.985 4.79999 14.6C4.79999 14.215 4.93719 13.8853 5.21159 13.6109C5.48552 13.337 5.81499 13.2 6.19998 13.2C6.58498 13.2 6.91445 13.337 7.18838 13.6109C7.46278 13.8853 7.59998 14.215 7.59998 14.6C7.59998 14.985 7.46278 15.3147 7.18838 15.5891C6.91445 15.863 6.58498 16 6.19998 16ZM13.2 16C12.815 16 12.4855 15.863 12.2116 15.5891C11.9372 15.3147 11.8 14.985 11.8 14.6C11.8 14.215 11.9372 13.8853 12.2116 13.6109C12.4855 13.337 12.815 13.2 13.2 13.2C13.585 13.2 13.9147 13.337 14.1891 13.6109C14.463 13.8853 14.6 14.215 14.6 14.6C14.6 14.985 14.463 15.3147 14.1891 15.5891C13.9147 15.863 13.585 16 13.2 16ZM5.60499 4.8L7.28498 8.3H12.185L14.11 4.8H5.60499ZM4.93999 3.4H15.265C15.5333 3.4 15.7374 3.51947 15.8774 3.7584C16.0174 3.9978 16.0233 4.24 15.8949 4.485L13.41 8.965C13.2816 9.19833 13.1094 9.37917 12.8934 9.5075C12.6778 9.63583 12.4416 9.7 12.185 9.7H6.96998L6.19998 11.1H14.6V12.5H6.19998C5.67499 12.5 5.27832 12.2695 5.00999 11.8084C4.74166 11.3478 4.72999 10.89 4.97499 10.435L5.91999 8.72L3.39999 3.4H2V2H4.27499L4.93999 3.4Z" fill="#226EE0"/>
</svg>
