<svg width="18" height="18" viewBox="0 0 18 18" fill="none" xmlns="http://www.w3.org/2000/svg">
<path d="M10.4831 1.92856C12.1477 1.92856 12.9375 2.08106 13.7577 2.51972C14.4983 2.9158 15.0834 3.50087 15.4794 4.24147C15.9181 5.06169 16.0706 5.85143 16.0706 7.51605V10.4839C16.0706 12.1485 15.9181 12.9383 15.4794 13.7585C15.0834 14.4991 14.4983 15.0842 13.7577 15.4803C12.9375 15.9189 12.1477 16.0714 10.4831 16.0714H7.51523C5.8506 16.0714 5.06086 15.9189 4.24065 15.4803C3.50005 15.0842 2.91497 14.4991 2.5189 13.7585C2.08024 12.9383 1.92773 12.1485 1.92773 10.4839V7.51605C1.92773 5.85143 2.08024 5.06169 2.5189 4.24147C2.91497 3.50087 3.50005 2.9158 4.24065 2.51972C5.06086 2.08106 5.8506 1.92856 7.51523 1.92856H10.4831ZM10.4831 3.21427H7.51523C6.0447 3.21427 5.45548 3.32806 4.84699 3.65348C4.33045 3.92973 3.92891 4.33127 3.65266 4.84781C3.32723 5.4563 3.21345 6.04552 3.21345 7.51605V10.4839C3.21345 11.9544 3.32723 12.5437 3.65266 13.1522C3.92891 13.6687 4.33045 14.0702 4.84699 14.3465C5.45548 14.6719 6.0447 14.7857 7.51523 14.7857H10.4831C11.9536 14.7857 12.5429 14.6719 13.1513 14.3465C13.6679 14.0702 14.0694 13.6687 14.3457 13.1522C14.6711 12.5437 14.7849 11.9544 14.7849 10.4839V7.51605C14.7849 6.04552 14.6711 5.4563 14.3457 4.84781C14.0694 4.33127 13.6679 3.92973 13.1513 3.65348C12.5429 3.32806 11.9536 3.21427 10.4831 3.21427ZM7.07059 9.64284C7.78067 9.64284 8.35631 10.2185 8.35631 10.9286C8.35631 11.6386 7.78067 12.2143 7.07059 12.2143C6.36051 12.2143 5.78488 11.6386 5.78488 10.9286C5.78488 10.2185 6.36051 9.64284 7.07059 9.64284ZM10.9277 9.64284C11.6378 9.64284 12.2134 10.2185 12.2134 10.9286C12.2134 11.6386 11.6378 12.2143 10.9277 12.2143C10.2177 12.2143 9.64202 11.6386 9.64202 10.9286C9.64202 10.2185 10.2177 9.64284 10.9277 9.64284ZM7.07059 5.7857C7.78067 5.7857 8.35631 6.36133 8.35631 7.07142C8.35631 7.7815 7.78067 8.35713 7.07059 8.35713C6.36051 8.35713 5.78488 7.7815 5.78488 7.07142C5.78488 6.36133 6.36051 5.7857 7.07059 5.7857ZM10.9277 5.7857C11.6378 5.7857 12.2134 6.36133 12.2134 7.07142C12.2134 7.7815 11.6378 8.35713 10.9277 8.35713C10.2177 8.35713 9.64202 7.7815 9.64202 7.07142C9.64202 6.36133 10.2177 5.7857 10.9277 5.7857Z" fill="#226EE0"/>
</svg>
