<svg width="18" height="18" viewBox="0 0 18 18" fill="none" xmlns="http://www.w3.org/2000/svg">
<path d="M14.7866 13.5001C15.1416 13.5001 15.4294 13.7879 15.4294 14.143C15.4294 14.498 15.1416 14.7858 14.7866 14.7858H3.21512C2.86008 14.7858 2.57227 14.498 2.57227 14.143C2.57227 13.7879 2.86008 13.5001 3.21512 13.5001H14.7866ZM14.1437 3.85727C14.4987 3.85727 14.7866 4.14509 14.7866 4.50013V7.71441C14.7866 8.06945 14.4987 8.35727 14.1437 8.35727C13.7887 8.35727 13.5008 8.06945 13.5008 7.71441V6.05198L9.45541 10.0976C9.22367 10.3293 8.85902 10.3471 8.60683 10.151L8.54627 10.0976L7.07227 8.62355L4.31255 11.3833C4.0615 11.6343 3.65446 11.6343 3.40341 11.3833C3.15236 11.1322 3.15236 10.7252 3.40341 10.4741L6.6177 7.25984C6.86875 7.00879 7.27578 7.00879 7.52683 7.25984L9.00084 8.73385L12.5906 5.14298H10.9294C10.5997 5.14298 10.328 4.89481 10.2909 4.5751L10.2866 4.50013C10.2866 4.14509 10.5744 3.85727 10.9294 3.85727H14.1437Z" fill="#48505B"/>
</svg>
