<svg width="24" height="24" viewBox="0 0 24 24" fill="none" xmlns="http://www.w3.org/2000/svg">
<path d="M10.3654 17.3667L18.5904 9.14168L16.957 7.50834L10.3654 14.1L7.04037 10.775L5.40703 12.4083L10.3654 17.3667ZM11.9987 23.6667C10.3848 23.6667 8.86814 23.3602 7.4487 22.7473C6.02925 22.1352 4.79453 21.3042 3.74453 20.2542C2.69453 19.2042 1.86348 17.9695 1.25136 16.55C0.638476 15.1306 0.332031 13.6139 0.332031 12C0.332031 10.3861 0.638476 8.86946 1.25136 7.45001C1.86348 6.03057 2.69453 4.79584 3.74453 3.74584C4.79453 2.69584 6.02925 1.8644 7.4487 1.25151C8.86814 0.639399 10.3848 0.333344 11.9987 0.333344C13.6126 0.333344 15.1293 0.639399 16.5487 1.25151C17.9681 1.8644 19.2029 2.69584 20.2529 3.74584C21.3029 4.79584 22.1339 6.03057 22.746 7.45001C23.3589 8.86946 23.6654 10.3861 23.6654 12C23.6654 13.6139 23.3589 15.1306 22.746 16.55C22.1339 17.9695 21.3029 19.2042 20.2529 20.2542C19.2029 21.3042 17.9681 22.1352 16.5487 22.7473C15.1293 23.3602 13.6126 23.6667 11.9987 23.6667Z" fill="#0A9422"/>
</svg>
