<svg width="18" height="18" viewBox="0 0 18 18" fill="none" xmlns="http://www.w3.org/2000/svg">
<path d="M3.21345 13.5378V11.4607C3.21345 10.7715 3.77215 10.2128 4.46135 10.2128C5.15054 10.2128 5.70925 10.7715 5.70925 11.4607V13.5378C5.70925 14.227 5.15054 14.7857 4.46135 14.7857C3.77215 14.7857 3.21345 14.227 3.21345 13.5378ZM3.21345 12.4912V9.25519C2.44574 9.69051 1.92773 10.5151 1.92773 11.4607V13.5378C1.92773 14.9371 3.06207 16.0714 4.46135 16.0714C5.86062 16.0714 6.99496 14.9371 6.99496 13.5378V11.4607C6.99496 10.0614 5.86062 8.92706 4.46135 8.92706C4.00765 8.92706 3.58181 9.04632 3.21345 9.25519V8.99999C3.21345 5.80463 5.8038 3.21427 8.99916 3.21427C12.1945 3.21427 14.7849 5.80463 14.7849 8.99999V9.25519C14.4165 9.04632 13.9907 8.92706 13.537 8.92706C12.1377 8.92706 11.0034 10.0614 11.0034 11.4607V13.5378C11.0034 14.9371 12.1377 16.0714 13.537 16.0714C14.9363 16.0714 16.0706 14.9371 16.0706 13.5378V11.4607C16.0706 10.5151 15.5526 9.69051 14.7849 9.25519V12.4053C14.7849 12.7603 15.0727 13.0481 15.4277 13.0481C15.7828 13.0481 16.0706 12.7603 16.0706 12.4053V8.99999C16.0706 5.09454 12.9046 1.92856 8.99916 1.92856C5.09372 1.92856 1.92773 5.09454 1.92773 8.99999V12.4912C1.92773 12.8463 2.21555 13.1341 2.57059 13.1341C2.92563 13.1341 3.21345 12.8463 3.21345 12.4912ZM14.7849 11.4607V13.5378C14.7849 14.227 14.2262 14.7857 13.537 14.7857C12.8478 14.7857 12.2891 14.227 12.2891 13.5378V11.4607C12.2891 10.7715 12.8478 10.2128 13.537 10.2128C14.2262 10.2128 14.7849 10.7715 14.7849 11.4607Z" fill="#226EE0"/>
</svg>
