<svg width="18" height="18" viewBox="0 0 18 18" fill="none" xmlns="http://www.w3.org/2000/svg">
<path d="M8.62439 12.9268C7.53171 12.8699 6.60976 12.4488 5.85854 11.6634C5.10732 10.878 4.73171 9.93333 4.73171 8.82927C4.73171 7.69106 5.13008 6.72358 5.92683 5.92683C6.72358 5.13008 7.69106 4.73171 8.82927 4.73171C9.93333 4.73171 10.878 5.10732 11.6634 5.85854C12.4488 6.60976 12.8699 7.53171 12.9268 8.62439L11.4927 8.19756C11.3447 7.58293 11.026 7.07938 10.5366 6.68693C10.0472 6.29402 9.47805 6.09756 8.82927 6.09756C8.07805 6.09756 7.43496 6.36504 6.9 6.9C6.36504 7.43496 6.09756 8.07805 6.09756 8.82927C6.09756 9.47805 6.29402 10.0472 6.68693 10.5366C7.07938 11.026 7.58293 11.3447 8.19756 11.4927L8.62439 12.9268ZM9.4439 15.6244C9.34146 15.6472 9.23902 15.6585 9.13659 15.6585H8.82927C7.88455 15.6585 6.99675 15.4792 6.16585 15.1204C5.33496 14.7621 4.6122 14.2756 3.99756 13.661C3.38293 13.0463 2.89646 12.3236 2.53815 11.4927C2.17938 10.6618 2 9.77398 2 8.82927C2 7.88455 2.17938 6.99675 2.53815 6.16585C2.89646 5.33496 3.38293 4.6122 3.99756 3.99756C4.6122 3.38293 5.33496 2.89623 6.16585 2.53746C6.99675 2.17915 7.88455 2 8.82927 2C9.77398 2 10.6618 2.17915 11.4927 2.53746C12.3236 2.89623 13.0463 3.38293 13.661 3.99756C14.2756 4.6122 14.7621 5.33496 15.1204 6.16585C15.4792 6.99675 15.6585 7.88455 15.6585 8.82927V9.13659C15.6585 9.23902 15.6472 9.34146 15.6244 9.4439L14.2927 9.03415V8.82927C14.2927 7.30407 13.7634 6.0122 12.7049 4.95366C11.6463 3.89512 10.3545 3.36585 8.82927 3.36585C7.30407 3.36585 6.0122 3.89512 4.95366 4.95366C3.89512 6.0122 3.36585 7.30407 3.36585 8.82927C3.36585 10.3545 3.89512 11.6463 4.95366 12.7049C6.0122 13.7634 7.30407 14.2927 8.82927 14.2927H9.03415L9.4439 15.6244ZM14.6512 16L11.7317 13.0805L10.878 15.6585L8.82927 8.82927L15.6585 10.878L13.0805 11.7317L16 14.6512L14.6512 16Z" fill="#226EE0"/>
</svg>
