<svg width="18" height="18" viewBox="0 0 18 18" fill="none" xmlns="http://www.w3.org/2000/svg">
<path d="M9 11.6359C9.79545 11.6359 10.4717 11.3576 11.0287 10.801C11.5853 10.244 11.8636 9.56785 11.8636 8.77246C11.8636 7.97707 11.5853 7.30088 11.0287 6.7439C10.4717 6.18734 9.79545 5.90906 9 5.90906C8.20455 5.90906 7.5283 6.18734 6.97127 6.7439C6.41467 7.30088 6.13636 7.97707 6.13636 8.77246C6.13636 9.56785 6.41467 10.244 6.97127 10.801C7.5283 11.3576 8.20455 11.6359 9 11.6359ZM9 10.4905C8.52273 10.4905 8.11715 10.3234 7.78327 9.98909C7.44897 9.65524 7.28182 9.24969 7.28182 8.77246C7.28182 8.29523 7.44897 7.88947 7.78327 7.5552C8.11715 7.22134 8.52273 7.05442 9 7.05442C9.47727 7.05442 9.88306 7.22134 10.2174 7.5552C10.5512 7.88947 10.7182 8.29523 10.7182 8.77246C10.7182 9.24969 10.5512 9.65524 10.2174 9.98909C9.88306 10.3234 9.47727 10.4905 9 10.4905ZM9 13.5448C7.45152 13.5448 6.04091 13.1125 4.76818 12.248C3.49545 11.3839 2.57273 10.2254 2 8.77246C2.57273 7.31955 3.49545 6.16083 4.76818 5.29629C6.04091 4.43218 7.45152 4.00012 9 4.00012C10.5485 4.00012 11.9591 4.43218 13.2318 5.29629C14.5045 6.16083 15.4273 7.31955 16 8.77246C15.4273 10.2254 14.5045 11.3839 13.2318 12.248C11.9591 13.1125 10.5485 13.5448 9 13.5448ZM9 12.2722C10.1985 12.2722 11.299 11.9566 12.3015 11.3253C13.3035 10.6945 14.0697 9.84359 14.6 8.77246C14.0697 7.70134 13.3035 6.85016 12.3015 6.21894C11.299 5.58814 10.1985 5.27275 9 5.27275C7.80152 5.27275 6.70103 5.58814 5.69855 6.21894C4.69648 6.85016 3.9303 7.70134 3.4 8.77246C3.9303 9.84359 4.69648 10.6945 5.69855 11.3253C6.70103 11.9566 7.80152 12.2722 9 12.2722Z" fill="#226EE0"/>
</svg>
