<svg width="18" height="18" viewBox="0 0 18 18" fill="none" xmlns="http://www.w3.org/2000/svg">
<path d="M7.7056 16V14.3529H6.05867V12.7059H7.7056V10.9765C6.62137 10.7843 5.73285 10.266 5.04004 9.42165C4.34668 8.5778 4 7.6 4 6.48823C4 5.23922 4.44275 4.17906 5.32825 3.30776C6.2132 2.43592 7.28014 2 8.52906 2C9.77799 2 10.8449 2.43592 11.7299 3.30776C12.6154 4.17906 13.0581 5.23922 13.0581 6.48823C13.0581 7.6 12.7117 8.5778 12.0189 9.42165C11.3256 10.266 10.4368 10.7843 9.35253 10.9765V12.7059H10.9995V14.3529H9.35253V16H7.7056ZM8.52906 9.41176C9.32508 9.41176 10.0044 9.13039 10.5671 8.56765C11.1298 8.0049 11.4112 7.32549 11.4112 6.52941C11.4112 5.73333 11.1298 5.05392 10.5671 4.49118C10.0044 3.92843 9.32508 3.64706 8.52906 3.64706C7.73305 3.64706 7.05369 3.92843 6.49099 4.49118C5.92828 5.05392 5.64693 5.73333 5.64693 6.52941C5.64693 7.32549 5.92828 8.0049 6.49099 8.56765C7.05369 9.13039 7.73305 9.41176 8.52906 9.41176Z" fill="#F22F52"/>
</svg>
