<svg width="18" height="17" viewBox="0 0 18 17" fill="none" xmlns="http://www.w3.org/2000/svg">
<path d="M2.34034 1.25H15.6597C15.818 1.2501 15.9732 1.29452 16.1072 1.37815C16.2412 1.46178 16.3487 1.58122 16.4172 1.72272C16.4857 1.86422 16.5125 2.02203 16.4946 2.17797C16.4766 2.33391 16.4145 2.48164 16.3155 2.60417L10.8667 9.355C10.7471 9.50273 10.6819 9.68643 10.6817 9.87583V14.1667C10.6817 14.296 10.6513 14.4236 10.593 14.5393C10.5346 14.6551 10.4498 14.7557 10.3454 14.8333L8.66365 16.0833C8.53873 16.1762 8.39018 16.2327 8.23465 16.2466C8.07912 16.2605 7.92276 16.2312 7.78309 16.162C7.64341 16.0928 7.52595 15.9864 7.44385 15.8548C7.36175 15.7231 7.31827 15.5714 7.31827 15.4167V9.875C7.31793 9.68588 7.25269 9.50251 7.13328 9.355L1.68447 2.60417C1.58548 2.48164 1.52343 2.33391 1.50544 2.17797C1.48745 2.02203 1.51427 1.86422 1.58281 1.72272C1.65134 1.58122 1.7588 1.46178 1.89282 1.37815C2.02684 1.29452 2.18197 1.2501 2.34034 1.25V1.25Z" stroke="#226EE0" stroke-width="1.5"/>
</svg>
