<svg width="25" height="24" viewBox="0 0 25 24" fill="none" xmlns="http://www.w3.org/2000/svg">
<path d="M5.53956 5.25H18.8589C19.0173 5.2501 19.1724 5.29452 19.3064 5.37815C19.4404 5.46178 19.5479 5.58122 19.6164 5.72272C19.6849 5.86422 19.7118 6.02203 19.6938 6.17797C19.6758 6.33391 19.6137 6.48164 19.5148 6.60417L14.0659 13.355C13.9463 13.5027 13.8811 13.6864 13.8809 13.8758V18.1667C13.8809 18.296 13.8506 18.4236 13.7922 18.5393C13.7338 18.6551 13.649 18.7557 13.5446 18.8333L11.8629 20.0833C11.7379 20.1762 11.5894 20.2327 11.4339 20.2466C11.2783 20.2605 11.122 20.2312 10.9823 20.162C10.8426 20.0928 10.7252 19.9864 10.6431 19.8548C10.561 19.7231 10.5175 19.5714 10.5175 19.4167V13.875C10.5171 13.6859 10.4519 13.5025 10.3325 13.355L4.88368 6.60417C4.7847 6.48164 4.72264 6.33391 4.70466 6.17797C4.68667 6.02203 4.71349 5.86422 4.78203 5.72272C4.85056 5.58122 4.95802 5.46178 5.09204 5.37815C5.22606 5.29452 5.38119 5.2501 5.53956 5.25V5.25Z" stroke="#226EE0" stroke-width="1.5"/>
</svg>
