<svg width="16" height="16" viewBox="0 0 16 16" fill="none" xmlns="http://www.w3.org/2000/svg">
<g opacity="0.2">
<path d="M7.74965 14.9995C7.53298 14.9995 7.35243 14.9273 7.20798 14.7828C7.06354 14.6384 6.99132 14.4578 6.99132 14.2412V9.21451L2.13798 3.06118C1.97909 2.83007 1.95743 2.5952 2.07298 2.35658C2.18854 2.11853 2.38354 1.99951 2.65798 1.99951H13.9247C14.1991 1.99951 14.3941 2.11853 14.5096 2.35658C14.6252 2.5952 14.6035 2.83007 14.4447 3.06118L9.59132 9.21451V14.2412C9.59132 14.4578 9.51909 14.6384 9.37465 14.7828C9.23021 14.9273 9.04965 14.9995 8.83298 14.9995H7.74965ZM8.29132 8.75951L12.5813 3.29951H4.00132L8.29132 8.75951Z" fill="#226EE0"/>
</g>
</svg>
