<svg width="18" height="18" viewBox="0 0 18 18" fill="none" xmlns="http://www.w3.org/2000/svg">
<path d="M9 15.8442L7.985 14.9342C6.80667 13.8725 5.8325 12.9567 5.0625 12.1868C4.2925 11.4168 3.68 10.7254 3.225 10.1127C2.77 9.50047 2.4522 8.93768 2.2716 8.42436C2.09053 7.91104 2 7.38606 2 6.8494C2 5.75277 2.3675 4.83696 3.1025 4.10198C3.8375 3.367 4.75333 2.99951 5.85 2.99951C6.45667 2.99951 7.03417 3.12784 7.5825 3.3845C8.13083 3.64116 8.60333 4.00282 9 4.46947C9.39667 4.00282 9.86917 3.64116 10.4175 3.3845C10.9658 3.12784 11.5433 2.99951 12.15 2.99951C13.2467 2.99951 14.1625 3.367 14.8975 4.10198C15.6325 4.83696 16 5.75277 16 6.8494C16 7.38606 15.9097 7.91104 15.7291 8.42436C15.548 8.93768 15.23 9.50047 14.775 10.1127C14.32 10.7254 13.7075 11.4168 12.9375 12.1868C12.1675 12.9567 11.1933 13.8725 10.015 14.9342L9 15.8442ZM9 13.9542C10.12 12.9509 11.0417 12.0904 11.765 11.3727C12.4883 10.6554 13.06 10.0315 13.48 9.50093C13.9 8.96988 14.1917 8.49716 14.355 8.08277C14.5183 7.66885 14.6 7.25773 14.6 6.8494C14.6 6.14942 14.3667 5.56611 13.9 5.09945C13.4333 4.6328 12.85 4.39947 12.15 4.39947C11.6017 4.39947 11.0942 4.55394 10.6275 4.86286C10.1608 5.17225 9.84 5.56611 9.665 6.04443H8.335C8.16 5.56611 7.83917 5.17225 7.3725 4.86286C6.90583 4.55394 6.39833 4.39947 5.85 4.39947C5.15 4.39947 4.56667 4.6328 4.1 5.09945C3.63333 5.56611 3.4 6.14942 3.4 6.8494C3.4 7.25773 3.48167 7.66885 3.645 8.08277C3.80833 8.49716 4.1 8.96988 4.52 9.50093C4.94 10.0315 5.51167 10.6554 6.235 11.3727C6.95833 12.0904 7.88 12.9509 9 13.9542Z" fill="#F22F52"/>
</svg>
