<svg width="16" height="16" viewBox="0 0 16 16" fill="none" xmlns="http://www.w3.org/2000/svg">
<path d="M2 8C2 9.45565 2.52918 10.8617 3.48896 11.9561C4.44874 13.0505 5.77365 13.7587 7.21684 13.9487C8.66004 14.1387 10.1231 13.7975 11.3334 12.9888C12.5437 12.1801 13.4188 10.959 13.7956 9.55291C14.1723 8.14687 14.0251 6.6518 13.3812 5.34627C12.7374 4.04074 11.6409 3.01378 10.2961 2.45672C8.95126 1.89967 7.44976 1.85052 6.07136 2.31842C4.69297 2.78632 3.53167 3.73937 2.80385 5" stroke="#48505B" stroke-width="1.5" stroke-linecap="round"/>
<path d="M2.5 2V5H5" stroke="#48505B" stroke-width="1.5" stroke-linecap="round"/>
<path d="M7.5 5.5V8.5L9.5 10" stroke="#48505B" stroke-width="1.5" stroke-linecap="round"/>
</svg>
