<svg width="18" height="18" viewBox="0 0 18 18" fill="none" xmlns="http://www.w3.org/2000/svg">
<path fill-rule="evenodd" clip-rule="evenodd" d="M2.87489 3.99989C3.45508 3.4197 4.24199 3.09375 5.0625 3.09375C5.88301 3.09375 6.66992 3.4197 7.25011 3.99989C7.8303 4.58008 8.15625 5.36699 8.15625 6.1875C8.15625 7.00801 7.8303 7.79492 7.25011 8.37511C7.00729 8.61794 6.72825 8.81623 6.4257 8.96472C7.04828 9.19598 7.61429 9.58324 8.07614 10.0964C8.85614 10.9631 9.28125 12.1212 9.28125 13.3125V14.0625C9.28125 14.5285 8.90349 14.9062 8.4375 14.9062C7.97151 14.9062 7.59375 14.5285 7.59375 14.0625V13.3125C7.59375 12.5147 7.30771 11.7651 6.82183 11.2253C6.3386 10.6884 5.70342 10.4062 5.0625 10.4062C4.42158 10.4062 3.7864 10.6884 3.30317 11.2253C2.81729 11.7651 2.53125 12.5147 2.53125 13.3125V14.0625C2.53125 14.5285 2.15349 14.9062 1.6875 14.9062C1.22151 14.9062 0.84375 14.5285 0.84375 14.0625V13.3125C0.84375 12.1212 1.26886 10.9631 2.04886 10.0964C2.51071 9.58324 3.07672 9.19598 3.6993 8.96472C3.39674 8.81623 3.11771 8.61794 2.87489 8.37511C2.2947 7.79492 1.96875 7.00801 1.96875 6.1875C1.96875 5.36699 2.2947 4.58008 2.87489 3.99989ZM5.0625 7.59375C5.43546 7.59375 5.79315 7.44559 6.05687 7.18187C6.32059 6.91815 6.46875 6.56046 6.46875 6.1875C6.46875 5.81454 6.32059 5.45685 6.05687 5.19313C5.79315 4.92941 5.43546 4.78125 5.0625 4.78125C4.68954 4.78125 4.33185 4.92941 4.06813 5.19313C3.80441 5.45685 3.65625 5.81454 3.65625 6.1875C3.65625 6.56046 3.80441 6.91815 4.06813 7.18187C4.33185 7.44559 4.68954 7.59375 5.0625 7.59375Z" fill="#226EE0"/>
<path fill-rule="evenodd" clip-rule="evenodd" d="M11.1782 11.2253C11.6614 10.6884 12.2966 10.4062 12.9375 10.4062C13.5784 10.4062 14.2136 10.6884 14.6968 11.2253C15.1827 11.7651 15.4688 12.5147 15.4688 13.3125V14.0625C15.4688 14.5285 15.8465 14.9062 16.3125 14.9062C16.7785 14.9062 17.1562 14.5285 17.1562 14.0625V13.3125C17.1562 12.1212 16.7311 10.9631 15.9511 10.0964C15.4893 9.58324 14.9233 9.19597 14.3007 8.96472C14.6033 8.81622 14.8823 8.61794 15.1251 8.37511C15.7053 7.79492 16.0312 7.00801 16.0312 6.1875C16.0312 5.36699 15.7053 4.58008 15.1251 3.99989C14.5449 3.4197 13.758 3.09375 12.9375 3.09375C12.117 3.09375 11.3301 3.4197 10.7499 3.99989C10.1697 4.58008 9.84375 5.36699 9.84375 6.1875C9.84375 7.00801 10.1697 7.79492 10.7499 8.37511C10.9927 8.61794 11.2717 8.81622 11.5743 8.96472C10.9517 9.19597 10.3857 9.58324 9.92386 10.0964C9.61213 10.4428 9.64021 10.9763 9.98658 11.288C10.3329 11.5997 10.8664 11.5717 11.1782 11.2253ZM13.9319 7.18187C13.6681 7.44559 13.3105 7.59375 12.9375 7.59375C12.5645 7.59375 12.2069 7.44559 11.9431 7.18187C11.6794 6.91815 11.5312 6.56046 11.5312 6.1875C11.5312 5.81454 11.6794 5.45685 11.9431 5.19313C12.2069 4.92941 12.5645 4.78125 12.9375 4.78125C13.3105 4.78125 13.6681 4.92941 13.9319 5.19313C14.1956 5.45685 14.3438 5.81454 14.3438 6.1875C14.3438 6.56046 14.1956 6.91815 13.9319 7.18187Z" fill="#226EE0"/>
</svg>
