<svg width="223" height="165" viewBox="0 0 223 165" fill="none" xmlns="http://www.w3.org/2000/svg">
<g opacity="0.25">
<mask id="mask0_413_79959" style="mask-type:alpha" maskUnits="userSpaceOnUse" x="0" y="0" width="165" height="165">
<rect width="165" height="165" fill="#D9D9D9"/>
</mask>
<g mask="url(#mask0_413_79959)">
<path d="M77.8594 116.875H88.1719V88.3438H116.875V78.0312H88.1719V48.125H77.8594V78.0312H48.125V88.3438H77.8594V116.875ZM82.5 151.25C73.1042 151.25 64.224 149.445 55.8594 145.836C47.4948 142.227 40.1901 137.299 33.9453 131.055C27.7005 124.81 22.7734 117.505 19.1641 109.141C15.5547 100.776 13.75 91.8385 13.75 82.3281C13.75 72.9323 15.5547 64.0521 19.1641 55.6875C22.7734 47.3229 27.7005 40.0469 33.9453 33.8594C40.1901 27.6719 47.4948 22.7734 55.8594 19.1641C64.224 15.5547 73.1615 13.75 82.6719 13.75C92.0677 13.75 100.948 15.5547 109.312 19.1641C117.677 22.7734 124.953 27.6719 131.141 33.8594C137.328 40.0469 142.227 47.3229 145.836 55.6875C149.445 64.0521 151.25 72.9896 151.25 82.5C151.25 91.8958 149.445 100.776 145.836 109.141C142.227 117.505 137.328 124.81 131.141 131.055C124.953 137.299 117.677 142.227 109.312 145.836C100.948 149.445 92.0104 151.25 82.5 151.25ZM82.6719 140.938C98.8281 140.938 112.578 135.237 123.922 123.836C135.266 112.435 140.938 98.599 140.938 82.3281C140.938 66.1719 135.266 52.4219 123.922 41.0781C112.578 29.7344 98.7708 24.0625 82.5 24.0625C66.3438 24.0625 52.5651 29.7344 41.1641 41.0781C29.763 52.4219 24.0625 66.2292 24.0625 82.5C24.0625 98.6562 29.763 112.435 41.1641 123.836C52.5651 135.237 66.401 140.938 82.6719 140.938Z" fill="#F2F4F7"/>
</g>
</g>
<g opacity="0.3">
<mask id="mask1_413_79959" style="mask-type:alpha" maskUnits="userSpaceOnUse" x="161" y="49" width="62" height="62">
<rect x="161" y="49" width="61.4199" height="61.4199" fill="#D9D9D9"/>
</mask>
<g mask="url(#mask1_413_79959)">
<path d="M172.516 98.9036C171.45 98.9036 170.544 98.5299 169.799 97.7826C169.051 97.0371 168.678 96.1311 168.678 95.0648C168.678 93.9985 169.051 93.0926 169.799 92.347C170.544 91.5997 171.45 91.2261 172.516 91.2261C173.583 91.2261 174.489 91.5997 175.234 92.347C175.982 93.0926 176.355 93.9985 176.355 95.0648C176.355 96.1311 175.982 97.0371 175.234 97.7826C174.489 98.5299 173.583 98.9036 172.516 98.9036ZM181.474 97.624V92.5057H214.743V97.624H181.474ZM172.516 83.5486C171.45 83.5486 170.544 83.1749 169.799 82.4277C169.051 81.6821 168.678 80.7762 168.678 79.7098C168.678 78.6435 169.051 77.7376 169.799 76.992C170.544 76.2447 171.45 75.8711 172.516 75.8711C173.583 75.8711 174.489 76.2447 175.234 76.992C175.982 77.7376 176.355 78.6435 176.355 79.7098C176.355 80.7762 175.982 81.6821 175.234 82.4277C174.489 83.1749 173.583 83.5486 172.516 83.5486ZM181.474 82.269V77.1507H214.743V82.269H181.474ZM172.516 68.1936C171.45 68.1936 170.544 67.82 169.799 67.0727C169.051 66.3271 168.678 65.4212 168.678 64.3549C168.678 63.2885 169.051 62.3826 169.799 61.637C170.544 60.8898 171.45 60.5161 172.516 60.5161C173.583 60.5161 174.489 60.8898 175.234 61.637C175.982 62.3826 176.355 63.2885 176.355 64.3549C176.355 65.4212 175.982 66.3271 175.234 67.0727C174.489 67.82 173.583 68.1936 172.516 68.1936ZM181.474 66.914V61.7957H214.743V66.914H181.474Z" fill="#F2F4F7"/>
</g>
</g>
</svg>
