<svg width="16" height="18" viewBox="0 0 16 18" fill="none" xmlns="http://www.w3.org/2000/svg">
<path d="M14.1709 14.5714H5.25659C4.82801 14.5714 4.46373 14.4214 4.16373 14.1214C3.86373 13.8214 3.71373 13.4571 3.71373 13.0286V1.54286C3.71373 1.11429 3.86373 0.75 4.16373 0.45C4.46373 0.15 4.82801 0 5.25659 0H11.2137L15.7137 4.5V13.0286C15.7137 13.4571 15.5637 13.8214 15.2637 14.1214C14.9637 14.4214 14.5994 14.5714 14.1709 14.5714ZM10.5709 5.14286V1.28571H5.25659C5.19944 1.28571 5.1423 1.31429 5.08516 1.37143C5.02801 1.42857 4.99944 1.48571 4.99944 1.54286V13.0286C4.99944 13.0857 5.02801 13.1429 5.08516 13.2C5.1423 13.2571 5.19944 13.2857 5.25659 13.2857H14.1709C14.228 13.2857 14.2852 13.2571 14.3423 13.2C14.3994 13.1429 14.428 13.0857 14.428 13.0286V5.14286H10.5709ZM1.82801 18C1.39944 18 1.03516 17.85 0.735156 17.55C0.435156 17.25 0.285156 16.8857 0.285156 16.4571V5.14286H1.57087V16.4571C1.57087 16.5143 1.59944 16.5714 1.65658 16.6286C1.71373 16.6857 1.77087 16.7143 1.82801 16.7143H10.5709V18H1.82801Z" fill="#226EE0"/>
</svg>
