<svg width="22" height="16" viewBox="0 0 22 16" fill="none" xmlns="http://www.w3.org/2000/svg">
<path d="M12.95 5.82505V4.50005C13.4833 4.25005 14.05 4.06238 14.65 3.93705C15.25 3.81238 15.8667 3.75005 16.5 3.75005C16.9 3.75005 17.2877 3.77905 17.663 3.83705C18.0377 3.89572 18.4167 3.96672 18.8 4.05005V5.32505C18.4333 5.19172 18.0627 5.09572 17.688 5.03705C17.3127 4.97905 16.9167 4.95005 16.5 4.95005C15.8667 4.95005 15.25 5.02505 14.65 5.17505C14.05 5.32505 13.4833 5.54172 12.95 5.82505ZM12.95 11.3V9.97505C13.4833 9.72505 14.05 9.53338 14.65 9.40005C15.25 9.26672 15.8667 9.20005 16.5 9.20005C16.9 9.20005 17.2877 9.22905 17.663 9.28705C18.0377 9.34571 18.4167 9.42505 18.8 9.52505V10.775C18.4333 10.6417 18.0627 10.5457 17.688 10.487C17.3127 10.429 16.9167 10.4 16.5 10.4C15.8667 10.4 15.25 10.475 14.65 10.625C14.05 10.775 13.4833 11 12.95 11.3ZM12.95 8.57505V7.22505C13.4833 6.97505 14.05 6.78738 14.65 6.66205C15.25 6.53738 15.8667 6.47505 16.5 6.47505C16.9 6.47505 17.2877 6.50405 17.663 6.56205C18.0377 6.62072 18.4167 6.70005 18.8 6.80005V8.05005C18.4333 7.91672 18.0627 7.82105 17.688 7.76305C17.3127 7.70438 16.9167 7.67505 16.5 7.67505C15.8667 7.67505 15.25 7.75405 14.65 7.91205C14.05 8.07072 13.4833 8.29172 12.95 8.57505ZM5.5 12.1C6.33333 12.1 7.14167 12.1917 7.925 12.375C8.70833 12.5584 9.48333 12.85 10.25 13.25V3.42505C9.55 2.97505 8.79167 2.63338 7.975 2.40005C7.15833 2.16672 6.33333 2.05005 5.5 2.05005C4.9 2.05005 4.33733 2.10005 3.812 2.20005C3.28733 2.30005 2.75 2.45005 2.2 2.65005C2.13333 2.68338 2.08333 2.72505 2.05 2.77505C2.01667 2.82505 2 2.87505 2 2.92505V12.375C2 12.475 2.03333 12.5457 2.1 12.587C2.16667 12.629 2.23333 12.6334 2.3 12.6C2.78333 12.4334 3.28733 12.3084 3.812 12.225C4.33733 12.1417 4.9 12.1 5.5 12.1ZM11.75 13.25C12.5167 12.85 13.2917 12.5584 14.075 12.375C14.8583 12.1917 15.6667 12.1 16.5 12.1C17.1 12.1 17.6627 12.1417 18.188 12.225C18.7127 12.3084 19.2167 12.4334 19.7 12.6C19.7667 12.6334 19.8333 12.629 19.9 12.587C19.9667 12.5457 20 12.475 20 12.375V2.92505C20 2.87505 19.9833 2.82505 19.95 2.77505C19.9167 2.72505 19.8667 2.68338 19.8 2.65005C19.25 2.45005 18.7127 2.30005 18.188 2.20005C17.6627 2.10005 17.1 2.05005 16.5 2.05005C15.6667 2.05005 14.8417 2.16672 14.025 2.40005C13.2083 2.63338 12.45 2.97505 11.75 3.42505V13.25ZM11 15.45C10.2 14.8667 9.33333 14.4124 8.4 14.087C7.46667 13.7624 6.5 13.6 5.5 13.6C4.88333 13.6 4.28333 13.6667 3.7 13.8C3.11667 13.9334 2.55 14.1334 2 14.4C1.65 14.5667 1.31267 14.5417 0.988 14.325C0.662667 14.1084 0.5 13.8 0.5 13.4V2.55005C0.5 2.33338 0.554333 2.12905 0.663 1.93705C0.771 1.74572 0.933333 1.60838 1.15 1.52505C1.81667 1.19172 2.521 0.945715 3.263 0.787049C4.00433 0.629049 4.75 0.550049 5.5 0.550049C6.46667 0.550049 7.41667 0.683382 8.35 0.950049C9.28333 1.21672 10.1667 1.60838 11 2.12505C11.8333 1.60838 12.7167 1.21672 13.65 0.950049C14.5833 0.683382 15.5333 0.550049 16.5 0.550049C17.25 0.550049 17.996 0.629049 18.738 0.787049C19.4793 0.945715 20.1833 1.19172 20.85 1.52505C21.0667 1.60838 21.229 1.74572 21.337 1.93705C21.4457 2.12905 21.5 2.33338 21.5 2.55005V13.4C21.5 13.8 21.3333 14.1044 21 14.313C20.6667 14.521 20.3167 14.5417 19.95 14.375C19.4 14.125 18.8377 13.9334 18.263 13.8C17.6877 13.6667 17.1 13.6 16.5 13.6C15.5 13.6 14.5333 13.7624 13.6 14.087C12.6667 14.4124 11.8 14.8667 11 15.45Z" fill="#ffffff"/>
</svg>
