<svg width="19" height="18" viewBox="0 0 19 18" fill="none" xmlns="http://www.w3.org/2000/svg">
<path d="M2.18179 17.9999C1.71788 17.9999 1.32356 17.8375 0.998822 17.5128C0.674087 17.188 0.511719 16.7937 0.511719 16.3298V3.89707C0.511719 3.43316 0.674087 3.03884 0.998822 2.71411C1.32356 2.38937 1.71788 2.227 2.18179 2.227H10.1146L8.72289 3.61873H2.18179C2.11993 3.61873 2.05808 3.64966 1.99622 3.71151C1.93437 3.77336 1.90344 3.83522 1.90344 3.89707V16.3298C1.90344 16.3917 1.93437 16.4535 1.99622 16.5154C2.05808 16.5772 2.11993 16.6082 2.18179 16.6082H14.6145C14.6764 16.6082 14.7382 16.5772 14.8001 16.5154C14.8619 16.4535 14.8929 16.3917 14.8929 16.3298V9.76551L16.2846 8.37379V16.3298C16.2846 16.7937 16.1222 17.188 15.7975 17.5128C15.4728 17.8375 15.0784 17.9999 14.6145 17.9999H2.18179ZM12.5965 2.62133L13.5939 3.59553L7.47034 9.71912V11.0413H8.76928L14.9393 4.89448L15.9135 5.86868L9.37236 12.433H6.07862V9.13924L12.5965 2.62133ZM15.9135 5.86868L12.5965 2.62133L14.7305 0.487348C15.0552 0.162612 15.4536 0.000244141 15.9255 0.000244141C16.3969 0.000244141 16.7949 0.170344 17.1196 0.510543L18.0243 1.41516C18.3335 1.7399 18.4882 2.13422 18.4882 2.59813C18.4882 3.06204 18.3258 3.45636 18.0011 3.7811L15.9135 5.86868Z" fill="#ffffff"/>
</svg>
