<svg width="22" height="16" viewBox="0 0 22 16" fill="none" xmlns="http://www.w3.org/2000/svg">
<path d="M5.5 15.5C4.11667 15.5 2.93733 15.0207 1.962 14.062C0.987333 13.104 0.5 11.9333 0.5 10.55C0.5 9.3 0.9 8.204 1.7 7.262C2.5 6.32067 3.49167 5.76667 4.675 5.6C4.99167 4.1 5.74167 2.875 6.925 1.925C8.10833 0.975 9.46667 0.5 11 0.5C12.8167 0.5 14.3543 1.129 15.613 2.387C16.871 3.64567 17.5 5.18333 17.5 7V7.5H17.8C18.8667 7.58333 19.75 8.00833 20.45 8.775C21.15 9.54167 21.5 10.45 21.5 11.5C21.5 12.6167 21.1167 13.5623 20.35 14.337C19.5833 15.1123 18.6417 15.5 17.525 15.5H12.05C11.55 15.5 11.125 15.325 10.775 14.975C10.425 14.625 10.25 14.2 10.25 13.7V8.225L8.4 10.025L7.35 9L11 5.325L14.65 9L13.6 10.025L11.75 8.225V13.7C11.75 13.7667 11.7833 13.8333 11.85 13.9C11.9167 13.9667 11.9833 14 12.05 14H17.5C18.2 14 18.7917 13.7583 19.275 13.275C19.7583 12.7917 20 12.2 20 11.5C20 10.8 19.7583 10.2083 19.275 9.725C18.7917 9.24167 18.2 9 17.5 9H16V7C16 5.61667 15.5127 4.43733 14.538 3.462C13.5627 2.48733 12.3833 2 11 2C9.61667 2 8.43767 2.48733 7.463 3.462C6.48767 4.43733 6 5.61667 6 7H5.475C4.525 7 3.70833 7.34167 3.025 8.025C2.34167 8.70833 2 9.53333 2 10.5C2 11.4667 2.34167 12.2917 3.025 12.975C3.70833 13.6583 4.53333 14 5.5 14H8V15.5H5.5Z" fill="#226EE0"/>
</svg>
