<svg width="38" height="38" viewBox="0 0 38 38" fill="none" xmlns="http://www.w3.org/2000/svg">
<circle cx="19" cy="19" r="19" fill="#48505B"/>
<g clip-path="url(#clip0_444_26230)">
<path fill-rule="evenodd" clip-rule="evenodd" d="M12.4019 13.1955C12.3319 13.1955 12.2648 13.2233 12.2153 13.2728C12.1658 13.3223 12.138 13.3894 12.138 13.4594V24.5427C12.138 24.6884 12.2562 24.8066 12.4019 24.8066H13.3941C13.4044 24.7958 13.415 24.7852 13.4258 24.775L19.8404 18.3593C20.1756 18.0241 20.6268 17.8305 21.1008 17.8187C21.5747 17.8069 22.035 17.9778 22.3864 18.296L25.8602 21.4394V13.4594C25.8602 13.3894 25.8324 13.3223 25.783 13.2728C25.7335 13.2233 25.6663 13.1955 25.5964 13.1955H12.4019ZM25.5964 24.8066H15.6319L20.9604 19.4792C21.0082 19.4315 21.0725 19.4038 21.14 19.4021C21.2076 19.4003 21.2732 19.4245 21.3235 19.4697L25.8602 23.5748V24.5427C25.8602 24.6127 25.8324 24.6798 25.783 24.7293C25.7335 24.7788 25.6663 24.8066 25.5964 24.8066V24.8066ZM27.4436 24.5427V13.4594C27.4436 12.9695 27.249 12.4996 26.9025 12.1532C26.5561 11.8068 26.0863 11.6122 25.5964 11.6122H12.4019C11.912 11.6122 11.4421 11.8068 11.0957 12.1532C10.7493 12.4996 10.5547 12.9695 10.5547 13.4594V24.5427C10.5547 25.5624 11.3822 26.39 12.4019 26.39H25.5964C26.0863 26.39 26.5561 26.1953 26.9025 25.8489C27.249 25.5025 27.4436 25.0327 27.4436 24.5427V24.5427ZM16.3602 16.89C16.3602 17.0299 16.3046 17.1642 16.2057 17.2632C16.1067 17.3621 15.9724 17.4177 15.8325 17.4177C15.6925 17.4177 15.5582 17.3621 15.4593 17.2632C15.3603 17.1642 15.3047 17.0299 15.3047 16.89C15.3047 16.75 15.3603 16.6157 15.4593 16.5168C15.5582 16.4178 15.6925 16.3622 15.8325 16.3622C15.9724 16.3622 16.1067 16.4178 16.2057 16.5168C16.3046 16.6157 16.3602 16.75 16.3602 16.89V16.89ZM17.9436 16.89C17.9436 17.4499 17.7212 17.9868 17.3252 18.3827C16.9293 18.7787 16.3924 19.0011 15.8325 19.0011C15.2726 19.0011 14.7356 18.7787 14.3397 18.3827C13.9438 17.9868 13.7214 17.4499 13.7214 16.89C13.7214 16.3301 13.9438 15.7931 14.3397 15.3972C14.7356 15.0013 15.2726 14.7788 15.8325 14.7788C16.3924 14.7788 16.9293 15.0013 17.3252 15.3972C17.7212 15.7931 17.9436 16.3301 17.9436 16.89V16.89Z" fill="white"/>
</g>
<defs>
<clipPath id="clip0_444_26230">
<rect width="16.8889" height="16.8889" fill="white" transform="translate(10.5547 10.5566)"/>
</clipPath>
</defs>
</svg>
