<svg width="24" height="22" viewBox="0 0 24 22" fill="none" xmlns="http://www.w3.org/2000/svg">
<path fill-rule="evenodd" clip-rule="evenodd" d="M2.625 2.75C2.52554 2.75 2.43016 2.78951 2.35984 2.85984C2.28951 2.93016 2.25 3.02554 2.25 3.125V18.875C2.25 19.082 2.418 19.25 2.625 19.25H4.035C4.04958 19.2346 4.06458 19.2196 4.08 19.205L13.1955 10.088C13.6718 9.61161 14.3131 9.33659 14.9865 9.31983C15.66 9.30308 16.3141 9.54589 16.8135 9.998L21.75 14.465V3.125C21.75 3.02554 21.7105 2.93016 21.6402 2.85984C21.5698 2.78951 21.4745 2.75 21.375 2.75H2.625ZM21.375 19.25H7.215L14.787 11.6795C14.8549 11.6116 14.9463 11.5724 15.0423 11.5698C15.1383 11.5673 15.2316 11.6017 15.303 11.666L21.75 17.4995V18.875C21.75 18.9745 21.7105 19.0698 21.6402 19.1402C21.5698 19.2105 21.4745 19.25 21.375 19.25V19.25ZM24 18.875V3.125C24 2.42881 23.7234 1.76113 23.2312 1.26884C22.7389 0.776562 22.0712 0.5 21.375 0.5H2.625C1.92881 0.5 1.26113 0.776562 0.768845 1.26884C0.276562 1.76113 0 2.42881 0 3.125L0 18.875C0 20.324 1.176 21.5 2.625 21.5H21.375C22.0712 21.5 22.7389 21.2234 23.2312 20.7312C23.7234 20.2389 24 19.5712 24 18.875V18.875ZM8.25 8C8.25 8.19891 8.17098 8.38968 8.03033 8.53033C7.88968 8.67098 7.69891 8.75 7.5 8.75C7.30109 8.75 7.11032 8.67098 6.96967 8.53033C6.82902 8.38968 6.75 8.19891 6.75 8C6.75 7.80109 6.82902 7.61032 6.96967 7.46967C7.11032 7.32902 7.30109 7.25 7.5 7.25C7.69891 7.25 7.88968 7.32902 8.03033 7.46967C8.17098 7.61032 8.25 7.80109 8.25 8V8ZM10.5 8C10.5 8.79565 10.1839 9.55871 9.62132 10.1213C9.05871 10.6839 8.29565 11 7.5 11C6.70435 11 5.94129 10.6839 5.37868 10.1213C4.81607 9.55871 4.5 8.79565 4.5 8C4.5 7.20435 4.81607 6.44129 5.37868 5.87868C5.94129 5.31607 6.70435 5 7.5 5C8.29565 5 9.05871 5.31607 9.62132 5.87868C10.1839 6.44129 10.5 7.20435 10.5 8V8Z" fill="white"/>
</svg>
