<svg width="16" height="16" viewBox="0 0 16 16" fill="none" xmlns="http://www.w3.org/2000/svg">
<path d="M8.39385 7.12805C8.37604 7.02969 8.32206 6.94157 8.24252 6.88102C8.16298 6.82048 8.06366 6.79192 7.96411 6.80095C7.86456 6.80998 7.772 6.85596 7.70466 6.92982C7.63732 7.00369 7.60007 7.10009 7.60025 7.20005V10.8016L7.60665 10.8736C7.62446 10.972 7.67845 11.0601 7.75799 11.1207C7.83753 11.1812 7.93685 11.2098 8.0364 11.2007C8.13594 11.1917 8.2285 11.1457 8.29585 11.0719C8.36319 10.998 8.40044 10.9016 8.40025 10.8016V7.20005L8.39385 7.12805ZM8.63945 5.40005C8.63945 5.24092 8.57624 5.08831 8.46372 4.97578C8.3512 4.86326 8.19858 4.80005 8.03945 4.80005C7.88032 4.80005 7.72771 4.86326 7.61519 4.97578C7.50267 5.08831 7.43945 5.24092 7.43945 5.40005C7.43945 5.55918 7.50267 5.71179 7.61519 5.82431C7.72771 5.93683 7.88032 6.00005 8.03945 6.00005C8.19858 6.00005 8.3512 5.93683 8.46372 5.82431C8.57624 5.71179 8.63945 5.55918 8.63945 5.40005Z" fill="#226EE0"/>
<circle cx="8" cy="8" r="5.5" stroke="#226EE0"/>
</svg>
