<svg width="16" height="16" viewBox="0 0 16 16" fill="none" xmlns="http://www.w3.org/2000/svg">
<path fill-rule="evenodd" clip-rule="evenodd" d="M3.75 2.5C3.75 2.36193 3.86193 2.25 4 2.25H8.25V5.5C8.25 5.91421 8.58579 6.25 9 6.25H12.25V13.5C12.25 13.6381 12.1381 13.75 12 13.75H4C3.86193 13.75 3.75 13.6381 3.75 13.5V2.5ZM12.1893 4.75H9.75V2.31066L12.1893 4.75ZM13.75 5.5V13.5C13.75 14.4665 12.9665 15.25 12 15.25H4C3.0335 15.25 2.25 14.4665 2.25 13.5V2.5C2.25 1.5335 3.0335 0.75 4 0.75H9H10C10.1989 0.75 10.3897 0.829018 10.5303 0.96967L13.5303 3.96967C13.671 4.11032 13.75 4.30109 13.75 4.5V5.5Z" fill="#747D8A"/>
</svg>
