<svg width="18" height="18" viewBox="0 0 18 18" fill="none" xmlns="http://www.w3.org/2000/svg">
<path d="M2.89258 9.00063C2.89258 9.5342 3.32329 9.96491 3.85686 9.96491C4.39044 9.96491 4.82115 9.5342 4.82115 9.00063C4.82115 8.46706 4.39044 8.03634 3.85686 8.03634C3.32329 8.03634 2.89258 8.46706 2.89258 9.00063ZM2.89258 5.14348C2.89258 5.67706 3.32329 6.10777 3.85686 6.10777C4.39044 6.10777 4.82115 5.67706 4.82115 5.14348C4.82115 4.60991 4.39044 4.1792 3.85686 4.1792C3.32329 4.1792 2.89258 4.60991 2.89258 5.14348ZM2.89258 12.8578C2.89258 13.387 3.32759 13.8221 3.85686 13.8221C4.38613 13.8221 4.82115 13.387 4.82115 12.8578C4.82115 12.3285 4.39338 11.8935 3.85686 11.8935C3.32034 11.8935 2.89258 12.3285 2.89258 12.8578ZM16.0711 12.8578C16.0711 12.5027 15.7833 12.2149 15.4283 12.2149H6.42829C6.07325 12.2149 5.78544 12.5027 5.78544 12.8578C5.78544 13.2128 6.07325 13.5006 6.42829 13.5006H15.4283C15.7833 13.5006 16.0711 13.2128 16.0711 12.8578ZM16.0711 9.00063C16.0711 8.64559 15.7833 8.35777 15.4283 8.35777H6.42829C6.07325 8.35777 5.78544 8.64559 5.78544 9.00063C5.78544 9.35567 6.07325 9.64349 6.42829 9.64349H15.4283C15.7833 9.64349 16.0711 9.35567 16.0711 9.00063ZM6.42829 5.78634H15.4283C15.7833 5.78634 16.0711 5.49853 16.0711 5.14348C16.0711 4.78844 15.7833 4.50063 15.4283 4.50063H6.42829C6.07325 4.50063 5.78544 4.78844 5.78544 5.14348C5.78544 5.49853 6.07325 5.78634 6.42829 5.78634Z" fill="#226EE0"/>
</svg>
