<svg width="12" height="12" viewBox="0 0 12 12" fill="none" xmlns="http://www.w3.org/2000/svg">
<path d="M6.00056 0.859375C7.42072 0.859375 8.57199 2.01064 8.57199 3.4308L8.57287 4.29769C8.93408 4.32007 9.16452 4.38328 9.40207 4.51033C9.68628 4.66232 9.9119 4.88794 10.0639 5.17215C10.229 5.48084 10.2863 5.77751 10.2863 6.36473V9.06831C10.2863 9.65553 10.229 9.9522 10.0639 10.2609C9.9119 10.5451 9.68628 10.7707 9.40207 10.9227C9.09338 11.0878 8.79671 11.1451 8.20949 11.1451H3.79163C3.2044 11.1451 2.90774 11.0878 2.59904 10.9227C2.31483 10.7707 2.08922 10.5451 1.93722 10.2609C1.77213 9.9522 1.71484 9.65553 1.71484 9.06831V6.36473C1.71484 5.77751 1.77213 5.48084 1.93722 5.17215C2.08922 4.88794 2.31483 4.66232 2.59904 4.51033C2.83669 4.38323 3.06722 4.32002 3.42868 4.29766L3.42913 3.4308C3.42913 2.01064 4.5804 0.859375 6.00056 0.859375ZM8.20949 5.14509H3.79163C3.3338 5.14509 3.17081 5.17656 3.00327 5.26617C2.86843 5.33828 2.76518 5.44154 2.69306 5.57637C2.60346 5.74392 2.57199 5.9069 2.57199 6.36473V9.06831C2.57199 9.52613 2.60346 9.68912 2.69306 9.85666C2.76518 9.9915 2.86843 10.0948 3.00327 10.1669C3.17081 10.2565 3.3338 10.2879 3.79163 10.2879H8.20949C8.66732 10.2879 8.8303 10.2565 8.99785 10.1669C9.13268 10.0948 9.23594 9.9915 9.30805 9.85666C9.39766 9.68912 9.42913 9.52613 9.42913 9.06831V6.36473C9.42913 5.9069 9.39766 5.74392 9.30805 5.57637C9.23594 5.44154 9.13268 5.33828 8.99785 5.26617C8.8303 5.17656 8.66732 5.14509 8.20949 5.14509ZM6.00056 6.4308C6.23725 6.4308 6.42913 6.62268 6.42913 6.85938V8.14509C6.42913 8.38178 6.23725 8.57366 6.00056 8.57366C5.76386 8.57366 5.57199 8.38178 5.57199 8.14509V6.85938C5.57199 6.62268 5.76386 6.4308 6.00056 6.4308ZM6.00056 1.71652C5.05378 1.71652 4.28627 2.48403 4.28627 3.4308V4.28795H7.71484V3.4308C7.71484 2.48403 6.94733 1.71652 6.00056 1.71652Z" fill="#48505B"/>
</svg>
