<svg width="10" height="10" viewBox="0 0 10 10" fill="none" xmlns="http://www.w3.org/2000/svg">
<g opacity="0.2">
<path d="M4.99916 0.716156C6.18263 0.716156 7.14202 1.67555 7.14202 2.85901L7.14275 3.58142C7.44377 3.60007 7.63579 3.65274 7.83376 3.75862C8.0706 3.88528 8.25861 4.07329 8.38527 4.31013C8.52285 4.56738 8.57059 4.8146 8.57059 5.30395V7.55693C8.57059 8.04629 8.52285 8.29351 8.38527 8.55075C8.25861 8.78759 8.0706 8.9756 7.83376 9.10227C7.57651 9.23984 7.32929 9.28758 6.83994 9.28758H3.15839C2.66903 9.28758 2.42181 9.23984 2.16457 9.10227C1.92773 8.9756 1.73972 8.78759 1.61305 8.55075C1.47548 8.29351 1.42773 8.04629 1.42773 7.55693V5.30395C1.42773 4.8146 1.47548 4.56738 1.61305 4.31013C1.73972 4.07329 1.92773 3.88528 2.16457 3.75862C2.36261 3.6527 2.55471 3.60003 2.85593 3.5814L2.85631 2.85901C2.85631 1.67555 3.8157 0.716156 4.99916 0.716156ZM6.83994 4.28758H3.15839C2.77687 4.28758 2.64104 4.31381 2.50142 4.38848C2.38906 4.44857 2.30301 4.53462 2.24292 4.64699C2.16825 4.78661 2.14202 4.92243 2.14202 5.30395V7.55693C2.14202 7.93845 2.16825 8.07428 2.24292 8.21389C2.30301 8.32626 2.38906 8.41231 2.50142 8.4724C2.64104 8.54707 2.77687 8.5733 3.15839 8.5733H6.83994C7.22146 8.5733 7.35728 8.54707 7.4969 8.4724C7.60927 8.41231 7.69532 8.32626 7.75541 8.21389C7.83008 8.07428 7.85631 7.93845 7.85631 7.55693V5.30395C7.85631 4.92243 7.83008 4.78661 7.75541 4.64699C7.69532 4.53462 7.60927 4.44857 7.4969 4.38848C7.35728 4.31381 7.22146 4.28758 6.83994 4.28758ZM4.99916 5.35901C5.19641 5.35901 5.35631 5.51891 5.35631 5.71616V6.78758C5.35631 6.98483 5.19641 7.14473 4.99916 7.14473C4.80192 7.14473 4.64202 6.98483 4.64202 6.78758V5.71616C4.64202 5.51891 4.80192 5.35901 4.99916 5.35901ZM4.99916 1.43044C4.21018 1.43044 3.57059 2.07003 3.57059 2.85901V3.5733H6.42773V2.85901C6.42773 2.07003 5.78814 1.43044 4.99916 1.43044Z" fill="#48505B"/>
</g>
</svg>
