<svg width="12" height="12" viewBox="0 0 12 12" fill="none" xmlns="http://www.w3.org/2000/svg">
<path d="M6.00056 0.859375C7.42072 0.859375 8.57199 2.01064 8.57199 3.4308L8.57287 4.29769C8.93408 4.32007 9.16452 4.38328 9.40207 4.51033C9.68628 4.66232 9.9119 4.88794 10.0639 5.17215C10.229 5.48084 10.2863 5.77751 10.2863 6.36473V9.06831C10.2863 9.65553 10.229 9.9522 10.0639 10.2609C9.9119 10.5451 9.68628 10.7707 9.40207 10.9227C9.09338 11.0878 8.79671 11.1451 8.20949 11.1451H3.79163C3.2044 11.1451 2.90774 11.0878 2.59904 10.9227C2.31483 10.7707 2.08922 10.5451 1.93722 10.2609C1.77213 9.9522 1.71484 9.65553 1.71484 9.06831V6.36473C1.71484 5.77751 1.77213 5.48084 1.93722 5.17215C2.08922 4.88794 2.31483 4.66232 2.59904 4.51033C2.83669 4.38323 3.06722 4.32002 3.42868 4.29766L3.42913 3.4308C3.42913 2.01064 4.5804 0.859375 6.00056 0.859375ZM6.00056 6.4308C6.23725 6.4308 6.42913 6.62268 6.42913 6.85937V8.14509C6.42913 8.38178 6.23725 8.57366 6.00056 8.57366C5.76387 8.57366 5.57199 8.38178 5.57199 8.14509V6.85937C5.57199 6.62268 5.76387 6.4308 6.00056 6.4308ZM6.00056 1.71652C5.05378 1.71652 4.28627 2.48403 4.28627 3.4308V4.28795H7.71484V3.4308C7.71484 2.48403 6.94733 1.71652 6.00056 1.71652Z" fill="#48505B"/>
</svg>
