<svg width="24" height="24" viewBox="0 0 24 24" fill="none" xmlns="http://www.w3.org/2000/svg">
<mask id="mask0_362_91657" style="mask-type:alpha" maskUnits="userSpaceOnUse" x="0" y="0" width="24" height="24">
<rect width="24" height="24" fill="#D9D9D9"/>
</mask>
<g mask="url(#mask0_362_91657)">
<path d="M20 4.5V10.5H18V7.925L14.025 11.875C14.3417 12.3417 14.5833 12.8373 14.75 13.362C14.9167 13.8873 15 14.4333 15 15C15 16.5333 14.4667 17.8333 13.4 18.9C12.3333 19.9667 11.0333 20.5 9.5 20.5C7.96667 20.5 6.66667 19.9667 5.6 18.9C4.53333 17.8333 4 16.5333 4 15C4 13.4667 4.53333 12.1667 5.6 11.1C6.66667 10.0333 7.96667 9.5 9.5 9.5C10.05 9.5 10.5917 9.57933 11.125 9.738C11.6583 9.896 12.15 10.1417 12.6 10.475L16.575 6.5H14V4.5H20ZM9.5 11.5C8.53333 11.5 7.70833 11.8417 7.025 12.525C6.34167 13.2083 6 14.0333 6 15C6 15.9667 6.34167 16.7917 7.025 17.475C7.70833 18.1583 8.53333 18.5 9.5 18.5C10.4667 18.5 11.2917 18.1583 11.975 17.475C12.6583 16.7917 13 15.9667 13 15C13 14.0333 12.6583 13.2083 11.975 12.525C11.2917 11.8417 10.4667 11.5 9.5 11.5Z" fill="#226EE0"/>
</g>
</svg>
