<svg width="18" height="18" viewBox="0 0 18 18" fill="none" xmlns="http://www.w3.org/2000/svg">
<path d="M9 9.70588C11.7807 9.70588 13.68 10.9473 13.68 12.8824C13.68 14.2447 12.7556 15 11.52 15H6.48C5.24443 15 4.32 14.2447 4.32 12.8824C4.32 10.9473 6.21934 9.70588 9 9.70588ZM14.76 9.70588C16.737 9.70588 18 10.8754 18 12.3529C18 13.5476 17.0694 14.2941 16.02 14.2941H15.48C15.0824 14.2941 14.76 13.9781 14.76 13.5882C14.76 13.1984 15.0824 12.8824 15.48 12.8824H16.02C16.3306 12.8824 16.56 12.6984 16.56 12.3529C16.56 11.6737 15.9595 11.1176 14.76 11.1176C14.3624 11.1176 14.04 10.8016 14.04 10.4118C14.04 10.0219 14.3624 9.70588 14.76 9.70588ZM3.24 9.70588C3.63765 9.70588 3.96 10.0219 3.96 10.4118C3.96 10.8016 3.63765 11.1176 3.24 11.1176C2.0405 11.1176 1.44 11.6737 1.44 12.3529C1.44 12.6984 1.66935 12.8824 1.98 12.8824H2.52C2.91765 12.8824 3.24 13.1984 3.24 13.5882C3.24 13.9781 2.91765 14.2941 2.52 14.2941H1.98C0.930649 14.2941 0 13.5476 0 12.3529C0 10.8754 1.26303 9.70588 3.24 9.70588ZM9 11.1176C6.92066 11.1176 5.76 11.8763 5.76 12.8824C5.76 13.4023 5.98757 13.5882 6.48 13.5882H11.52C12.0124 13.5882 12.24 13.4023 12.24 12.8824C12.24 11.8763 11.0793 11.1176 9 11.1176ZM13.32 3.70588C14.7118 3.70588 15.84 4.812 15.84 6.17647C15.84 7.54094 14.7118 8.64706 13.32 8.64706C12.9224 8.64706 12.6 8.33102 12.6 7.94118C12.6 7.55133 12.9224 7.23529 13.32 7.23529L13.424 7.23045C13.9717 7.17914 14.4 6.72684 14.4 6.17647C14.4 5.5917 13.9165 5.11765 13.32 5.11765L13.236 5.1129C12.8779 5.07212 12.6 4.77377 12.6 4.41176C12.6 4.02192 12.9224 3.70588 13.32 3.70588ZM4.68 3.70588C5.07765 3.70588 5.4 4.02192 5.4 4.41176C5.4 4.77377 5.12205 5.07212 4.76397 5.1129L4.68 5.11765C4.08353 5.11765 3.6 5.5917 3.6 6.17647C3.6 6.72684 4.02832 7.17914 4.57599 7.23045L4.68 7.23529C5.07765 7.23529 5.4 7.55133 5.4 7.94118C5.4 8.33102 5.07765 8.64706 4.68 8.64706C3.28824 8.64706 2.16 7.54094 2.16 6.17647C2.16 4.812 3.28824 3.70588 4.68 3.70588ZM9 3C10.5906 3 11.88 4.26414 11.88 5.82353C11.88 7.38292 10.5906 8.64706 9 8.64706C7.40942 8.64706 6.12 7.38292 6.12 5.82353C6.12 4.26414 7.40942 3 9 3ZM9 4.41176C8.20471 4.41176 7.56 5.04383 7.56 5.82353C7.56 6.60323 8.20471 7.23529 9 7.23529C9.79529 7.23529 10.44 6.60323 10.44 5.82353C10.44 5.04383 9.79529 4.41176 9 4.41176Z" fill="#226EE0"/>
</svg>
