<svg width="16" height="16" viewBox="0 0 16 16" fill="none" xmlns="http://www.w3.org/2000/svg">
<path d="M7.99972 1.14285C11.7868 1.14285 14.8569 4.2129 14.8569 8C14.8569 11.7871 11.7868 14.8571 7.99972 14.8571C4.21263 14.8571 1.14258 11.7871 1.14258 8C1.14258 4.2129 4.21263 1.14285 7.99972 1.14285ZM7.99972 2.28571C4.84381 2.28571 2.28544 4.84408 2.28544 8C2.28544 11.1559 4.84381 13.7143 7.99972 13.7143C11.1556 13.7143 13.714 11.1559 13.714 8C13.714 4.84408 11.1556 2.28571 7.99972 2.28571ZM10.8569 7.42857C11.1725 7.42857 11.4283 7.6844 11.4283 8C11.4283 8.31559 11.1725 8.57142 10.8569 8.57142H5.14258C4.82699 8.57142 4.57115 8.31559 4.57115 8C4.57115 7.6844 4.82699 7.42857 5.14258 7.42857H10.8569Z" fill="#F22F52"/>
</svg>
