<svg width="16" height="16" viewBox="0 0 16 16" fill="none" xmlns="http://www.w3.org/2000/svg">
<path fill-rule="evenodd" clip-rule="evenodd" d="M8 0.5C8.55228 0.5 9 0.947715 9 1.5V2.85545C11.1432 3.31467 12.75 5.21969 12.75 7.5V10.75H14C14.4142 10.75 14.75 11.0858 14.75 11.5C14.75 11.9142 14.4142 12.25 14 12.25H2C1.58579 12.25 1.25 11.9142 1.25 11.5C1.25 11.0858 1.58579 10.75 2 10.75H3.25V7.5C3.25 5.21969 4.85683 3.31467 7 2.85545V1.5C7 0.947715 7.44772 0.5 8 0.5ZM11.25 10.75V7.5C11.25 5.70507 9.79493 4.25 8 4.25C6.20507 4.25 4.75 5.70507 4.75 7.5V10.75H11.25ZM10 13.5C10 14.6046 9.10457 15.5 8 15.5C6.89543 15.5 6 14.6046 6 13.5H10Z" fill="#747D8A"/>
</svg>
