<svg width="16" height="16" viewBox="0 0 16 16" fill="none" xmlns="http://www.w3.org/2000/svg">
<path fill-rule="evenodd" clip-rule="evenodd" d="M2.55546 3.55536C3.07118 3.03964 3.77065 2.74991 4.5 2.74991C5.22935 2.74991 5.92882 3.03964 6.44454 3.55536C6.96027 4.07109 7.25 4.77056 7.25 5.49991C7.25 6.22925 6.96027 6.92873 6.44454 7.44445C6.2287 7.6603 5.98067 7.83655 5.71174 7.96855C6.26514 8.17411 6.76826 8.51835 7.17879 8.9745C7.87212 9.74486 8.25 10.7743 8.25 11.8332V12.4999C8.25 12.9141 7.91421 13.2499 7.5 13.2499C7.08579 13.2499 6.75 12.9141 6.75 12.4999V11.8332C6.75 11.1241 6.49574 10.4578 6.06385 9.97794C5.63431 9.50067 5.06971 9.24991 4.5 9.24991C3.93029 9.24991 3.36569 9.50067 2.93615 9.97794C2.50426 10.4578 2.25 11.1241 2.25 11.8332V12.4999C2.25 12.9141 1.91421 13.2499 1.5 13.2499C1.08579 13.2499 0.75 12.9141 0.75 12.4999V11.8332C0.75 10.7743 1.12788 9.74486 1.82121 8.9745C2.23174 8.51835 2.73486 8.17411 3.28826 7.96855C3.01933 7.83655 2.7713 7.6603 2.55546 7.44445C2.03973 6.92873 1.75 6.22925 1.75 5.49991C1.75 4.77056 2.03973 4.07109 2.55546 3.55536ZM4.5 6.74991C4.83152 6.74991 5.14946 6.61821 5.38388 6.38379C5.6183 6.14937 5.75 5.83143 5.75 5.49991C5.75 5.16839 5.6183 4.85045 5.38388 4.61603C5.14946 4.3816 4.83152 4.24991 4.5 4.24991C4.16848 4.24991 3.85054 4.3816 3.61612 4.61603C3.3817 4.85045 3.25 5.16839 3.25 5.49991C3.25 5.83143 3.3817 6.14937 3.61612 6.38379C3.85054 6.61821 4.16848 6.74991 4.5 6.74991Z" fill="#747D8A"/>
<path fill-rule="evenodd" clip-rule="evenodd" d="M9.93615 9.97794C10.3657 9.50067 10.9303 9.24991 11.5 9.24991C12.0697 9.24991 12.6343 9.50067 13.0638 9.97794C13.4957 10.4578 13.75 11.1241 13.75 11.8332V12.4999C13.75 12.9141 14.0858 13.2499 14.5 13.2499C14.9142 13.2499 15.25 12.9141 15.25 12.4999V11.8332C15.25 10.7743 14.8721 9.74486 14.1788 8.9745C13.7683 8.51835 13.2651 8.17411 12.7117 7.96855C12.9807 7.83655 13.2287 7.6603 13.4445 7.44445C13.9603 6.92873 14.25 6.22925 14.25 5.49991C14.25 4.77056 13.9603 4.07109 13.4445 3.55536C12.9288 3.03964 12.2293 2.74991 11.5 2.74991C10.7707 2.74991 10.0712 3.03964 9.55546 3.55536C9.03973 4.07109 8.75 4.77056 8.75 5.49991C8.75 6.22925 9.03973 6.92873 9.55546 7.44445C9.7713 7.6603 10.0193 7.83655 10.2883 7.96855C9.73486 8.17411 9.23174 8.51835 8.82121 8.9745C8.54411 9.28238 8.56907 9.7566 8.87696 10.0337C9.18484 10.3108 9.65906 10.2858 9.93615 9.97794ZM12.3839 6.38379C12.1495 6.61821 11.8315 6.74991 11.5 6.74991C11.1685 6.74991 10.8505 6.61821 10.6161 6.38379C10.3817 6.14937 10.25 5.83143 10.25 5.49991C10.25 5.16839 10.3817 4.85045 10.6161 4.61603C10.8505 4.3816 11.1685 4.24991 11.5 4.24991C11.8315 4.24991 12.1495 4.3816 12.3839 4.61603C12.6183 4.85045 12.75 5.16839 12.75 5.49991C12.75 5.83143 12.6183 6.14937 12.3839 6.38379Z" fill="#747D8A"/>
</svg>
