<svg width="24" height="24" viewBox="0 0 24 24" fill="none" xmlns="http://www.w3.org/2000/svg">
<path d="M17.4964 3.30398L17.6012 3.37134C17.6309 3.39069 17.6606 3.41019 17.6901 3.42983L17.6015 3.37142C17.6718 3.41713 17.7414 3.46367 17.8105 3.51104L17.6901 3.42983C17.7651 3.47976 17.8395 3.53064 17.9131 3.58246L17.8105 3.51104C17.8821 3.56018 17.9531 3.6102 18.0235 3.66109L18.0234 3.66114C18.13 3.73817 18.235 3.81724 18.3384 3.89824C18.4649 3.99747 18.5893 4.09968 18.7112 4.20469C18.9119 4.37753 19.1059 4.55821 19.2928 4.74607L19.2159 4.66958C19.2714 4.72423 19.3263 4.77951 19.3806 4.8354L19.2928 4.74607C19.3604 4.81401 19.427 4.88288 19.4927 4.95268L19.3806 4.8354C19.4433 4.89998 19.5051 4.96537 19.5661 5.03157L19.4927 4.95268C19.5485 5.01196 19.6036 5.07191 19.6579 5.1325L19.5661 5.03157C19.6259 5.09644 19.6849 5.16209 19.743 5.22848L19.6579 5.1325C19.7161 5.19728 19.7734 5.2628 19.8299 5.32904L19.743 5.22848C19.8013 5.29512 19.8588 5.36252 19.9154 5.43067L19.8299 5.32904C19.8875 5.39659 19.9442 5.46488 20.0001 5.53391L19.9999 5.53371C20.2397 5.83 20.4632 6.13965 20.6693 6.46154L20.5946 6.34646C20.6527 6.43463 20.7095 6.52374 20.7649 6.61378L20.6693 6.46154C20.7139 6.53121 20.7577 6.60145 20.8007 6.67226L20.7649 6.61378C20.8018 6.67367 20.8381 6.73397 20.8738 6.79467L20.8007 6.67226C20.8499 6.75341 20.8981 6.83531 20.9451 6.91791L20.9452 6.91809C21.0174 7.04485 21.087 7.17347 21.154 7.3037C21.1787 7.35178 21.2029 7.39975 21.2267 7.44794C21.2912 7.57846 21.3531 7.71063 21.4122 7.84429C21.6087 8.28869 21.7749 8.75015 21.9077 9.22551L21.962 9.42778L22.0362 9.73553C22.0448 9.77374 22.0531 9.81204 22.0613 9.85041L22.1189 10.1419L22.1713 10.4572C22.1898 10.58 22.2061 10.7036 22.2202 10.8278L22.1892 10.5808C22.2042 10.6895 22.2175 10.7988 22.229 10.9086L22.229 10.9085C22.2554 11.1585 22.2728 11.4112 22.281 11.6662L22.2809 11.6658L22.2863 12L22.2818 12.306C22.2803 12.3574 22.2784 12.4086 22.2762 12.4598C22.2657 12.6969 22.2473 12.9321 22.221 13.1648L22.2287 13.095C22.2169 13.2065 22.2033 13.3175 22.188 13.4279L22.221 13.1648C22.2079 13.2817 22.1927 13.398 22.1757 13.5136L22.1757 13.5137C22.1388 13.764 22.0928 14.0115 22.0382 14.2556L22.0381 14.2559L21.9622 14.5714L21.9077 14.7745C21.7515 15.3334 21.5493 15.8731 21.3054 16.3892C21.1798 16.6551 21.0429 16.9151 20.8955 17.1682L20.9437 17.0845C20.9032 17.1556 20.8619 17.2261 20.8198 17.2961L20.8955 17.1682C20.8488 17.2485 20.801 17.328 20.7522 17.4069L20.8198 17.2961C20.774 17.3722 20.7272 17.4477 20.6795 17.5225L20.7522 17.4069C20.7013 17.489 20.6493 17.5705 20.5962 17.6511L20.6795 17.5225C20.6468 17.5739 20.6136 17.625 20.5799 17.6757L20.5962 17.6511C20.5577 17.7095 20.5186 17.7675 20.479 17.8251L20.5799 17.6757C20.51 17.7812 20.4382 17.8853 20.3646 17.9879L20.479 17.8251C20.4277 17.8996 20.3755 17.9734 20.3223 18.0465L20.3222 18.0466C20.0976 18.3552 19.8562 18.6508 19.5994 18.9322L19.6534 18.8726C19.5931 18.9396 19.532 19.0059 19.47 19.0714L19.5994 18.9322C19.5348 19.0029 19.4692 19.0728 19.4027 19.1417L19.47 19.0714C19.4149 19.1295 19.3592 19.187 19.3028 19.2438L19.4027 19.1417C19.3404 19.2063 19.2772 19.2701 19.2132 19.333L19.3028 19.2438C19.2601 19.2869 19.2171 19.3295 19.1737 19.3717L19.174 19.3714C19.0723 19.4704 18.969 19.5669 18.8637 19.6613C18.636 19.8654 18.3991 20.0596 18.1538 20.243L18.2187 20.194C18.1447 20.2503 18.07 20.3055 17.9944 20.3597L18.1538 20.243C18.0883 20.2919 18.0223 20.3401 17.9557 20.3875L17.9944 20.3597C17.9288 20.4069 17.8627 20.4532 17.7959 20.4988L17.9557 20.3875C17.8698 20.4485 17.783 20.5083 17.6952 20.5668L17.7959 20.4988C17.7405 20.5367 17.6847 20.574 17.6285 20.6108L17.6952 20.5668C17.6254 20.6133 17.555 20.6589 17.4841 20.7037L17.4842 20.7036C17.1588 20.9091 16.8213 21.0967 16.4727 21.2652L16.5816 21.2118C16.4976 21.2537 16.4129 21.2944 16.3275 21.334L16.4727 21.2652C16.3992 21.3008 16.3251 21.3355 16.2506 21.3694L16.3275 21.334C16.2492 21.3704 16.1703 21.4058 16.0909 21.4403L16.2506 21.3694C16.1612 21.41 16.071 21.4494 15.9802 21.4876L16.0909 21.4403C16.0009 21.4793 15.9102 21.5171 15.8189 21.5537L15.9802 21.4876C15.9095 21.5172 15.8384 21.5462 15.7669 21.5743L15.8189 21.5537C15.738 21.586 15.6565 21.6174 15.5746 21.6478L15.7669 21.5743C15.6742 21.6108 15.5809 21.646 15.487 21.6798L15.5746 21.6478C15.4658 21.6881 15.3562 21.7266 15.2457 21.7633L15.2454 21.7634C15.0792 21.8186 14.911 21.8698 14.7409 21.9167L14.8488 21.8863C14.7723 21.9083 14.6955 21.9294 14.6184 21.9496L14.7409 21.9167C14.6522 21.9411 14.563 21.9644 14.4734 21.9865L14.6184 21.9496C14.5267 21.9737 14.4345 21.9965 14.3418 22.0181L14.4734 21.9865C14.3935 22.0063 14.3132 22.025 14.2325 22.0429L14.3418 22.0181C14.2565 22.0379 14.1707 22.0567 14.0846 22.0745L14.2325 22.0429C14.1332 22.0649 14.0334 22.0854 13.9331 22.1045L14.0846 22.0745C14.0002 22.0918 13.9155 22.1082 13.8303 22.1235L13.9331 22.1045C13.8544 22.1194 13.7753 22.1335 13.6959 22.1467L13.6961 22.1466C13.5929 22.1637 13.4895 22.1793 13.3855 22.1933L13.2831 22.2065L13.0363 22.2342C12.6956 22.2683 12.3501 22.2857 12.0006 22.2857C11.3764 22.2857 10.7653 22.2301 10.1718 22.1236L10.2951 22.1456C10.2009 22.1298 10.1071 22.1128 10.0138 22.0946L10.1718 22.1236C10.0967 22.1102 10.0219 22.0959 9.94734 22.0808L9.94714 22.0813C9.77211 22.0453 9.59849 22.0053 9.42661 21.961L9.4886 21.9773C9.40857 21.9572 9.32892 21.9361 9.24965 21.9142L9.42661 21.961C9.33927 21.9385 9.25238 21.9149 9.16595 21.8902L9.16633 21.8907C8.94555 21.8271 8.72817 21.7569 8.51408 21.6798L8.75561 21.7638C8.62588 21.7207 8.49729 21.675 8.3699 21.6269L8.51408 21.6798C8.43255 21.6504 8.35149 21.62 8.27093 21.5887L8.3699 21.6269C8.27372 21.5906 8.17822 21.5529 8.08344 21.5139L8.27093 21.5887C8.19057 21.5574 8.11071 21.5251 8.03135 21.4919L8.08344 21.5139C8.01563 21.4859 7.94819 21.4572 7.88112 21.4279L8.03135 21.4919C7.94929 21.4576 7.86777 21.4222 7.78681 21.3858L7.88112 21.4279C7.79837 21.3917 7.71619 21.3544 7.6346 21.3161L7.78681 21.3858C7.70716 21.35 7.62804 21.3132 7.54948 21.2754L7.6346 21.3161C7.56243 21.2822 7.49073 21.2475 7.41949 21.212L7.41951 21.2118C7.29471 21.1498 7.17136 21.0851 7.04953 21.0181C6.99629 20.9886 6.94313 20.9588 6.89026 20.9284C6.71427 20.8276 6.54173 20.7217 6.37265 20.611L6.51689 20.7036C6.44595 20.6588 6.37559 20.6132 6.30584 20.5667L6.37265 20.611C6.31219 20.5714 6.25217 20.5312 6.19261 20.4903L6.30584 20.5667C6.22934 20.5158 6.15357 20.4638 6.07853 20.4109L6.19261 20.4903C6.11701 20.4385 6.04213 20.3857 5.96801 20.3319L6.07853 20.4109C6.00276 20.3575 5.92775 20.303 5.85351 20.2476L5.96801 20.3319C5.90557 20.2867 5.84367 20.2407 5.78231 20.194L5.78242 20.194C5.5604 20.0254 5.34556 19.8479 5.13829 19.6621C5.01895 19.5551 4.90209 19.4454 4.78784 19.333L4.82711 19.3715C4.78389 19.3294 4.74104 19.287 4.69857 19.2441L4.78784 19.333C4.72383 19.27 4.66065 19.2062 4.5983 19.1416L4.69857 19.2441C4.64208 19.1872 4.58626 19.1296 4.53111 19.0714L4.5983 19.1416C4.53195 19.0729 4.46656 19.0032 4.40213 18.9326L4.53111 19.0714C4.46903 19.0058 4.40781 18.9395 4.34746 18.8723L4.34775 18.8726C4.09477 18.5911 3.85736 18.2958 3.63653 17.9879L3.67896 18.0466C3.62578 17.9736 3.57354 17.8998 3.52226 17.8253L3.63653 17.9879C3.56298 17.8854 3.49127 17.7814 3.42145 17.6761L3.52226 17.8253C3.48255 17.7676 3.44342 17.7095 3.40487 17.651L3.42145 17.6761C3.38771 17.6252 3.35442 17.574 3.32157 17.5225L3.40487 17.651C3.35176 17.5704 3.29975 17.489 3.24886 17.4068L3.32157 17.5225C3.2739 17.4477 3.22717 17.3723 3.18139 17.2962L3.24886 17.4068C3.20015 17.3281 3.15246 17.2487 3.10583 17.1686L3.18139 17.2962C3.13915 17.226 3.09772 17.1553 3.05712 17.084L3.05739 17.0845C2.90749 16.8214 2.7691 16.5515 2.6426 16.2751L2.6957 16.3892C2.65765 16.3087 2.62061 16.2276 2.58461 16.146L2.58436 16.1454C2.38983 15.7042 2.22522 15.2462 2.09339 14.7745L2.03887 14.5714L1.96301 14.2559C1.95573 14.2234 1.94861 14.1908 1.94164 14.1582C1.89028 13.9176 1.84738 13.6743 1.81319 13.4281L1.82545 13.5137C1.80837 13.3979 1.79322 13.2815 1.78003 13.1645L1.81319 13.4281C1.79786 13.3177 1.78427 13.2068 1.77247 13.0953L1.77244 13.095C1.74564 12.8418 1.72801 12.5855 1.71994 12.3268L1.71995 12.3274L1.71484 12L1.72017 11.6658C1.72151 11.6239 1.7231 11.582 1.72494 11.5402C1.73549 11.3005 1.75423 11.063 1.78089 10.8279L1.77208 10.9085C1.78366 10.7987 1.79697 10.6894 1.81197 10.5807L1.81196 10.5808L1.82978 10.4572L1.88224 10.1419C1.90711 10.0056 1.93467 9.87023 1.96485 9.73586L1.96492 9.73553L2.03909 9.42778L2.09339 9.22551C2.22624 8.75015 2.39237 8.28869 2.58913 7.8438L2.5711 7.88481C2.63556 7.73733 2.70337 7.59164 2.77445 7.44786C2.79823 7.39975 2.82242 7.35178 2.84697 7.30402C2.93591 7.13102 3.02943 6.96117 3.12752 6.79434L3.05592 6.91809C3.10301 6.83537 3.15123 6.75337 3.20053 6.67211L3.12752 6.79434C3.1631 6.73383 3.19928 6.67371 3.23605 6.61401L3.20053 6.67211C3.24354 6.60123 3.28737 6.53092 3.33202 6.46118L3.23605 6.61401C3.29152 6.52392 3.34835 6.43476 3.4065 6.34655L3.40655 6.34646C3.61613 6.02851 3.84295 5.7228 4.08563 5.43074L4.00328 5.53112C4.05842 5.46304 4.11441 5.39568 4.17123 5.32905L4.08563 5.43074C4.14229 5.36255 4.19981 5.2951 4.25818 5.22842L4.17123 5.32905C4.2277 5.26284 4.285 5.19735 4.34311 5.1326L4.25818 5.22842C4.31635 5.16197 4.37536 5.09627 4.43519 5.03135L4.34311 5.1326C4.39748 5.07201 4.45257 5.01207 4.50835 4.95279L4.43519 5.03135C4.49614 4.96521 4.55795 4.89988 4.62059 4.83536L4.50835 4.95279C4.57413 4.88288 4.64089 4.81388 4.70858 4.74583L4.62059 4.83536C4.67474 4.7796 4.72951 4.72445 4.7849 4.66992L4.78524 4.66958C4.94833 4.50903 5.11712 4.35355 5.29097 4.2038C5.41239 4.0992 5.53647 3.99724 5.66293 3.89818C5.79901 3.79158 5.93802 3.6882 6.07966 3.58832L5.97771 3.66114C6.06538 3.59771 6.15409 3.53563 6.24381 3.47493L6.07966 3.58832C6.14499 3.54225 6.21087 3.49693 6.2773 3.45236L6.24381 3.47493C6.31102 3.42946 6.37879 3.38476 6.44712 3.34085L6.2773 3.45236C6.35185 3.40235 6.42709 3.35328 6.503 3.30519L6.50308 3.30514C6.63027 3.22455 6.75943 3.14662 6.89041 3.0715C6.94313 3.04126 6.99629 3.01139 7.04975 2.98198C7.20092 2.89882 7.35429 2.8194 7.50986 2.74378L7.4374 2.77935C7.50996 2.74338 7.583 2.70823 7.65652 2.67393L7.50986 2.74378C7.59663 2.70161 7.68409 2.66061 7.77221 2.62082L7.65652 2.67393C7.73765 2.63608 7.81936 2.59925 7.90162 2.56346L7.77221 2.62082C7.85345 2.58414 7.93525 2.54848 8.0176 2.51386L8.01756 2.51388C8.15586 2.45575 8.29565 2.40056 8.43689 2.34839C8.5422 2.3095 8.64844 2.27223 8.75546 2.23668L8.62362 2.28148C8.69548 2.25651 8.7677 2.23232 8.84028 2.20891L8.75546 2.23668C8.83686 2.20963 8.91872 2.18358 9.00101 2.15853L8.84028 2.20891C8.93755 2.17754 9.03546 2.14757 9.13398 2.11904L9.00101 2.15853C9.08751 2.1322 9.17449 2.10698 9.26193 2.08289L9.13398 2.11904C9.2202 2.09407 9.30688 2.0702 9.39401 2.04744L9.26193 2.08289C9.35006 2.05861 9.43866 2.03547 9.52771 2.01349L9.39401 2.04744C9.48053 2.02485 9.56749 2.00335 9.65487 1.98297L9.52771 2.01349C9.61189 1.99271 9.69648 1.97298 9.78146 1.95429L9.65487 1.98297C9.73892 1.96336 9.82336 1.94479 9.90819 1.92726L9.78146 1.95429C9.87846 1.93296 9.97598 1.91299 10.074 1.89442L9.90819 1.92726C9.99534 1.90925 10.0829 1.89234 10.1708 1.87655L10.074 1.89442C10.1508 1.87987 10.2279 1.86618 10.3052 1.85335L10.305 1.85338C10.4082 1.83627 10.5116 1.82073 10.6156 1.80674L10.718 1.79348L10.9649 1.76579C11.3055 1.73173 11.651 1.71429 12.0006 1.71429C12.6247 1.71429 13.2358 1.76988 13.8293 1.87637L13.706 1.85443C13.8002 1.87016 13.8939 1.88717 13.9872 1.90544L13.8293 1.87637C13.9044 1.88985 13.9792 1.90415 14.0538 1.91925L14.0539 1.91873C14.2343 1.95582 14.4131 1.99711 14.59 2.04299L14.5093 2.02193C14.5868 2.04138 14.664 2.06171 14.7409 2.08291L14.59 2.04299C14.6767 2.06549 14.763 2.08909 14.8489 2.11377L14.8487 2.11331C15.0272 2.16506 15.2036 2.22104 15.3778 2.28158L15.3776 2.28114C15.5001 2.32406 15.6213 2.36879 15.7414 2.41571L15.6013 2.36184C15.6949 2.39684 15.7879 2.43316 15.8802 2.47078L15.7414 2.41571C15.8194 2.44619 15.897 2.47759 15.9741 2.5099L15.8802 2.47078C15.9537 2.50075 16.0268 2.53154 16.0994 2.56315L15.9741 2.5099C16.0596 2.54576 16.1446 2.58275 16.2289 2.62083L16.0994 2.56315C16.1818 2.59898 16.2635 2.63585 16.3448 2.67376L16.2289 2.62083C16.317 2.66059 16.4044 2.70155 16.4911 2.74369L16.3448 2.67376C16.4183 2.70809 16.4914 2.74326 16.564 2.77927L16.5637 2.77935C16.6947 2.84409 16.8238 2.91161 16.9513 2.98175C17.1366 3.08387 17.3183 3.1913 17.4963 3.30404L17.4964 3.30398ZM14.0705 16.1137L9.93074 16.1144C10.3734 17.8665 11.0896 19.4303 12.0002 20.7118C12.9115 19.4305 13.6278 17.8663 14.0705 16.1137ZM4.28432 16.1143C5.46112 18.3168 7.55333 19.9564 10.0528 20.5251C9.29998 19.2209 8.71624 17.7308 8.34531 16.1145L4.28432 16.1143ZM19.7168 16.1143L15.656 16.1135C15.2852 17.7299 14.7015 19.2201 13.9492 20.5242C16.4478 19.9564 18.54 18.3168 19.7168 16.1143ZM8.06236 9.42809L3.64209 9.42819C3.3922 10.2413 3.2577 11.105 3.2577 12C3.2577 12.8947 3.39211 13.7581 3.64183 14.571L8.06232 14.5716C7.94673 13.7383 7.88627 12.8787 7.88627 12C7.88627 11.1212 7.94674 10.2615 8.06236 9.42809ZM14.3804 9.42757H9.6207C9.49534 10.2555 9.42913 11.1158 9.42913 12C9.42913 12.8838 9.49528 13.7438 9.62054 14.5714L14.3805 14.5716C14.5058 13.7439 14.572 12.8839 14.572 12C14.572 11.1158 14.5058 10.2555 14.3804 9.42757ZM20.359 9.42819L15.9388 9.42809C16.0544 10.2615 16.1148 11.1212 16.1148 12C16.1148 12.8785 16.0544 13.7379 15.9389 14.5711L20.3593 14.571C20.609 13.7581 20.7434 12.8947 20.7434 12C20.7434 11.105 20.6089 10.2413 20.359 9.42819ZM10.0519 3.4758L9.89955 3.51124C7.46825 4.11099 5.43753 5.72799 4.28478 7.88487L8.34529 7.88563C8.71615 6.26954 9.29974 4.77971 10.0519 3.4758ZM12.0006 3.28779L11.9628 3.34122C11.07 4.61267 10.3674 6.15743 9.93079 7.88547H14.0703C13.6276 6.13315 12.9113 4.5693 12.0006 3.28779ZM13.9484 3.47492L14.0038 3.57129C14.7296 4.85228 15.294 6.30886 15.6558 7.88563L19.7163 7.88487C18.5394 5.68284 16.4475 4.04353 13.9484 3.47492Z" fill="#226EE0"/>
</svg>
