<svg width="18" height="18" viewBox="0 0 18 18" fill="none" xmlns="http://www.w3.org/2000/svg">
<path d="M12.8423 3.14999C15.0205 3.14999 16.4652 4.5263 17.2618 6.80663C17.7941 8.33039 18 10.1046 18 11.8607C18 14.4159 17.3723 15.4286 15.4572 15.4286C14.5169 15.4286 13.8714 14.8335 12.729 13.3589C11.815 12.1793 11.4677 11.8125 11.3481 11.8125H6.65192C6.50534 11.8125 6.02583 12.2745 5.1265 13.3611L5.11427 13.3759C3.77779 14.9908 3.32606 15.4286 2.54279 15.4286C0.627665 15.4286 0 14.4159 0 11.8607C0 10.1046 0.205895 8.33039 0.738182 6.80663C1.53476 4.5263 2.97949 3.14999 5.15769 3.14999H12.8423ZM12.8423 4.49999H5.15769C2.4521 4.49999 1.35 7.65494 1.35 11.8607C1.35 13.7653 1.54416 14.0786 2.54279 14.0786C2.68616 14.0786 3.16206 13.6174 4.07423 12.5152L4.08648 12.5004C5.39947 10.9139 5.86802 10.4625 6.65192 10.4625H11.3481C12.1468 10.4625 12.3987 10.7285 13.7961 12.5321C14.6382 13.619 15.1368 14.0786 15.4572 14.0786C16.4558 14.0786 16.65 13.7653 16.65 11.8607C16.65 7.65494 15.5479 4.49999 12.8423 4.49999ZM5.355 5.78571C5.59288 5.78571 5.78571 5.97855 5.78571 6.21642L5.78529 7.07121L6.64071 7.07142C6.87859 7.07142 7.07143 7.26426 7.07143 7.50214V7.92642C7.07143 8.1643 6.87859 8.35714 6.64071 8.35714L5.78529 8.35671L5.78571 9.21214C5.78571 9.45001 5.59288 9.64285 5.355 9.64285H4.93071C4.69284 9.64285 4.5 9.45001 4.5 9.21214L4.49979 8.35671L3.645 8.35714C3.40712 8.35714 3.21429 8.1643 3.21429 7.92642V7.50214C3.21429 7.26426 3.40712 7.07142 3.645 7.07142L4.49979 7.07121L4.5 6.21642C4.5 5.97855 4.69284 5.78571 4.93071 5.78571H5.355ZM13.0693 8.35714C13.3072 8.35714 13.5 8.54997 13.5 8.78785V9.21214C13.5 9.45001 13.3072 9.64285 13.0693 9.64285H12.645C12.4071 9.64285 12.2143 9.45001 12.2143 9.21214V8.78785C12.2143 8.54997 12.4071 8.35714 12.645 8.35714H13.0693ZM11.7836 7.07142C12.0214 7.07142 12.2143 7.26426 12.2143 7.50214V7.92642C12.2143 8.1643 12.0214 8.35714 11.7836 8.35714H11.3593C11.1214 8.35714 10.9286 8.1643 10.9286 7.92642V7.50214C10.9286 7.26426 11.1214 7.07142 11.3593 7.07142H11.7836ZM14.355 7.07142C14.5929 7.07142 14.7857 7.26426 14.7857 7.50214V7.92642C14.7857 8.1643 14.5929 8.35714 14.355 8.35714H13.9307C13.6928 8.35714 13.5 8.1643 13.5 7.92642V7.50214C13.5 7.26426 13.6928 7.07142 13.9307 7.07142H14.355ZM13.0693 5.78571C13.3072 5.78571 13.5 5.97855 13.5 6.21642V6.64071C13.5 6.87858 13.3072 7.07142 13.0693 7.07142H12.645C12.4071 7.07142 12.2143 6.87858 12.2143 6.64071V6.21642C12.2143 5.97855 12.4071 5.78571 12.645 5.78571H13.0693Z" fill="#F22F52"/>
</svg>
