<svg width="18" height="18" viewBox="0 0 18 18" fill="none" xmlns="http://www.w3.org/2000/svg">
<path d="M11.8722 2C13.6553 2 14.3018 2.19493 14.9537 2.56098C15.6055 2.92702 16.1171 3.46418 16.4657 4.14862C16.8144 4.83307 17 5.51197 17 7.38416V10.6158C17 12.488 16.8144 13.1669 16.4657 13.8514C16.1171 14.5358 15.6055 15.073 14.9537 15.439C14.3018 15.8051 13.6553 16 11.8722 16H6.12777C4.34473 16 3.69816 15.8051 3.04631 15.439C2.39446 15.073 1.88288 14.5358 1.53427 13.8514C1.18565 13.1669 1 12.488 1 10.6158V7.38416C1 5.51197 1.18565 4.83307 1.53427 4.14862C1.88288 3.46418 2.39446 2.92702 3.04631 2.56098C3.69816 2.19493 4.34473 2 6.12777 2H11.8722ZM12.0609 3.40065L6.12777 3.4C4.70342 3.4 4.19635 3.50282 3.67511 3.79552C3.25561 4.03108 2.93436 4.36839 2.71002 4.80886C2.44393 5.33129 2.34261 5.84016 2.33395 7.1861L2.33333 10.6158C2.33333 12.1114 2.43125 12.6438 2.71002 13.1911C2.93436 13.6316 3.25561 13.9689 3.67511 14.2045C4.19635 14.4972 4.70342 14.6 6.12777 14.6H11.8722C13.2966 14.6 13.8037 14.4972 14.3249 14.2045C14.7444 13.9689 15.0656 13.6316 15.29 13.1911C15.5687 12.6438 15.6667 12.1114 15.6667 10.6158V7.38416C15.6667 5.88859 15.5687 5.35616 15.29 4.80886C15.0656 4.36839 14.7444 4.03108 14.3249 3.79552C13.8273 3.51612 13.3427 3.40974 12.0609 3.40065ZM9 10.4C9.36819 10.4 9.66667 10.7134 9.66667 11.1C9.66667 11.4866 9.36819 11.8 9 11.8H5C4.63181 11.8 4.33333 11.4866 4.33333 11.1C4.33333 10.7134 4.63181 10.4 5 10.4H9ZM13 10.4C13.3682 10.4 13.6667 10.7134 13.6667 11.1C13.6667 11.4866 13.3682 11.8 13 11.8H11.6667C11.2985 11.8 11 11.4866 11 11.1C11 10.7134 11.2985 10.4 11.6667 10.4H13ZM13 7.6C13.3682 7.6 13.6667 7.9134 13.6667 8.3C13.6667 8.6866 13.3682 9 13 9H9C8.63181 9 8.33333 8.6866 8.33333 8.3C8.33333 7.9134 8.63181 7.6 9 7.6H13ZM6.33333 7.6C6.70152 7.6 7 7.9134 7 8.3C7 8.6866 6.70152 9 6.33333 9H5C4.63181 9 4.33333 8.6866 4.33333 8.3C4.33333 7.9134 4.63181 7.6 5 7.6H6.33333Z" fill="#226EE0"/>
</svg>
