<svg width="24" height="24" viewBox="0 0 24 24" fill="none" xmlns="http://www.w3.org/2000/svg">
<path d="M24 12C24 18.6274 18.6274 24 12 24C5.37258 24 0 18.6274 0 12C0 5.37258 5.37258 0 12 0C18.6274 0 24 5.37258 24 12ZM3.6 12C3.6 16.6392 7.36081 20.4 12 20.4C16.6392 20.4 20.4 16.6392 20.4 12C20.4 7.36081 16.6392 3.6 12 3.6C7.36081 3.6 3.6 7.36081 3.6 12Z" fill="#C5CAD1"/>
<path d="M12 1.8C12 0.805888 12.8103 -0.0138209 13.7933 0.134743C15.5295 0.397164 17.1947 1.03869 18.6668 2.02236C20.6402 3.34094 22.1783 5.21509 23.0866 7.4078C23.9948 9.60051 24.2324 12.0133 23.7694 14.3411C23.3064 16.6689 22.1635 18.8071 20.4853 20.4853C18.8071 22.1635 16.6689 23.3064 14.3411 23.7694C12.0133 24.2324 9.60051 23.9948 7.4078 23.0866C5.21509 22.1783 3.34094 20.6402 2.02236 18.6668C1.03869 17.1947 0.397164 15.5295 0.134743 13.7933C-0.0138209 12.8103 0.805888 12 1.8 12C2.79411 12 3.58072 12.8149 3.79212 13.7863C4.01481 14.8095 4.42801 15.7873 5.01566 16.6668C5.93866 18.0482 7.25056 19.1248 8.78546 19.7606C10.3204 20.3964 12.0093 20.5627 13.6388 20.2386C15.2682 19.9145 16.7649 19.1145 17.9397 17.9397C19.1145 16.7649 19.9145 15.2682 20.2386 13.6388C20.5627 12.0093 20.3964 10.3204 19.7606 8.78546C19.1248 7.25056 18.0482 5.93866 16.6668 5.01566C15.7873 4.42802 14.8095 4.01481 13.7863 3.79212C12.8149 3.58072 12 2.79411 12 1.8Z" fill="#226EE0"/>
</svg>
