<svg width="18" height="18" viewBox="0 0 18 18" fill="none" xmlns="http://www.w3.org/2000/svg">
<path d="M3.8 11.9455C3.53333 11.4848 3.33333 11.0121 3.2 10.5273C3.06667 10.0424 3 9.54545 3 9.03636C3 7.41212 3.56364 6.0303 4.69091 4.89091C5.81818 3.75152 7.19394 3.18182 8.81818 3.18182H8.94546L7.78182 2.01818L8.8 1L11.7091 3.90909L8.8 6.81818L7.78182 5.8L8.94546 4.63636H8.81818C7.60606 4.63636 6.57576 5.06352 5.72727 5.91782C4.87879 6.77261 4.45455 7.81212 4.45455 9.03636C4.45455 9.35152 4.49091 9.66061 4.56364 9.96364C4.63636 10.2667 4.74545 10.5636 4.89091 10.8545L3.8 11.9455ZM8.83636 17L5.92727 14.0909L8.83636 11.1818L9.85455 12.2L8.69091 13.3636H8.81818C10.0303 13.3636 11.0606 12.9365 11.9091 12.0822C12.7576 11.2274 13.1818 10.1879 13.1818 8.96364C13.1818 8.64848 13.1455 8.33939 13.0727 8.03636C13 7.73333 12.8909 7.43636 12.7455 7.14545L13.8364 6.05455C14.103 6.51515 14.303 6.98788 14.4364 7.47273C14.5697 7.95758 14.6364 8.45455 14.6364 8.96364C14.6364 10.5879 14.0727 11.9697 12.9455 13.1091C11.8182 14.2485 10.4424 14.8182 8.81818 14.8182H8.69091L9.85455 15.9818L8.83636 17Z" fill="#226EE0"/>
</svg>
