<svg width="12" height="12" viewBox="0 0 12 12" fill="none" xmlns="http://www.w3.org/2000/svg">
<path d="M10.75 11.625L6.8125 7.6875C6.5 7.9375 6.14062 8.13542 5.73438 8.28125C5.32812 8.42708 4.89583 8.5 4.4375 8.5C3.30208 8.5 2.34125 8.10687 1.555 7.32062C0.768333 6.53396 0.375 5.57292 0.375 4.4375C0.375 3.30208 0.768333 2.34104 1.555 1.55438C2.34125 0.768125 3.30208 0.375 4.4375 0.375C5.57292 0.375 6.53396 0.768125 7.32062 1.55438C8.10687 2.34104 8.5 3.30208 8.5 4.4375C8.5 4.89583 8.42708 5.32812 8.28125 5.73438C8.13542 6.14062 7.9375 6.5 7.6875 6.8125L11.625 10.75L10.75 11.625ZM4.4375 7.25C5.21875 7.25 5.88292 6.97667 6.43 6.43C6.97667 5.88292 7.25 5.21875 7.25 4.4375C7.25 3.65625 6.97667 2.99208 6.43 2.445C5.88292 1.89833 5.21875 1.625 4.4375 1.625C3.65625 1.625 2.99208 1.89833 2.445 2.445C1.89833 2.99208 1.625 3.65625 1.625 4.4375C1.625 5.21875 1.89833 5.88292 2.445 6.43C2.99208 6.97667 3.65625 7.25 4.4375 7.25Z" fill="#48505B"/>
</svg>
