<svg width="16" height="16" viewBox="0 0 16 16" fill="none" xmlns="http://www.w3.org/2000/svg">
<path fill-rule="evenodd" clip-rule="evenodd" d="M11.4994 6.9999C11.4994 8.19311 11.0254 9.33744 10.1817 10.1812C9.33796 11.0249 8.19362 11.4989 7.00041 11.4989C5.8072 11.4989 4.66286 11.0249 3.81914 10.1812C2.97541 9.33744 2.50141 8.19311 2.50141 6.9999C2.50141 5.80669 2.97541 4.66235 3.81914 3.81862C4.66286 2.9749 5.8072 2.5009 7.00041 2.5009C8.19362 2.5009 9.33796 2.9749 10.1817 3.81862C11.0254 4.66235 11.4994 5.80669 11.4994 6.9999V6.9999ZM10.6794 11.7399C9.47379 12.6759 7.95678 13.1172 6.43721 12.974C4.91764 12.8309 3.50975 12.114 2.50016 10.9693C1.49056 9.82461 0.95516 8.3382 1.00294 6.81265C1.05073 5.2871 1.67811 3.8371 2.75736 2.75785C3.83662 1.6786 5.28661 1.05122 6.81216 1.00343C8.33771 0.955648 9.82412 1.49105 10.9688 2.50065C12.1135 3.51024 12.8304 4.91813 12.9735 6.4377C13.1167 7.95726 12.6754 9.47427 11.7394 10.6799L14.7794 13.7199C14.8531 13.7886 14.9122 13.8714 14.9532 13.9634C14.9942 14.0554 15.0162 14.1547 15.018 14.2554C15.0198 14.3561 15.0013 14.4561 14.9635 14.5495C14.9258 14.6429 14.8697 14.7277 14.7984 14.7989C14.7272 14.8702 14.6424 14.9263 14.549 14.964C14.4556 15.0017 14.3556 15.0203 14.2549 15.0185C14.1542 15.0167 14.0549 14.9947 13.9629 14.9537C13.8709 14.9127 13.7881 14.8536 13.7194 14.7799L10.6794 11.7399V11.7399Z" fill="#C5CAD1"/>
</svg>
