<svg width="18" height="18" viewBox="0 0 18 18" fill="none" xmlns="http://www.w3.org/2000/svg">
<path d="M9.54203 1.65953C10.4479 1.68773 11.037 2.18613 11.3476 3.12568L11.3968 3.28635L11.4348 3.4302C11.4487 3.4856 11.4659 3.54459 11.4861 3.60585L11.5291 3.72537L11.5546 3.73812L11.6064 3.72102L11.7066 3.68263L11.8235 3.63176C12.8838 3.13812 13.6995 3.22974 14.3637 3.95964L14.4576 4.06826L15.0727 4.83063C15.6209 5.55237 15.6043 6.32382 15.0696 7.15647L14.9757 7.29582L14.8878 7.41592C14.8527 7.46253 14.817 7.5142 14.7814 7.56972L14.7282 7.65575L14.7031 7.6988L14.7061 7.7138L14.7748 7.75916L14.8697 7.81647L14.9847 7.87897C16.0266 8.41063 16.4565 9.1098 16.2906 10.0811L16.2629 10.2217L16.0798 11.0153C15.9612 11.5289 15.8681 11.7721 15.5017 12.1057C15.1458 12.4298 14.7397 12.5636 14.2031 12.608L14.0381 12.6188L13.8894 12.6235C13.8317 12.6245 13.7697 12.6281 13.7047 12.6341L13.5691 12.6502L13.5789 12.757L13.589 12.8289L13.6132 12.9629C13.8556 14.1071 13.5829 14.8813 12.7222 15.3643L12.5953 15.4313L11.7141 15.8592C10.8875 16.231 10.1396 16.0412 9.44857 15.3329L9.33392 15.2101L9.23666 15.0975C9.19874 15.0523 9.15596 15.0054 9.10934 14.9578L9.03665 14.8859L8.99941 14.8514L8.93066 14.9168L8.85191 14.9979L8.76366 15.0975C8.04931 15.9477 7.29536 16.2529 6.38153 15.8975L6.24988 15.8422L5.46134 15.459L5.22709 15.3391C4.87005 15.1441 4.66969 14.9574 4.4739 14.5439C4.26777 14.1086 4.25393 13.6811 4.35385 13.1316L4.38716 12.9629C4.39909 12.9066 4.40952 12.8455 4.41825 12.7811L4.43198 12.6525L4.42898 12.6495L4.35123 12.6391L4.24136 12.6292L4.11094 12.6235C2.94149 12.6023 2.24853 12.1624 1.97151 11.2152L1.93476 11.0764L1.71608 10.1216C1.53978 9.23255 1.89289 8.54647 2.7385 8.03249L2.88399 7.94841L3.01559 7.87897C3.06716 7.85265 3.12152 7.82212 3.17743 7.78811L3.2935 7.7123L3.2965 7.69805L3.24959 7.61714L3.18899 7.52326L3.1125 7.41592C2.40918 6.48136 2.32921 5.66446 2.90507 4.86301L2.9918 4.74861L3.60961 3.98841C4.20161 3.30216 4.95966 3.15802 5.88529 3.50793L6.04111 3.57081L6.17685 3.63176C6.22792 3.65554 6.2838 3.67895 6.34326 3.70152L6.44495 3.73737L6.47195 3.72462L6.49717 3.65814L6.53098 3.55468L6.56551 3.4302C6.83484 2.35286 7.37869 1.74803 8.35749 1.6669L8.50029 1.65887L9.54203 1.65953ZM9.50002 3.00885H8.50029L8.39574 3.01651C8.1812 3.04445 8.04106 3.16025 7.90623 3.64026L7.87518 3.75762L7.83283 3.91194C7.75411 4.17632 7.63511 4.47383 7.48188 4.76268C7.17849 4.8714 6.89017 5.01177 6.62137 5.18125C6.30509 5.11713 6.00351 5.02309 5.75183 4.91907L5.48933 4.80287C5.30265 4.72291 5.16283 4.68212 5.05203 4.67219L4.98889 4.66987C4.85568 4.67266 4.76773 4.72737 4.68276 4.81432L4.6318 4.87021L4.03996 5.59937L3.96893 5.6934C3.83138 5.89164 3.8108 6.06841 4.11507 6.49993L4.28622 6.7368C4.44514 6.96909 4.6045 7.2554 4.73462 7.56285C4.63755 7.85105 4.56887 8.15231 4.53207 8.46389C4.28168 8.68065 4.01485 8.86638 3.77185 9.00444L3.51515 9.14175C3.05251 9.39622 2.99351 9.56412 3.03024 9.8026L3.04027 9.85895L3.25049 10.7742L3.28085 10.8881C3.35238 11.1185 3.47901 11.2436 4.00638 11.2695L4.29688 11.2804C4.57509 11.2979 4.89535 11.3478 5.21419 11.4333C5.38276 11.695 5.57774 11.9382 5.79629 12.1588C5.80874 12.5538 5.77223 12.9388 5.70782 13.2427C5.55699 13.9545 5.6974 14.0692 5.99543 14.2173L6.83998 14.628C6.92947 14.6683 7.00945 14.6954 7.09256 14.6944L7.1429 14.6902C7.27869 14.6694 7.42899 14.5688 7.64562 14.3266L7.83897 14.1055C8.03149 13.8964 8.27742 13.6747 8.55034 13.4778L8.7738 13.4944L9.00016 13.5L9.22654 13.4943L9.45013 13.4771C9.72293 13.6746 9.96883 13.8964 10.1614 14.1055L10.3547 14.3266C10.5984 14.5991 10.7582 14.6924 10.9078 14.6944L10.9574 14.6917C11.0013 14.6866 11.045 14.6743 11.0905 14.6571L11.1603 14.628L12.0049 14.2173L12.109 14.1621C12.3335 14.0312 12.4245 13.8656 12.2925 13.2427C12.2281 12.9388 12.1916 12.5538 12.205 12.1589C12.4226 11.9382 12.6176 11.695 12.7863 11.432C13.1054 11.3475 13.4255 11.2978 13.7035 11.2804L13.9939 11.2695C14.6024 11.2396 14.6774 11.0777 14.7498 10.7742L14.9475 9.91824C15.0154 9.61374 15.019 9.43537 14.4852 9.14175L14.2285 9.00443C13.9854 8.86634 13.7186 8.68051 13.4684 8.4633C13.4314 8.15231 13.3628 7.85105 13.2653 7.56223C13.3958 7.2553 13.5552 6.96907 13.7141 6.73679L13.8852 6.49993C14.1895 6.06841 14.1689 5.89164 14.0314 5.6934L13.9977 5.64715L13.4075 4.91664C13.3018 4.78809 13.2132 4.69607 13.0685 4.67456L13.0114 4.66987C12.8915 4.66737 12.735 4.70692 12.511 4.80287L12.2486 4.91902C11.9971 5.02295 11.6958 5.11681 11.3798 5.18008C11.11 5.01164 10.821 4.87099 10.517 4.76335C10.371 4.48552 10.2557 4.20013 10.1771 3.94382L10.092 3.6329C9.94814 3.12487 9.79781 3.02961 9.55719 3.01175L9.50002 3.00885ZM9.00016 6.15008C10.5741 6.15008 11.8501 7.42605 11.8501 9.00003C11.8501 10.574 10.5741 11.85 9.00016 11.85C7.42617 11.85 6.15021 10.574 6.15021 9.00003C6.15021 7.42605 7.42617 6.15008 9.00016 6.15008ZM9.00016 7.50006C8.17175 7.50006 7.50018 8.17162 7.50018 9.00003C7.50018 9.82845 8.17175 10.5 9.00016 10.5C9.82857 10.5 10.5001 9.82845 10.5001 9.00003C10.5001 8.17162 9.82857 7.50006 9.00016 7.50006Z" fill="#226EE0"/>
</svg>
