<svg width="20" height="20" viewBox="0 0 20 20" fill="none" xmlns="http://www.w3.org/2000/svg">
<path d="M10.6002 1.84399C11.6068 1.87532 12.2613 2.42911 12.6064 3.47307L12.6611 3.6516L12.7034 3.81143C12.7187 3.87299 12.7379 3.93853 12.7604 4.0066L12.8081 4.1394L12.8365 4.15357L12.894 4.13457L13.0053 4.09192L13.1352 4.03539C14.3134 3.4869 15.2197 3.58869 15.9577 4.39971L16.062 4.5204L16.7455 5.36749C17.3546 6.16945 17.3362 7.02662 16.742 7.95181L16.6377 8.10664L16.5401 8.24009C16.5011 8.29188 16.4614 8.34929 16.4219 8.41098L16.3628 8.50657L16.3348 8.5544L16.3381 8.57107L16.4145 8.62147L16.52 8.68515L16.6478 8.75459C17.8054 9.34534 18.2831 10.1222 18.0988 11.2014L18.068 11.3576L17.8646 12.2395C17.7328 12.8102 17.6293 13.0804 17.2222 13.4511C16.8268 13.8112 16.3755 13.9599 15.7793 14.0092L15.5959 14.0211L15.4307 14.0264C15.3666 14.0275 15.2977 14.0315 15.2255 14.0382L15.0748 14.0561L15.0858 14.1747L15.0969 14.2546L15.1238 14.4035C15.3932 15.6749 15.0901 16.5351 14.1339 17.0718L13.9928 17.1462L13.0137 17.6217C12.0953 18.0347 11.2642 17.8239 10.4964 17.0369L10.369 16.9004L10.2609 16.7753C10.2188 16.7251 10.1713 16.673 10.1195 16.6201L10.0387 16.5402L9.99731 16.5019L9.92092 16.5746L9.83342 16.6646L9.73536 16.7753C8.94163 17.72 8.10389 18.0591 7.08851 17.6642L6.94223 17.6028L6.06605 17.1769L5.80578 17.0438C5.40906 16.8271 5.18643 16.6196 4.96888 16.1602C4.73985 15.6766 4.72446 15.2015 4.83549 14.5909L4.8725 14.4035C4.88576 14.3409 4.89735 14.2731 4.90704 14.2015L4.92231 14.0586L4.91897 14.0552L4.83258 14.0437L4.7105 14.0327L4.56559 14.0264C3.26618 14.0028 2.49621 13.5141 2.18841 12.4616L2.14757 12.3074L1.90459 11.2464C1.70869 10.2586 2.10105 9.49627 3.04063 8.92517L3.20228 8.83175L3.34851 8.75459C3.40582 8.72535 3.46621 8.69143 3.52833 8.65364L3.65731 8.5694L3.66064 8.55357L3.60852 8.46367L3.54118 8.35935L3.45619 8.24009C2.67471 7.20167 2.58585 6.29399 3.2257 5.40347L3.32207 5.27636L4.00854 4.43168C4.66633 3.66916 5.50862 3.509 6.53712 3.8978L6.71026 3.96767L6.86108 4.03539C6.91782 4.06181 6.97991 4.08783 7.04599 4.11291L7.15898 4.15274L7.18897 4.13857L7.217 4.0647L7.25457 3.94975L7.29293 3.81143C7.59219 2.61437 8.19648 1.94233 9.28405 1.85218L9.44273 1.84326L10.6002 1.84399ZM10.5536 3.34326H9.44273L9.32655 3.35177C9.08817 3.38281 8.93245 3.51148 8.78264 4.04483L8.74814 4.17524L8.70109 4.34671C8.61362 4.64047 8.4814 4.97104 8.31113 5.29199C7.97403 5.41279 7.65367 5.56877 7.355 5.75708C7.00357 5.68584 6.66847 5.58134 6.38883 5.46576L6.09715 5.33665C5.88973 5.2478 5.73437 5.20248 5.61126 5.19145L5.5411 5.18887C5.39309 5.19197 5.29536 5.25275 5.20095 5.34937L5.14433 5.41147L4.48672 6.22167L4.40779 6.32614C4.25496 6.54641 4.2321 6.74282 4.57018 7.22231L4.76034 7.48549C4.93693 7.7436 5.114 8.06173 5.25857 8.40334C5.15072 8.72357 5.07441 9.05831 5.03352 9.40452C4.7553 9.64536 4.45882 9.85173 4.18881 10.0051L3.90359 10.1577C3.38953 10.4405 3.32398 10.627 3.36478 10.892L3.37593 10.9546L3.60951 11.9716L3.64324 12.0981C3.72272 12.3542 3.86343 12.4931 4.44941 12.5219L4.77219 12.534C5.08132 12.5534 5.43716 12.6089 5.79144 12.7039C5.97875 12.9947 6.1954 13.2649 6.43823 13.5101C6.45206 13.9489 6.41149 14.3767 6.33992 14.7144C6.17233 15.5053 6.32834 15.6328 6.6595 15.7973L7.5979 16.2537C7.69734 16.2984 7.7862 16.3285 7.87855 16.3274L7.93449 16.3227C8.08537 16.2997 8.25237 16.1879 8.49308 15.9188L8.70791 15.673C8.92183 15.4407 9.19508 15.1944 9.49833 14.9756L9.74663 14.994L9.99814 15.0002L10.2497 14.9939L10.4981 14.9749C10.8012 15.1942 11.0745 15.4407 11.2884 15.673L11.5032 15.9188C11.774 16.2215 11.9515 16.3252 12.1177 16.3274L12.1728 16.3244C12.2216 16.3187 12.2703 16.3051 12.3208 16.286L12.3984 16.2537L13.3368 15.7973L13.4525 15.736C13.7019 15.5905 13.803 15.4065 13.6564 14.7144C13.5848 14.3767 13.5442 13.9489 13.5591 13.5102C13.8009 13.2649 14.0175 12.9947 14.2051 12.7025C14.5596 12.6086 14.9153 12.5534 15.2242 12.534L15.5469 12.5219C16.223 12.4887 16.3063 12.3088 16.3868 11.9716L16.6064 11.0205C16.6819 10.6821 16.6858 10.484 16.0927 10.1577L15.8075 10.0051C15.5374 9.85169 15.241 9.64521 14.9629 9.40386C14.9219 9.05831 14.8456 8.72357 14.7373 8.40265C14.8822 8.06161 15.0593 7.74358 15.2359 7.48549L15.4261 7.22231C15.7642 6.74282 15.7413 6.54641 15.5885 6.32614L15.551 6.27475L14.8953 5.46306C14.7778 5.32023 14.6793 5.21798 14.5186 5.19408L14.4552 5.18887C14.322 5.18609 14.148 5.23003 13.8991 5.33665L13.6076 5.46571C13.3281 5.58119 12.9933 5.68547 12.6422 5.75577C12.3424 5.56861 12.0214 5.41233 11.6835 5.29274C11.5214 4.98403 11.3932 4.66693 11.3059 4.38214L11.2113 4.03666C11.0515 3.47217 10.8844 3.36633 10.6171 3.34648L10.5536 3.34326ZM9.99814 6.83357C11.747 6.83357 13.1648 8.25134 13.1648 10.0002C13.1648 11.7491 11.747 13.1669 9.99814 13.1669C8.24924 13.1669 6.83147 11.7491 6.83147 10.0002C6.83147 8.25134 8.24924 6.83357 9.99814 6.83357ZM9.99814 8.33357C9.07767 8.33357 8.33147 9.07976 8.33147 10.0002C8.33147 10.9207 9.07767 11.6669 9.99814 11.6669C10.9186 11.6669 11.6648 10.9207 11.6648 10.0002C11.6648 9.07976 10.9186 8.33357 9.99814 8.33357Z" fill="#226EE0"/>
</svg>
