<svg width="16" height="16" viewBox="0 0 16 16" fill="none" xmlns="http://www.w3.org/2000/svg">
<g clip-path="url(#clip0_403_77759)">
<path d="M6.77237 2.36957C7.08456 1.0827 8.9152 1.0827 9.22739 2.36957C9.27423 2.5629 9.36606 2.74243 9.4954 2.89355C9.62474 3.04468 9.78793 3.16313 9.9717 3.23927C10.1555 3.31541 10.3546 3.34707 10.5529 3.3317C10.7513 3.31632 10.9432 3.25433 11.113 3.15078C12.2438 2.46191 13.5387 3.75611 12.8498 4.88762C12.7464 5.05739 12.6845 5.24916 12.6692 5.44734C12.6539 5.64553 12.6855 5.84454 12.7615 6.0282C12.8376 6.21186 12.9559 6.37498 13.1069 6.50431C13.2578 6.63363 13.4372 6.72552 13.6303 6.77249C14.9172 7.08468 14.9172 8.91532 13.6303 9.22751C13.437 9.27435 13.2575 9.36618 13.1063 9.49552C12.9552 9.62486 12.8367 9.78805 12.7606 9.97182C12.6845 10.1556 12.6528 10.3547 12.6682 10.5531C12.6836 10.7514 12.7455 10.9433 12.8491 11.1131C13.538 12.2439 12.2438 13.5388 11.1123 12.85C10.9425 12.7465 10.7507 12.6847 10.5525 12.6693C10.3543 12.654 10.1553 12.6856 9.97168 12.7617C9.78802 12.8377 9.6249 12.956 9.49557 13.107C9.36624 13.2579 9.27436 13.4373 9.22739 13.6304C8.9152 14.9173 7.08456 14.9173 6.77237 13.6304C6.72553 13.4371 6.6337 13.2576 6.50436 13.1064C6.37502 12.9553 6.21182 12.8369 6.02805 12.7607C5.84428 12.6846 5.64513 12.6529 5.44681 12.6683C5.24849 12.6837 5.0566 12.7457 4.88676 12.8492C3.75599 13.5381 2.46106 12.2439 3.14993 11.1124C3.25333 10.9426 3.31522 10.7508 3.33056 10.5527C3.3459 10.3545 3.31426 10.1555 3.23821 9.9718C3.16217 9.78814 3.04386 9.62502 2.8929 9.49569C2.74194 9.36637 2.5626 9.27448 2.36945 9.22751C1.08258 8.91532 1.08258 7.08468 2.36945 6.77249C2.56277 6.72565 2.7423 6.63382 2.89343 6.50448C3.04456 6.37514 3.16301 6.21195 3.23915 6.02818C3.31528 5.84441 3.34695 5.64526 3.33158 5.44693C3.3162 5.24861 3.25421 5.05672 3.15066 4.88689C2.46179 3.75611 3.75599 2.46118 4.8875 3.15005C5.62034 3.59562 6.5701 3.20135 6.77237 2.36957Z" stroke="#747D8A" stroke-width="1.5" stroke-linecap="round" stroke-linejoin="round"/>
<path d="M8 10C9.10457 10 10 9.10457 10 8C10 6.89543 9.10457 6 8 6C6.89543 6 6 6.89543 6 8C6 9.10457 6.89543 10 8 10Z" stroke="#747D8A" stroke-width="1.5" stroke-linecap="round" stroke-linejoin="round"/>
</g>
<defs>
<clipPath id="clip0_403_77759">
<rect width="16" height="16" fill="white"/>
</clipPath>
</defs>
</svg>
