<svg width="16" height="16" viewBox="0 0 16 16" fill="none" xmlns="http://www.w3.org/2000/svg">
<path d="M8.47125 5.643L6.11423 8.00002C5.86418 8.25007 5.72371 8.58921 5.72371 8.94283C5.72371 9.29645 5.86418 9.63559 6.11423 9.88564C6.36428 10.1357 6.70342 10.2762 7.05704 10.2762C7.41066 10.2762 7.7498 10.1357 7.99985 9.88564L11.2997 6.58581C11.7998 6.08571 12.0807 5.40744 12.0807 4.70019C12.0807 3.99295 11.7998 3.31467 11.2997 2.81457C10.7996 2.31448 10.1213 2.03352 9.41406 2.03352C8.70682 2.03352 8.02854 2.31448 7.52844 2.81457L3.75721 6.58581C3.00706 7.33595 2.58564 8.35337 2.58564 9.41424C2.58564 10.4751 3.00706 11.4925 3.75721 12.2427C4.50735 12.9928 5.52477 13.4142 6.58564 13.4142C7.6465 13.4142 8.66392 12.9928 9.41406 12.2427L14.1281 7.52862" stroke="#226EE0" stroke-width="1.5" stroke-linecap="round" stroke-linejoin="round"/>
</svg>
