<svg width="18" height="18" viewBox="0 0 18 18" fill="none" xmlns="http://www.w3.org/2000/svg">
<path d="M11.5185 10.0244C14.4525 10.0244 17 11.0562 17 13.3275C17 14.5079 16.5371 15 15.5447 15H7.49237C6.49992 15 6.03704 14.5079 6.03704 13.3275C6.03704 11.0562 8.58454 10.0244 11.5185 10.0244ZM11.5185 11.1951C9.18016 11.1951 7.22222 11.9881 7.22222 13.3275C7.22222 13.8491 7.17987 13.833 7.44275 13.8296L15.5447 13.8293C15.8623 13.8293 15.8148 13.8798 15.8148 13.3275C15.8148 11.9881 13.8569 11.1951 11.5185 11.1951ZM3.96296 5.34146C4.29024 5.34146 4.55556 5.60354 4.55556 5.92683V7.68293H6.33333C6.66061 7.68293 6.92593 7.945 6.92593 8.26829C6.92593 8.59158 6.66061 8.85366 6.33333 8.85366H4.55556V10.6098C4.55556 10.933 4.29024 11.1951 3.96296 11.1951C3.63568 11.1951 3.37037 10.933 3.37037 10.6098V8.85366H1.59259C1.26531 8.85366 1 8.59158 1 8.26829C1 7.945 1.26531 7.68293 1.59259 7.68293H3.37037V5.92683C3.37037 5.60354 3.63568 5.34146 3.96296 5.34146ZM11.3704 3C13.171 3 14.6296 4.44086 14.6296 6.21951C14.6296 7.99817 13.171 9.43902 11.3704 9.43902C9.56976 9.43902 8.11111 7.99817 8.11111 6.21951C8.11111 4.44086 9.56976 3 11.3704 3ZM11.3704 4.17073C10.2243 4.17073 9.2963 5.08744 9.2963 6.21951C9.2963 7.35159 10.2243 8.26829 11.3704 8.26829C12.5164 8.26829 13.4444 7.35159 13.4444 6.21951C13.4444 5.08744 12.5164 4.17073 11.3704 4.17073Z" fill="#226EE0"/>
</svg>
