<svg width="18" height="18" viewBox="0 0 18 18" fill="none" xmlns="http://www.w3.org/2000/svg">
<path d="M4.2 15C3.87 15 3.5876 14.8826 3.3528 14.6478C3.1176 14.4126 3 14.13 3 13.8V11.4H4.2V13.8H6.6V15H4.2ZM3 6.6V4.2C3 3.87 3.1176 3.5874 3.3528 3.3522C3.5876 3.1174 3.87 3 4.2 3H6.6V4.2H4.2V6.6H3ZM11.4 15V13.8H13.8V11.4H15V13.8C15 14.13 14.8826 14.4126 14.6478 14.6478C14.4126 14.8826 14.13 15 13.8 15H11.4ZM13.8 6.6V4.2H11.4V3H13.8C14.13 3 14.4126 3.1174 14.6478 3.3522C14.8826 3.5874 15 3.87 15 4.2V6.6H13.8ZM9 9C8.49 9 8.0626 8.8274 7.7178 8.4822C7.3726 8.1374 7.2 7.71 7.2 7.2C7.2 6.7 7.3726 6.275 7.7178 5.925C8.0626 5.575 8.49 5.4 9 5.4C9.5 5.4 9.925 5.575 10.275 5.925C10.625 6.275 10.8 6.7 10.8 7.2C10.8 7.71 10.625 8.1374 10.275 8.4822C9.925 8.8274 9.5 9 9 9ZM9 7.8C9.17 7.8 9.3126 7.7424 9.4278 7.6272C9.5426 7.5124 9.6 7.37 9.6 7.2C9.6 7.03 9.5426 6.8874 9.4278 6.7722C9.3126 6.6574 9.17 6.6 9 6.6C8.83 6.6 8.6876 6.6574 8.5728 6.7722C8.4576 6.8874 8.4 7.03 8.4 7.2C8.4 7.37 8.4576 7.5124 8.5728 7.6272C8.6876 7.7424 8.83 7.8 9 7.8ZM5.4 12.6V11.46C5.4 11.25 5.4526 11.0526 5.5578 10.8678C5.6626 10.6826 5.805 10.535 5.985 10.425C6.445 10.155 6.9274 9.95 7.4322 9.81C7.9374 9.67 8.46 9.6 9 9.6C9.54 9.6 10.0626 9.67 10.5678 9.81C11.0726 9.95 11.555 10.155 12.015 10.425C12.195 10.535 12.3376 10.6826 12.4428 10.8678C12.5476 11.0526 12.6 11.25 12.6 11.46V12.6H5.4ZM9 10.8C8.59 10.8 8.19 10.85 7.8 10.95C7.41 11.05 7.04 11.2 6.69 11.4H11.31C10.96 11.2 10.59 11.05 10.2 10.95C9.81 10.85 9.41 10.8 9 10.8Z" fill="#226EE0"/>
</svg>
