<svg width="18" height="18" viewBox="0 0 18 18" fill="none" xmlns="http://www.w3.org/2000/svg">
<path d="M12.7492 10.125C15.5156 10.125 17.9242 11.1069 17.9242 13.3178C17.9242 14.4834 17.4414 15 16.4551 15L11.3613 15C11.5601 14.6226 11.6802 14.1695 11.7127 13.65L16.4551 13.65C16.493 13.65 16.5209 13.6498 16.5405 13.6505L16.5577 13.6515L16.5605 13.6303C16.5661 13.5721 16.5742 13.4707 16.5742 13.3178C16.5742 12.1836 14.8358 11.475 12.7492 11.475C12.2396 11.475 11.7508 11.5173 11.303 11.5977C11.0683 11.1475 10.7403 10.7538 10.338 10.4165C11.0656 10.2197 11.8902 10.125 12.7492 10.125ZM5.24922 10.125C8.01556 10.125 10.4242 11.1069 10.4242 13.3178C10.4242 14.4834 9.94144 15 8.9551 15H1.54334C0.557001 15 0.0742188 14.4834 0.0742188 13.3178C0.0742188 11.1069 2.48288 10.125 5.24922 10.125ZM5.24922 11.475C3.16261 11.475 1.42422 12.1836 1.42422 13.3178C1.42422 13.4817 1.43359 13.5865 1.43912 13.6422L1.43922 13.6515L1.45524 13.6506C1.46511 13.6501 1.47723 13.65 1.49183 13.65L8.9551 13.65C8.99295 13.65 9.02088 13.6498 9.04051 13.6505L9.05772 13.6515L9.06048 13.6303C9.06606 13.5721 9.07422 13.4707 9.07422 13.3178C9.07422 12.1836 7.33582 11.475 5.24922 11.475ZM12.7492 3.14999C14.4687 3.14999 15.8617 4.54298 15.8617 6.26249C15.8617 7.98201 14.4687 9.37499 12.7492 9.37499C11.0297 9.37499 9.63672 7.98201 9.63672 6.26249C9.63672 4.54298 11.0297 3.14999 12.7492 3.14999ZM5.24922 3.14999C6.96873 3.14999 8.36172 4.54298 8.36172 6.26249C8.36172 7.98201 6.96873 9.37499 5.24922 9.37499C3.52971 9.37499 2.13672 7.98201 2.13672 6.26249C2.13672 4.54298 3.52971 3.14999 5.24922 3.14999ZM12.7492 4.49999C11.7753 4.49999 10.9867 5.28857 10.9867 6.26249C10.9867 7.23642 11.7753 8.02499 12.7492 8.02499C13.7231 8.02499 14.5117 7.23642 14.5117 6.26249C14.5117 5.28857 13.7231 4.49999 12.7492 4.49999ZM5.24922 4.49999C4.27529 4.49999 3.48672 5.28857 3.48672 6.26249C3.48672 7.23642 4.27529 8.02499 5.24922 8.02499C6.22315 8.02499 7.01172 7.23642 7.01172 6.26249C7.01172 5.28857 6.22315 4.49999 5.24922 4.49999Z" fill="#F22F52"/>
</svg>
