<svg width="18" height="18" viewBox="0 0 18 18" fill="none" xmlns="http://www.w3.org/2000/svg">
<path d="M11.0946 6.21951C11.0946 5.08744 10.2058 4.17073 9.10811 4.17073C8.01045 4.17073 7.12162 5.08744 7.12162 6.21951C7.12162 7.35159 8.01045 8.26829 9.10811 8.26829C10.2058 8.26829 11.0946 7.35159 11.0946 6.21951ZM12.2297 6.21951C12.2297 7.99817 10.8327 9.43902 9.10811 9.43902C7.38353 9.43902 5.98649 7.99817 5.98649 6.21951C5.98649 4.44086 7.38353 3 9.10811 3C10.8327 3 12.2297 4.44086 12.2297 6.21951ZM5.13514 13.3275C5.13514 13.8798 5.08966 13.8293 5.39388 13.8293H13.1061C13.4103 13.8293 13.3649 13.8798 13.3649 13.3275C13.3649 11.9881 11.4896 11.1951 9.25 11.1951C7.01039 11.1951 5.13514 11.9881 5.13514 13.3275ZM4 13.3275C4 11.0562 6.43993 10.0244 9.25 10.0244C12.0601 10.0244 14.5 11.0562 14.5 13.3275C14.5 14.5079 14.0567 15 13.1061 15H5.39388C4.44333 15 4 14.5079 4 13.3275Z" fill="#226EE0"/>
</svg>
