<svg width="40" height="40" viewBox="0 0 40 40" fill="none" xmlns="http://www.w3.org/2000/svg">
<g clip-path="url(#clip0_412_77604)">
<path d="M15.815 0.00646484L17.03 0.00146484H22.97L24.1867 0.00646484L25.71 0.0231315L26.4317 0.0347982L27.1283 0.0531315L27.8 0.0764648L28.4467 0.103132L29.07 0.138131L29.67 0.179798L30.245 0.229798L30.8 0.284798C33.7 0.611465 35.6883 1.31146 37.1883 2.81146C38.6883 4.31146 39.3883 6.29813 39.715 9.1998L39.7717 9.7548L39.82 10.3315L39.8617 10.9315L39.895 11.5531L39.9367 12.5331L39.9567 13.2165L39.9783 14.2898L39.9933 15.8148L40 17.4481L39.9983 22.9698L39.9933 24.1865L39.9767 25.7098L39.965 26.4315L39.9467 27.1281L39.9233 27.7998L39.8967 28.4465L39.8617 29.0698L39.82 29.6698L39.77 30.2448L39.715 30.7998C39.3883 33.6998 38.6883 35.6881 37.1883 37.1881C35.6883 38.6881 33.7017 39.3881 30.8 39.7148L30.245 39.7715L29.6683 39.8198L29.0683 39.8615L28.4467 39.8948L27.4667 39.9365L26.7833 39.9565L25.71 39.9781L24.185 39.9931L22.5517 39.9998L17.03 39.9981L15.8133 39.9931L14.29 39.9765L13.5683 39.9648L12.8717 39.9465L12.2 39.9231L11.5533 39.8965L10.93 39.8615L10.33 39.8198L9.755 39.7698L9.2 39.7148C6.3 39.3881 4.31167 38.6881 2.81167 37.1881C1.31167 35.6881 0.611667 33.7015 0.285 30.7998L0.228333 30.2448L0.18 29.6681L0.138333 29.0681L0.105 28.4465L0.0633333 27.4665L0.0433333 26.7831L0.0216667 25.7098L0.00666667 24.1848L0 22.5515L0.00166667 17.0298L0.00666667 15.8131L0.0233333 14.2898L0.035 13.5681L0.0533333 12.8715L0.0766667 12.1998L0.103333 11.5531L0.138333 10.9298L0.18 10.3298L0.23 9.7548L0.285 9.1998C0.611667 6.2998 1.31167 4.31146 2.81167 2.81146C4.31167 1.31146 6.29833 0.611465 9.2 0.284798L9.755 0.228131L10.3317 0.179798L10.9317 0.138131L11.5533 0.104798L12.5333 0.0631315L13.2167 0.0431315L14.29 0.0214648L15.815 0.00646484ZM11.3167 12.1665H6.75C6.96667 22.5665 12.1667 28.8165 21.2833 28.8165H21.8V22.8665C25.15 23.1998 27.6833 25.6498 28.7 28.8165H33.4333C32.1333 24.0831 28.7167 21.4665 26.5833 20.4665C28.7167 19.2331 31.7167 16.2331 32.4333 12.1665H28.1333C27.2 15.4665 24.4333 18.4665 21.8 18.7498V12.1665H17.5V23.6998C14.8333 23.0331 11.4667 19.7998 11.3167 12.1665Z" fill="#157BFB"/>
</g>
<defs>
<clipPath id="clip0_412_77604">
<rect width="40" height="40" fill="white"/>
</clipPath>
</defs>
</svg>
