<svg width="19" height="18" viewBox="0 0 19 18" fill="none" xmlns="http://www.w3.org/2000/svg">
<path d="M11.9392 2.57227C12.6894 2.57227 13.0769 2.6471 13.4804 2.8629C13.8544 3.06289 14.1517 3.3602 14.3517 3.73413C14.5558 4.11583 14.6338 4.48324 14.6416 5.15685C15.1849 5.19174 15.5308 5.28654 15.8874 5.47726C16.3137 5.70526 16.6522 6.04368 16.8802 6.46999C17.1278 6.93303 17.2137 7.37803 17.2137 8.25887V12.3142C17.2137 13.1951 17.1278 13.6401 16.8802 14.1031C16.6522 14.5294 16.3137 14.8678 15.8874 15.0958C15.4244 15.3435 14.9794 15.4294 14.0986 15.4294H4.90033C4.01949 15.4294 3.57449 15.3435 3.11146 15.0958C2.68514 14.8678 2.34672 14.5294 2.11873 14.1031C1.87109 13.6401 1.78516 13.1951 1.78516 12.3142V5.14369H1.78644L1.78651 5.10853C1.7975 4.46547 1.87659 4.1066 2.07579 3.73413C2.27578 3.3602 2.57309 3.06289 2.94702 2.8629C3.35053 2.6471 3.73807 2.57227 4.48828 2.57227H11.9392ZM14.0986 6.42941H3.07087V12.3142C3.07087 13.001 3.11808 13.2455 3.25249 13.4968C3.36065 13.699 3.51554 13.8539 3.7178 13.9621C3.96911 14.0965 4.21359 14.1437 4.90033 14.1437H14.0986C14.7853 14.1437 15.0298 14.0965 15.2811 13.9621C15.4833 13.8539 15.6382 13.699 15.7464 13.4968C15.8808 13.2455 15.928 13.001 15.928 12.3142V8.25887C15.928 7.57213 15.8808 7.32765 15.7464 7.07633C15.6382 6.87408 15.4833 6.71919 15.2811 6.61102C15.0298 6.47662 14.7853 6.42941 14.0986 6.42941ZM13.3566 9.64369C13.7116 9.64369 13.9994 9.93151 13.9994 10.2866C13.9994 10.6416 13.7116 10.9294 13.3566 10.9294H12.0709C11.7158 10.9294 11.428 10.6416 11.428 10.2866C11.428 9.93151 11.7158 9.64369 12.0709 9.64369H13.3566ZM11.9392 3.85798H4.48828C3.93217 3.85798 3.74514 3.8941 3.55336 3.99666C3.40349 4.07682 3.28971 4.1906 3.20955 4.34047C3.11554 4.51625 3.07736 4.68804 3.07164 5.14369H13.3558C13.3501 4.68804 13.3119 4.51625 13.2179 4.34047C13.1377 4.1906 13.024 4.07682 12.8741 3.99666C12.6823 3.8941 12.4953 3.85798 11.9392 3.85798Z" fill="#48505B"/>
</svg>
